G04 #@! TF.GenerationSoftware,KiCad,Pcbnew,(5.1.7)-1*
G04 #@! TF.CreationDate,2020-11-24T00:17:57-08:00*
G04 #@! TF.ProjectId,daughter_board,64617567-6874-4657-925f-626f6172642e,rev?*
G04 #@! TF.SameCoordinates,Original*
G04 #@! TF.FileFunction,Legend,Top*
G04 #@! TF.FilePolarity,Positive*
%FSLAX46Y46*%
G04 Gerber Fmt 4.6, Leading zero omitted, Abs format (unit mm)*
G04 Created by KiCad (PCBNEW (5.1.7)-1) date 2020-11-24 00:17:57*
%MOMM*%
%LPD*%
G01*
G04 APERTURE LIST*
%ADD10C,0.120000*%
%ADD11C,0.150000*%
G04 APERTURE END LIST*
D10*
X161311000Y-73863252D02*
X161311000Y-72440748D01*
X159491000Y-73863252D02*
X159491000Y-72440748D01*
X161904000Y-73863252D02*
X161904000Y-72440748D01*
X163724000Y-73863252D02*
X163724000Y-72440748D01*
X168550000Y-73879064D02*
X168550000Y-72424936D01*
X166730000Y-73879064D02*
X166730000Y-72424936D01*
X164317000Y-73879064D02*
X164317000Y-72424936D01*
X166137000Y-73879064D02*
X166137000Y-72424936D01*
X136525000Y-114935000D02*
X136525000Y-100965000D01*
X150495000Y-114935000D02*
X136525000Y-114935000D01*
X150495000Y-100965000D02*
X150495000Y-114935000D01*
X136525000Y-100965000D02*
X150495000Y-100965000D01*
X146630000Y-82590000D02*
G75*
G03*
X146630000Y-82590000I-3000000J0D01*
G01*
X141630000Y-88490000D02*
X137530000Y-88490000D01*
X137530000Y-76690000D02*
X141630000Y-76690000D01*
X145630000Y-76690000D02*
X149730000Y-76690000D01*
X145630000Y-88390000D02*
X149730000Y-88390000D01*
X149730000Y-88390000D02*
X149730000Y-76690000D01*
X151130000Y-86390000D02*
X151430000Y-86690000D01*
X151430000Y-86690000D02*
X150830000Y-86690000D01*
X150830000Y-86690000D02*
X151130000Y-86390000D01*
X137530000Y-88490000D02*
X137530000Y-85890000D01*
X137530000Y-83890000D02*
X137530000Y-81290000D01*
X137530000Y-79290000D02*
X137530000Y-76690000D01*
X143630000Y-83090000D02*
X143630000Y-82090000D01*
X144130000Y-82590000D02*
X143130000Y-82590000D01*
D11*
X125666666Y-116632380D02*
X125333333Y-116156190D01*
X125095238Y-116632380D02*
X125095238Y-115632380D01*
X125476190Y-115632380D01*
X125571428Y-115680000D01*
X125619047Y-115727619D01*
X125666666Y-115822857D01*
X125666666Y-115965714D01*
X125619047Y-116060952D01*
X125571428Y-116108571D01*
X125476190Y-116156190D01*
X125095238Y-116156190D01*
X126095238Y-116108571D02*
X126428571Y-116108571D01*
X126571428Y-116632380D02*
X126095238Y-116632380D01*
X126095238Y-115632380D01*
X126571428Y-115632380D01*
X127333333Y-116108571D02*
X127000000Y-116108571D01*
X127000000Y-116632380D02*
X127000000Y-115632380D01*
X127476190Y-115632380D01*
X128000000Y-115632380D02*
X128000000Y-115870476D01*
X127761904Y-115775238D02*
X128000000Y-115870476D01*
X128238095Y-115775238D01*
X127857142Y-116060952D02*
X128000000Y-115870476D01*
X128142857Y-116060952D01*
X128761904Y-115632380D02*
X128761904Y-115870476D01*
X128523809Y-115775238D02*
X128761904Y-115870476D01*
X129000000Y-115775238D01*
X128619047Y-116060952D02*
X128761904Y-115870476D01*
X128904761Y-116060952D01*
X219646666Y-115362380D02*
X219313333Y-114886190D01*
X219075238Y-115362380D02*
X219075238Y-114362380D01*
X219456190Y-114362380D01*
X219551428Y-114410000D01*
X219599047Y-114457619D01*
X219646666Y-114552857D01*
X219646666Y-114695714D01*
X219599047Y-114790952D01*
X219551428Y-114838571D01*
X219456190Y-114886190D01*
X219075238Y-114886190D01*
X220075238Y-114838571D02*
X220408571Y-114838571D01*
X220551428Y-115362380D02*
X220075238Y-115362380D01*
X220075238Y-114362380D01*
X220551428Y-114362380D01*
X221313333Y-114838571D02*
X220980000Y-114838571D01*
X220980000Y-115362380D02*
X220980000Y-114362380D01*
X221456190Y-114362380D01*
X221980000Y-114362380D02*
X221980000Y-114600476D01*
X221741904Y-114505238D02*
X221980000Y-114600476D01*
X222218095Y-114505238D01*
X221837142Y-114790952D02*
X221980000Y-114600476D01*
X222122857Y-114790952D01*
X222741904Y-114362380D02*
X222741904Y-114600476D01*
X222503809Y-114505238D02*
X222741904Y-114600476D01*
X222980000Y-114505238D01*
X222599047Y-114790952D02*
X222741904Y-114600476D01*
X222884761Y-114790952D01*
X219646666Y-65832380D02*
X219313333Y-65356190D01*
X219075238Y-65832380D02*
X219075238Y-64832380D01*
X219456190Y-64832380D01*
X219551428Y-64880000D01*
X219599047Y-64927619D01*
X219646666Y-65022857D01*
X219646666Y-65165714D01*
X219599047Y-65260952D01*
X219551428Y-65308571D01*
X219456190Y-65356190D01*
X219075238Y-65356190D01*
X220075238Y-65308571D02*
X220408571Y-65308571D01*
X220551428Y-65832380D02*
X220075238Y-65832380D01*
X220075238Y-64832380D01*
X220551428Y-64832380D01*
X221313333Y-65308571D02*
X220980000Y-65308571D01*
X220980000Y-65832380D02*
X220980000Y-64832380D01*
X221456190Y-64832380D01*
X221980000Y-64832380D02*
X221980000Y-65070476D01*
X221741904Y-64975238D02*
X221980000Y-65070476D01*
X222218095Y-64975238D01*
X221837142Y-65260952D02*
X221980000Y-65070476D01*
X222122857Y-65260952D01*
X222741904Y-64832380D02*
X222741904Y-65070476D01*
X222503809Y-64975238D02*
X222741904Y-65070476D01*
X222980000Y-64975238D01*
X222599047Y-65260952D02*
X222741904Y-65070476D01*
X222884761Y-65260952D01*
X125666666Y-65832380D02*
X125333333Y-65356190D01*
X125095238Y-65832380D02*
X125095238Y-64832380D01*
X125476190Y-64832380D01*
X125571428Y-64880000D01*
X125619047Y-64927619D01*
X125666666Y-65022857D01*
X125666666Y-65165714D01*
X125619047Y-65260952D01*
X125571428Y-65308571D01*
X125476190Y-65356190D01*
X125095238Y-65356190D01*
X126095238Y-65308571D02*
X126428571Y-65308571D01*
X126571428Y-65832380D02*
X126095238Y-65832380D01*
X126095238Y-64832380D01*
X126571428Y-64832380D01*
X127333333Y-65308571D02*
X127000000Y-65308571D01*
X127000000Y-65832380D02*
X127000000Y-64832380D01*
X127476190Y-64832380D01*
X128000000Y-64832380D02*
X128000000Y-65070476D01*
X127761904Y-64975238D02*
X128000000Y-65070476D01*
X128238095Y-64975238D01*
X127857142Y-65260952D02*
X128000000Y-65070476D01*
X128142857Y-65260952D01*
X128761904Y-64832380D02*
X128761904Y-65070476D01*
X128523809Y-64975238D02*
X128761904Y-65070476D01*
X129000000Y-64975238D01*
X128619047Y-65260952D02*
X128761904Y-65070476D01*
X128904761Y-65260952D01*
X142176666Y-100480761D02*
X142319523Y-100528380D01*
X142557619Y-100528380D01*
X142652857Y-100480761D01*
X142700476Y-100433142D01*
X142748095Y-100337904D01*
X142748095Y-100242666D01*
X142700476Y-100147428D01*
X142652857Y-100099809D01*
X142557619Y-100052190D01*
X142367142Y-100004571D01*
X142271904Y-99956952D01*
X142224285Y-99909333D01*
X142176666Y-99814095D01*
X142176666Y-99718857D01*
X142224285Y-99623619D01*
X142271904Y-99576000D01*
X142367142Y-99528380D01*
X142605238Y-99528380D01*
X142748095Y-99576000D01*
X143081428Y-99528380D02*
X143319523Y-100528380D01*
X143510000Y-99814095D01*
X143700476Y-100528380D01*
X143938571Y-99528380D01*
X144843333Y-100528380D02*
X144271904Y-100528380D01*
X144557619Y-100528380D02*
X144557619Y-99528380D01*
X144462380Y-99671238D01*
X144367142Y-99766476D01*
X144271904Y-99814095D01*
X146996666Y-90194761D02*
X147139523Y-90242380D01*
X147377619Y-90242380D01*
X147472857Y-90194761D01*
X147520476Y-90147142D01*
X147568095Y-90051904D01*
X147568095Y-89956666D01*
X147520476Y-89861428D01*
X147472857Y-89813809D01*
X147377619Y-89766190D01*
X147187142Y-89718571D01*
X147091904Y-89670952D01*
X147044285Y-89623333D01*
X146996666Y-89528095D01*
X146996666Y-89432857D01*
X147044285Y-89337619D01*
X147091904Y-89290000D01*
X147187142Y-89242380D01*
X147425238Y-89242380D01*
X147568095Y-89290000D01*
X147901428Y-89242380D02*
X148139523Y-90242380D01*
X148330000Y-89528095D01*
X148520476Y-90242380D01*
X148758571Y-89242380D01*
X149091904Y-89337619D02*
X149139523Y-89290000D01*
X149234761Y-89242380D01*
X149472857Y-89242380D01*
X149568095Y-89290000D01*
X149615714Y-89337619D01*
X149663333Y-89432857D01*
X149663333Y-89528095D01*
X149615714Y-89670952D01*
X149044285Y-90242380D01*
X149663333Y-90242380D01*
M02*
