G04 #@! TF.GenerationSoftware,KiCad,Pcbnew,(5.1.7)-1*
G04 #@! TF.CreationDate,2020-11-24T00:17:57-08:00*
G04 #@! TF.ProjectId,daughter_board,64617567-6874-4657-925f-626f6172642e,rev?*
G04 #@! TF.SameCoordinates,Original*
G04 #@! TF.FileFunction,Soldermask,Top*
G04 #@! TF.FilePolarity,Negative*
%FSLAX46Y46*%
G04 Gerber Fmt 4.6, Leading zero omitted, Abs format (unit mm)*
G04 Created by KiCad (PCBNEW (5.1.7)-1) date 2020-11-24 00:17:57*
%MOMM*%
%LPD*%
G01*
G04 APERTURE LIST*
%ADD10C,1.100000*%
%ADD11C,2.200000*%
%ADD12C,4.000000*%
%ADD13C,1.700000*%
%ADD14C,1.500000*%
%ADD15R,3.200000X2.000000*%
%ADD16C,2.000000*%
%ADD17R,2.000000X2.000000*%
G04 APERTURE END LIST*
D10*
X177800000Y-69660000D03*
X177800000Y-76660000D03*
D11*
X127000000Y-119380000D03*
X220980000Y-118110000D03*
X220980000Y-68580000D03*
X127000000Y-68580000D03*
G36*
G01*
X161051002Y-75377000D02*
X159750998Y-75377000D01*
G75*
G02*
X159501000Y-75127002I0J249998D01*
G01*
X159501000Y-74301998D01*
G75*
G02*
X159750998Y-74052000I249998J0D01*
G01*
X161051002Y-74052000D01*
G75*
G02*
X161301000Y-74301998I0J-249998D01*
G01*
X161301000Y-75127002D01*
G75*
G02*
X161051002Y-75377000I-249998J0D01*
G01*
G37*
G36*
G01*
X161051002Y-72252000D02*
X159750998Y-72252000D01*
G75*
G02*
X159501000Y-72002002I0J249998D01*
G01*
X159501000Y-71176998D01*
G75*
G02*
X159750998Y-70927000I249998J0D01*
G01*
X161051002Y-70927000D01*
G75*
G02*
X161301000Y-71176998I0J-249998D01*
G01*
X161301000Y-72002002D01*
G75*
G02*
X161051002Y-72252000I-249998J0D01*
G01*
G37*
G36*
G01*
X163464002Y-72252000D02*
X162163998Y-72252000D01*
G75*
G02*
X161914000Y-72002002I0J249998D01*
G01*
X161914000Y-71176998D01*
G75*
G02*
X162163998Y-70927000I249998J0D01*
G01*
X163464002Y-70927000D01*
G75*
G02*
X163714000Y-71176998I0J-249998D01*
G01*
X163714000Y-72002002D01*
G75*
G02*
X163464002Y-72252000I-249998J0D01*
G01*
G37*
G36*
G01*
X163464002Y-75377000D02*
X162163998Y-75377000D01*
G75*
G02*
X161914000Y-75127002I0J249998D01*
G01*
X161914000Y-74301998D01*
G75*
G02*
X162163998Y-74052000I249998J0D01*
G01*
X163464002Y-74052000D01*
G75*
G02*
X163714000Y-74301998I0J-249998D01*
G01*
X163714000Y-75127002D01*
G75*
G02*
X163464002Y-75377000I-249998J0D01*
G01*
G37*
G36*
G01*
X168265001Y-75352000D02*
X167014999Y-75352000D01*
G75*
G02*
X166765000Y-75102001I0J249999D01*
G01*
X166765000Y-74301999D01*
G75*
G02*
X167014999Y-74052000I249999J0D01*
G01*
X168265001Y-74052000D01*
G75*
G02*
X168515000Y-74301999I0J-249999D01*
G01*
X168515000Y-75102001D01*
G75*
G02*
X168265001Y-75352000I-249999J0D01*
G01*
G37*
G36*
G01*
X168265001Y-72252000D02*
X167014999Y-72252000D01*
G75*
G02*
X166765000Y-72002001I0J249999D01*
G01*
X166765000Y-71201999D01*
G75*
G02*
X167014999Y-70952000I249999J0D01*
G01*
X168265001Y-70952000D01*
G75*
G02*
X168515000Y-71201999I0J-249999D01*
G01*
X168515000Y-72002001D01*
G75*
G02*
X168265001Y-72252000I-249999J0D01*
G01*
G37*
G36*
G01*
X165852001Y-72252000D02*
X164601999Y-72252000D01*
G75*
G02*
X164352000Y-72002001I0J249999D01*
G01*
X164352000Y-71201999D01*
G75*
G02*
X164601999Y-70952000I249999J0D01*
G01*
X165852001Y-70952000D01*
G75*
G02*
X166102000Y-71201999I0J-249999D01*
G01*
X166102000Y-72002001D01*
G75*
G02*
X165852001Y-72252000I-249999J0D01*
G01*
G37*
G36*
G01*
X165852001Y-75352000D02*
X164601999Y-75352000D01*
G75*
G02*
X164352000Y-75102001I0J249999D01*
G01*
X164352000Y-74301999D01*
G75*
G02*
X164601999Y-74052000I249999J0D01*
G01*
X165852001Y-74052000D01*
G75*
G02*
X166102000Y-74301999I0J-249999D01*
G01*
X166102000Y-75102001D01*
G75*
G02*
X165852001Y-75352000I-249999J0D01*
G01*
G37*
X146050000Y-102870000D03*
X139700000Y-105410000D03*
D12*
X143510000Y-107950000D03*
D13*
X138430000Y-107950000D03*
X148590000Y-107950000D03*
D14*
X136630000Y-80090000D03*
X136630000Y-85090000D03*
D15*
X143630000Y-76990000D03*
X143630000Y-88190000D03*
D16*
X151130000Y-80090000D03*
X151130000Y-82590000D03*
D17*
X151130000Y-85090000D03*
M02*
