G04 #@! TF.GenerationSoftware,KiCad,Pcbnew,(5.1.7)-1*
G04 #@! TF.CreationDate,2020-11-24T00:17:57-08:00*
G04 #@! TF.ProjectId,daughter_board,64617567-6874-4657-925f-626f6172642e,rev?*
G04 #@! TF.SameCoordinates,Original*
G04 #@! TF.FileFunction,Copper,L1,Top*
G04 #@! TF.FilePolarity,Positive*
%FSLAX46Y46*%
G04 Gerber Fmt 4.6, Leading zero omitted, Abs format (unit mm)*
G04 Created by KiCad (PCBNEW (5.1.7)-1) date 2020-11-24 00:17:57*
%MOMM*%
%LPD*%
G01*
G04 APERTURE LIST*
G04 #@! TA.AperFunction,ComponentPad*
%ADD10C,2.200000*%
G04 #@! TD*
G04 #@! TA.AperFunction,ComponentPad*
%ADD11C,1.500000*%
G04 #@! TD*
G04 #@! TA.AperFunction,ComponentPad*
%ADD12R,3.200000X2.000000*%
G04 #@! TD*
G04 #@! TA.AperFunction,ComponentPad*
%ADD13C,2.000000*%
G04 #@! TD*
G04 #@! TA.AperFunction,ComponentPad*
%ADD14R,2.000000X2.000000*%
G04 #@! TD*
G04 #@! TA.AperFunction,ViaPad*
%ADD15C,0.800000*%
G04 #@! TD*
G04 #@! TA.AperFunction,Conductor*
%ADD16C,0.250000*%
G04 #@! TD*
G04 #@! TA.AperFunction,Conductor*
%ADD17C,0.254000*%
G04 #@! TD*
G04 #@! TA.AperFunction,Conductor*
%ADD18C,0.100000*%
G04 #@! TD*
G04 APERTURE END LIST*
G04 #@! TA.AperFunction,SMDPad,CuDef*
G36*
G01*
X161051002Y-75377000D02*
X159750998Y-75377000D01*
G75*
G02*
X159501000Y-75127002I0J249998D01*
G01*
X159501000Y-74301998D01*
G75*
G02*
X159750998Y-74052000I249998J0D01*
G01*
X161051002Y-74052000D01*
G75*
G02*
X161301000Y-74301998I0J-249998D01*
G01*
X161301000Y-75127002D01*
G75*
G02*
X161051002Y-75377000I-249998J0D01*
G01*
G37*
G04 #@! TD.AperFunction*
G04 #@! TA.AperFunction,SMDPad,CuDef*
G36*
G01*
X161051002Y-72252000D02*
X159750998Y-72252000D01*
G75*
G02*
X159501000Y-72002002I0J249998D01*
G01*
X159501000Y-71176998D01*
G75*
G02*
X159750998Y-70927000I249998J0D01*
G01*
X161051002Y-70927000D01*
G75*
G02*
X161301000Y-71176998I0J-249998D01*
G01*
X161301000Y-72002002D01*
G75*
G02*
X161051002Y-72252000I-249998J0D01*
G01*
G37*
G04 #@! TD.AperFunction*
G04 #@! TA.AperFunction,SMDPad,CuDef*
G36*
G01*
X163464002Y-72252000D02*
X162163998Y-72252000D01*
G75*
G02*
X161914000Y-72002002I0J249998D01*
G01*
X161914000Y-71176998D01*
G75*
G02*
X162163998Y-70927000I249998J0D01*
G01*
X163464002Y-70927000D01*
G75*
G02*
X163714000Y-71176998I0J-249998D01*
G01*
X163714000Y-72002002D01*
G75*
G02*
X163464002Y-72252000I-249998J0D01*
G01*
G37*
G04 #@! TD.AperFunction*
G04 #@! TA.AperFunction,SMDPad,CuDef*
G36*
G01*
X163464002Y-75377000D02*
X162163998Y-75377000D01*
G75*
G02*
X161914000Y-75127002I0J249998D01*
G01*
X161914000Y-74301998D01*
G75*
G02*
X162163998Y-74052000I249998J0D01*
G01*
X163464002Y-74052000D01*
G75*
G02*
X163714000Y-74301998I0J-249998D01*
G01*
X163714000Y-75127002D01*
G75*
G02*
X163464002Y-75377000I-249998J0D01*
G01*
G37*
G04 #@! TD.AperFunction*
G04 #@! TA.AperFunction,SMDPad,CuDef*
G36*
G01*
X168265001Y-75352000D02*
X167014999Y-75352000D01*
G75*
G02*
X166765000Y-75102001I0J249999D01*
G01*
X166765000Y-74301999D01*
G75*
G02*
X167014999Y-74052000I249999J0D01*
G01*
X168265001Y-74052000D01*
G75*
G02*
X168515000Y-74301999I0J-249999D01*
G01*
X168515000Y-75102001D01*
G75*
G02*
X168265001Y-75352000I-249999J0D01*
G01*
G37*
G04 #@! TD.AperFunction*
G04 #@! TA.AperFunction,SMDPad,CuDef*
G36*
G01*
X168265001Y-72252000D02*
X167014999Y-72252000D01*
G75*
G02*
X166765000Y-72002001I0J249999D01*
G01*
X166765000Y-71201999D01*
G75*
G02*
X167014999Y-70952000I249999J0D01*
G01*
X168265001Y-70952000D01*
G75*
G02*
X168515000Y-71201999I0J-249999D01*
G01*
X168515000Y-72002001D01*
G75*
G02*
X168265001Y-72252000I-249999J0D01*
G01*
G37*
G04 #@! TD.AperFunction*
G04 #@! TA.AperFunction,SMDPad,CuDef*
G36*
G01*
X165852001Y-72252000D02*
X164601999Y-72252000D01*
G75*
G02*
X164352000Y-72002001I0J249999D01*
G01*
X164352000Y-71201999D01*
G75*
G02*
X164601999Y-70952000I249999J0D01*
G01*
X165852001Y-70952000D01*
G75*
G02*
X166102000Y-71201999I0J-249999D01*
G01*
X166102000Y-72002001D01*
G75*
G02*
X165852001Y-72252000I-249999J0D01*
G01*
G37*
G04 #@! TD.AperFunction*
G04 #@! TA.AperFunction,SMDPad,CuDef*
G36*
G01*
X165852001Y-75352000D02*
X164601999Y-75352000D01*
G75*
G02*
X164352000Y-75102001I0J249999D01*
G01*
X164352000Y-74301999D01*
G75*
G02*
X164601999Y-74052000I249999J0D01*
G01*
X165852001Y-74052000D01*
G75*
G02*
X166102000Y-74301999I0J-249999D01*
G01*
X166102000Y-75102001D01*
G75*
G02*
X165852001Y-75352000I-249999J0D01*
G01*
G37*
G04 #@! TD.AperFunction*
D10*
X146050000Y-102870000D03*
X139700000Y-105410000D03*
D11*
X136630000Y-80090000D03*
X136630000Y-85090000D03*
D12*
X143630000Y-76990000D03*
X143630000Y-88190000D03*
D13*
X151130000Y-80090000D03*
X151130000Y-82590000D03*
D14*
X151130000Y-85090000D03*
D15*
X158623000Y-74295000D03*
X167640000Y-71602000D03*
X174498000Y-78232000D03*
X166243000Y-69723000D03*
X181250000Y-79660000D03*
D16*
X160401000Y-74714500D02*
X159423500Y-74714500D01*
X159042500Y-74714500D02*
X158623000Y-74295000D01*
X160401000Y-74714500D02*
X159042500Y-74714500D01*
X162814000Y-71589500D02*
X160401000Y-71589500D01*
X151130000Y-82590000D02*
X151805000Y-82590000D01*
X162814000Y-74714500D02*
X162814000Y-74676000D01*
X165227000Y-72263000D02*
X165227000Y-71602000D01*
X162814000Y-74676000D02*
X165227000Y-72263000D01*
X166243000Y-69723000D02*
X165481000Y-69723000D01*
X165227000Y-69977000D02*
X165227000Y-71602000D01*
X165481000Y-69723000D02*
X165227000Y-69977000D01*
X151130000Y-85090000D02*
X161544000Y-85090000D01*
X167640000Y-78994000D02*
X167640000Y-74702000D01*
X161544000Y-85090000D02*
X167640000Y-78994000D01*
X151130000Y-85090000D02*
X151130000Y-84709000D01*
X151130000Y-85090000D02*
X151511000Y-85090000D01*
X151130000Y-85090000D02*
X152146000Y-85090000D01*
X159839000Y-80090000D02*
X165227000Y-74702000D01*
X151130000Y-80090000D02*
X159839000Y-80090000D01*
X151130000Y-80090000D02*
X151972000Y-80090000D01*
X146050000Y-102870000D02*
X166624000Y-102870000D01*
X166624000Y-102870000D02*
X181102000Y-88392000D01*
X181102000Y-79808000D02*
X181250000Y-79660000D01*
X181102000Y-88392000D02*
X181102000Y-79808000D01*
D17*
X222860000Y-114332418D02*
X222860001Y-114332428D01*
X222860000Y-119998408D01*
X125120000Y-121251484D01*
X125120000Y-119209117D01*
X125265000Y-119209117D01*
X125265000Y-119550883D01*
X125331675Y-119886081D01*
X125462463Y-120201831D01*
X125652337Y-120485998D01*
X125894002Y-120727663D01*
X126178169Y-120917537D01*
X126493919Y-121048325D01*
X126829117Y-121115000D01*
X127170883Y-121115000D01*
X127506081Y-121048325D01*
X127821831Y-120917537D01*
X128105998Y-120727663D01*
X128347663Y-120485998D01*
X128537537Y-120201831D01*
X128668325Y-119886081D01*
X128735000Y-119550883D01*
X128735000Y-119209117D01*
X128668325Y-118873919D01*
X128537537Y-118558169D01*
X128347663Y-118274002D01*
X128105998Y-118032337D01*
X127966485Y-117939117D01*
X219245000Y-117939117D01*
X219245000Y-118280883D01*
X219311675Y-118616081D01*
X219442463Y-118931831D01*
X219632337Y-119215998D01*
X219874002Y-119457663D01*
X220158169Y-119647537D01*
X220473919Y-119778325D01*
X220809117Y-119845000D01*
X221150883Y-119845000D01*
X221486081Y-119778325D01*
X221801831Y-119647537D01*
X222085998Y-119457663D01*
X222327663Y-119215998D01*
X222517537Y-118931831D01*
X222648325Y-118616081D01*
X222715000Y-118280883D01*
X222715000Y-117939117D01*
X222648325Y-117603919D01*
X222517537Y-117288169D01*
X222327663Y-117004002D01*
X222085998Y-116762337D01*
X221801831Y-116572463D01*
X221486081Y-116441675D01*
X221150883Y-116375000D01*
X220809117Y-116375000D01*
X220473919Y-116441675D01*
X220158169Y-116572463D01*
X219874002Y-116762337D01*
X219632337Y-117004002D01*
X219442463Y-117288169D01*
X219311675Y-117603919D01*
X219245000Y-117939117D01*
X127966485Y-117939117D01*
X127821831Y-117842463D01*
X127506081Y-117711675D01*
X127170883Y-117645000D01*
X126829117Y-117645000D01*
X126493919Y-117711675D01*
X126178169Y-117842463D01*
X125894002Y-118032337D01*
X125652337Y-118274002D01*
X125462463Y-118558169D01*
X125331675Y-118873919D01*
X125265000Y-119209117D01*
X125120000Y-119209117D01*
X125120000Y-107803740D01*
X136945000Y-107803740D01*
X136945000Y-108096260D01*
X137002068Y-108383158D01*
X137114010Y-108653411D01*
X137276525Y-108896632D01*
X137483368Y-109103475D01*
X137726589Y-109265990D01*
X137996842Y-109377932D01*
X138283740Y-109435000D01*
X138576260Y-109435000D01*
X138863158Y-109377932D01*
X139133411Y-109265990D01*
X139376632Y-109103475D01*
X139583475Y-108896632D01*
X139745990Y-108653411D01*
X139857932Y-108383158D01*
X139915000Y-108096260D01*
X139915000Y-107803740D01*
X139892471Y-107690475D01*
X140875000Y-107690475D01*
X140875000Y-108209525D01*
X140976261Y-108718601D01*
X141174893Y-109198141D01*
X141463262Y-109629715D01*
X141830285Y-109996738D01*
X142261859Y-110285107D01*
X142741399Y-110483739D01*
X143250475Y-110585000D01*
X143769525Y-110585000D01*
X144278601Y-110483739D01*
X144758141Y-110285107D01*
X145189715Y-109996738D01*
X145556738Y-109629715D01*
X145845107Y-109198141D01*
X146043739Y-108718601D01*
X146145000Y-108209525D01*
X146145000Y-107803740D01*
X147105000Y-107803740D01*
X147105000Y-108096260D01*
X147162068Y-108383158D01*
X147274010Y-108653411D01*
X147436525Y-108896632D01*
X147643368Y-109103475D01*
X147886589Y-109265990D01*
X148156842Y-109377932D01*
X148443740Y-109435000D01*
X148736260Y-109435000D01*
X149023158Y-109377932D01*
X149293411Y-109265990D01*
X149536632Y-109103475D01*
X149743475Y-108896632D01*
X149905990Y-108653411D01*
X150017932Y-108383158D01*
X150075000Y-108096260D01*
X150075000Y-107803740D01*
X150017932Y-107516842D01*
X149905990Y-107246589D01*
X149743475Y-107003368D01*
X149536632Y-106796525D01*
X149293411Y-106634010D01*
X149023158Y-106522068D01*
X148736260Y-106465000D01*
X148443740Y-106465000D01*
X148156842Y-106522068D01*
X147886589Y-106634010D01*
X147643368Y-106796525D01*
X147436525Y-107003368D01*
X147274010Y-107246589D01*
X147162068Y-107516842D01*
X147105000Y-107803740D01*
X146145000Y-107803740D01*
X146145000Y-107690475D01*
X146043739Y-107181399D01*
X145845107Y-106701859D01*
X145556738Y-106270285D01*
X145189715Y-105903262D01*
X144758141Y-105614893D01*
X144278601Y-105416261D01*
X143769525Y-105315000D01*
X143250475Y-105315000D01*
X142741399Y-105416261D01*
X142261859Y-105614893D01*
X141830285Y-105903262D01*
X141463262Y-106270285D01*
X141174893Y-106701859D01*
X140976261Y-107181399D01*
X140875000Y-107690475D01*
X139892471Y-107690475D01*
X139857932Y-107516842D01*
X139745990Y-107246589D01*
X139679650Y-107147304D01*
X139758639Y-107152409D01*
X140097439Y-107107489D01*
X140420966Y-106997336D01*
X140619274Y-106891338D01*
X140727107Y-106616712D01*
X139700000Y-105589605D01*
X139685858Y-105603748D01*
X139506253Y-105424143D01*
X139520395Y-105410000D01*
X139879605Y-105410000D01*
X140906712Y-106437107D01*
X141181338Y-106329274D01*
X141332216Y-106022616D01*
X141420369Y-105692415D01*
X141442409Y-105351361D01*
X141397489Y-105012561D01*
X141287336Y-104689034D01*
X141181338Y-104490726D01*
X140906712Y-104382893D01*
X139879605Y-105410000D01*
X139520395Y-105410000D01*
X138493288Y-104382893D01*
X138218662Y-104490726D01*
X138067784Y-104797384D01*
X137979631Y-105127585D01*
X137957591Y-105468639D01*
X138002511Y-105807439D01*
X138112664Y-106130966D01*
X138218662Y-106329274D01*
X138493286Y-106437106D01*
X138465392Y-106465000D01*
X138283740Y-106465000D01*
X137996842Y-106522068D01*
X137726589Y-106634010D01*
X137483368Y-106796525D01*
X137276525Y-107003368D01*
X137114010Y-107246589D01*
X137002068Y-107516842D01*
X136945000Y-107803740D01*
X125120000Y-107803740D01*
X125120000Y-104203288D01*
X138672893Y-104203288D01*
X139700000Y-105230395D01*
X140727107Y-104203288D01*
X140619274Y-103928662D01*
X140312616Y-103777784D01*
X139982415Y-103689631D01*
X139641361Y-103667591D01*
X139302561Y-103712511D01*
X138979034Y-103822664D01*
X138780726Y-103928662D01*
X138672893Y-104203288D01*
X125120000Y-104203288D01*
X125120000Y-102699117D01*
X144315000Y-102699117D01*
X144315000Y-103040883D01*
X144381675Y-103376081D01*
X144512463Y-103691831D01*
X144702337Y-103975998D01*
X144944002Y-104217663D01*
X145228169Y-104407537D01*
X145543919Y-104538325D01*
X145879117Y-104605000D01*
X146220883Y-104605000D01*
X146556081Y-104538325D01*
X146871831Y-104407537D01*
X147155998Y-104217663D01*
X147397663Y-103975998D01*
X147587537Y-103691831D01*
X147613148Y-103630000D01*
X166586678Y-103630000D01*
X166624000Y-103633676D01*
X166661322Y-103630000D01*
X166661333Y-103630000D01*
X166772986Y-103619003D01*
X166916247Y-103575546D01*
X167048276Y-103504974D01*
X167164001Y-103410001D01*
X167187804Y-103380997D01*
X181613004Y-88955798D01*
X181642001Y-88932001D01*
X181668332Y-88899917D01*
X181736974Y-88816277D01*
X181807546Y-88684247D01*
X181807546Y-88684246D01*
X181851003Y-88540986D01*
X181862000Y-88429333D01*
X181862000Y-88429323D01*
X181865676Y-88392000D01*
X181862000Y-88354677D01*
X181862000Y-80495858D01*
X181909774Y-80463937D01*
X182053937Y-80319774D01*
X182167205Y-80150256D01*
X182245226Y-79961898D01*
X182285000Y-79761939D01*
X182285000Y-79558061D01*
X182245226Y-79358102D01*
X182167205Y-79169744D01*
X182053937Y-79000226D01*
X181909774Y-78856063D01*
X181740256Y-78742795D01*
X181551898Y-78664774D01*
X181351939Y-78625000D01*
X181148061Y-78625000D01*
X180948102Y-78664774D01*
X180759744Y-78742795D01*
X180590226Y-78856063D01*
X180446063Y-79000226D01*
X180332795Y-79169744D01*
X180254774Y-79358102D01*
X180215000Y-79558061D01*
X180215000Y-79761939D01*
X180254774Y-79961898D01*
X180332795Y-80150256D01*
X180342001Y-80164034D01*
X180342000Y-88077198D01*
X166309199Y-102110000D01*
X147613148Y-102110000D01*
X147587537Y-102048169D01*
X147397663Y-101764002D01*
X147155998Y-101522337D01*
X146871831Y-101332463D01*
X146556081Y-101201675D01*
X146220883Y-101135000D01*
X145879117Y-101135000D01*
X145543919Y-101201675D01*
X145228169Y-101332463D01*
X144944002Y-101522337D01*
X144702337Y-101764002D01*
X144512463Y-102048169D01*
X144381675Y-102363919D01*
X144315000Y-102699117D01*
X125120000Y-102699117D01*
X125120000Y-87190000D01*
X141391928Y-87190000D01*
X141391928Y-89190000D01*
X141404188Y-89314482D01*
X141440498Y-89434180D01*
X141499463Y-89544494D01*
X141578815Y-89641185D01*
X141675506Y-89720537D01*
X141785820Y-89779502D01*
X141905518Y-89815812D01*
X142030000Y-89828072D01*
X145230000Y-89828072D01*
X145354482Y-89815812D01*
X145474180Y-89779502D01*
X145584494Y-89720537D01*
X145681185Y-89641185D01*
X145760537Y-89544494D01*
X145819502Y-89434180D01*
X145855812Y-89314482D01*
X145868072Y-89190000D01*
X145868072Y-87190000D01*
X145855812Y-87065518D01*
X145819502Y-86945820D01*
X145760537Y-86835506D01*
X145681185Y-86738815D01*
X145584494Y-86659463D01*
X145474180Y-86600498D01*
X145354482Y-86564188D01*
X145230000Y-86551928D01*
X142030000Y-86551928D01*
X141905518Y-86564188D01*
X141785820Y-86600498D01*
X141675506Y-86659463D01*
X141578815Y-86738815D01*
X141499463Y-86835506D01*
X141440498Y-86945820D01*
X141404188Y-87065518D01*
X141391928Y-87190000D01*
X125120000Y-87190000D01*
X125120000Y-84953589D01*
X135245000Y-84953589D01*
X135245000Y-85226411D01*
X135298225Y-85493989D01*
X135402629Y-85746043D01*
X135554201Y-85972886D01*
X135747114Y-86165799D01*
X135973957Y-86317371D01*
X136226011Y-86421775D01*
X136493589Y-86475000D01*
X136766411Y-86475000D01*
X137033989Y-86421775D01*
X137286043Y-86317371D01*
X137512886Y-86165799D01*
X137705799Y-85972886D01*
X137857371Y-85746043D01*
X137961775Y-85493989D01*
X138015000Y-85226411D01*
X138015000Y-84953589D01*
X137961775Y-84686011D01*
X137857371Y-84433957D01*
X137705799Y-84207114D01*
X137512886Y-84014201D01*
X137286043Y-83862629D01*
X137033989Y-83758225D01*
X136766411Y-83705000D01*
X136493589Y-83705000D01*
X136226011Y-83758225D01*
X135973957Y-83862629D01*
X135747114Y-84014201D01*
X135554201Y-84207114D01*
X135402629Y-84433957D01*
X135298225Y-84686011D01*
X135245000Y-84953589D01*
X125120000Y-84953589D01*
X125120000Y-82652595D01*
X149488282Y-82652595D01*
X149532039Y-82971675D01*
X149637205Y-83276088D01*
X149730186Y-83450044D01*
X149879223Y-83504024D01*
X149775506Y-83559463D01*
X149678815Y-83638815D01*
X149599463Y-83735506D01*
X149540498Y-83845820D01*
X149504188Y-83965518D01*
X149491928Y-84090000D01*
X149491928Y-86090000D01*
X149504188Y-86214482D01*
X149540498Y-86334180D01*
X149599463Y-86444494D01*
X149678815Y-86541185D01*
X149775506Y-86620537D01*
X149885820Y-86679502D01*
X150005518Y-86715812D01*
X150130000Y-86728072D01*
X152130000Y-86728072D01*
X152254482Y-86715812D01*
X152374180Y-86679502D01*
X152484494Y-86620537D01*
X152581185Y-86541185D01*
X152660537Y-86444494D01*
X152719502Y-86334180D01*
X152755812Y-86214482D01*
X152768072Y-86090000D01*
X152768072Y-85850000D01*
X161506678Y-85850000D01*
X161544000Y-85853676D01*
X161581322Y-85850000D01*
X161581333Y-85850000D01*
X161692986Y-85839003D01*
X161836247Y-85795546D01*
X161968276Y-85724974D01*
X162084001Y-85630001D01*
X162107804Y-85600997D01*
X168151004Y-79557798D01*
X168180001Y-79534001D01*
X168206332Y-79501917D01*
X168274974Y-79418277D01*
X168345546Y-79286247D01*
X168351081Y-79267999D01*
X168389003Y-79142986D01*
X168400000Y-79031333D01*
X168400000Y-79031323D01*
X168403676Y-78994000D01*
X168400000Y-78956677D01*
X168400000Y-76543288D01*
X176615000Y-76543288D01*
X176615000Y-76776712D01*
X176660539Y-77005652D01*
X176749866Y-77221308D01*
X176879550Y-77415394D01*
X177044606Y-77580450D01*
X177238692Y-77710134D01*
X177454348Y-77799461D01*
X177683288Y-77845000D01*
X177916712Y-77845000D01*
X178145652Y-77799461D01*
X178361308Y-77710134D01*
X178555394Y-77580450D01*
X178720450Y-77415394D01*
X178850134Y-77221308D01*
X178939461Y-77005652D01*
X178985000Y-76776712D01*
X178985000Y-76543288D01*
X178939461Y-76314348D01*
X178850134Y-76098692D01*
X178720450Y-75904606D01*
X178555394Y-75739550D01*
X178361308Y-75609866D01*
X178145652Y-75520539D01*
X177916712Y-75475000D01*
X177683288Y-75475000D01*
X177454348Y-75520539D01*
X177238692Y-75609866D01*
X177044606Y-75739550D01*
X176879550Y-75904606D01*
X176749866Y-76098692D01*
X176660539Y-76314348D01*
X176615000Y-76543288D01*
X168400000Y-76543288D01*
X168400000Y-75976776D01*
X168438255Y-75973008D01*
X168604851Y-75922472D01*
X168758387Y-75840405D01*
X168892962Y-75729962D01*
X169003405Y-75595387D01*
X169085472Y-75441851D01*
X169136008Y-75275255D01*
X169153072Y-75102001D01*
X169153072Y-74301999D01*
X169136008Y-74128745D01*
X169085472Y-73962149D01*
X169003405Y-73808613D01*
X168892962Y-73674038D01*
X168758387Y-73563595D01*
X168604851Y-73481528D01*
X168438255Y-73430992D01*
X168265001Y-73413928D01*
X167014999Y-73413928D01*
X166841745Y-73430992D01*
X166675149Y-73481528D01*
X166521613Y-73563595D01*
X166433500Y-73635908D01*
X166345387Y-73563595D01*
X166191851Y-73481528D01*
X166025255Y-73430992D01*
X165852001Y-73413928D01*
X165150874Y-73413928D01*
X165674730Y-72890072D01*
X165852001Y-72890072D01*
X166025255Y-72873008D01*
X166191851Y-72822472D01*
X166345387Y-72740405D01*
X166433500Y-72668092D01*
X166521613Y-72740405D01*
X166675149Y-72822472D01*
X166841745Y-72873008D01*
X167014999Y-72890072D01*
X168265001Y-72890072D01*
X168438255Y-72873008D01*
X168604851Y-72822472D01*
X168758387Y-72740405D01*
X168892962Y-72629962D01*
X169003405Y-72495387D01*
X169085472Y-72341851D01*
X169136008Y-72175255D01*
X169153072Y-72002001D01*
X169153072Y-71201999D01*
X169136008Y-71028745D01*
X169085472Y-70862149D01*
X169003405Y-70708613D01*
X168892962Y-70574038D01*
X168758387Y-70463595D01*
X168604851Y-70381528D01*
X168438255Y-70330992D01*
X168265001Y-70313928D01*
X167092938Y-70313928D01*
X167160205Y-70213256D01*
X167238226Y-70024898D01*
X167278000Y-69824939D01*
X167278000Y-69621061D01*
X167262531Y-69543288D01*
X176615000Y-69543288D01*
X176615000Y-69776712D01*
X176660539Y-70005652D01*
X176749866Y-70221308D01*
X176879550Y-70415394D01*
X177044606Y-70580450D01*
X177238692Y-70710134D01*
X177454348Y-70799461D01*
X177683288Y-70845000D01*
X177916712Y-70845000D01*
X178145652Y-70799461D01*
X178361308Y-70710134D01*
X178555394Y-70580450D01*
X178720450Y-70415394D01*
X178850134Y-70221308D01*
X178939461Y-70005652D01*
X178985000Y-69776712D01*
X178985000Y-69543288D01*
X178939461Y-69314348D01*
X178850134Y-69098692D01*
X178720450Y-68904606D01*
X178555394Y-68739550D01*
X178361308Y-68609866D01*
X178145652Y-68520539D01*
X177916712Y-68475000D01*
X177683288Y-68475000D01*
X177454348Y-68520539D01*
X177238692Y-68609866D01*
X177044606Y-68739550D01*
X176879550Y-68904606D01*
X176749866Y-69098692D01*
X176660539Y-69314348D01*
X176615000Y-69543288D01*
X167262531Y-69543288D01*
X167238226Y-69421102D01*
X167160205Y-69232744D01*
X167046937Y-69063226D01*
X166902774Y-68919063D01*
X166733256Y-68805795D01*
X166544898Y-68727774D01*
X166344939Y-68688000D01*
X166141061Y-68688000D01*
X165941102Y-68727774D01*
X165752744Y-68805795D01*
X165583226Y-68919063D01*
X165539289Y-68963000D01*
X165518322Y-68963000D01*
X165480999Y-68959324D01*
X165443676Y-68963000D01*
X165443667Y-68963000D01*
X165332014Y-68973997D01*
X165188753Y-69017454D01*
X165056724Y-69088026D01*
X164940999Y-69182999D01*
X164917196Y-69212003D01*
X164716003Y-69413196D01*
X164686999Y-69436999D01*
X164631871Y-69504174D01*
X164592026Y-69552724D01*
X164580646Y-69574015D01*
X164521454Y-69684754D01*
X164477997Y-69828015D01*
X164467000Y-69939668D01*
X164467000Y-69939678D01*
X164463324Y-69977000D01*
X164467000Y-70014323D01*
X164467000Y-70327224D01*
X164428745Y-70330992D01*
X164262149Y-70381528D01*
X164133855Y-70450103D01*
X164068494Y-70396463D01*
X163958180Y-70337498D01*
X163838482Y-70301188D01*
X163714000Y-70288928D01*
X163099750Y-70292000D01*
X162941000Y-70450750D01*
X162941000Y-71462500D01*
X162961000Y-71462500D01*
X162961000Y-71716500D01*
X162941000Y-71716500D01*
X162941000Y-72728250D01*
X163099750Y-72887000D01*
X163526066Y-72889132D01*
X163001271Y-73413928D01*
X162163998Y-73413928D01*
X161990744Y-73430992D01*
X161824148Y-73481528D01*
X161670613Y-73563595D01*
X161607500Y-73615391D01*
X161544387Y-73563595D01*
X161390852Y-73481528D01*
X161224256Y-73430992D01*
X161051002Y-73413928D01*
X159750998Y-73413928D01*
X159577744Y-73430992D01*
X159411148Y-73481528D01*
X159321277Y-73529566D01*
X159282774Y-73491063D01*
X159113256Y-73377795D01*
X158924898Y-73299774D01*
X158724939Y-73260000D01*
X158521061Y-73260000D01*
X158321102Y-73299774D01*
X158132744Y-73377795D01*
X157963226Y-73491063D01*
X157819063Y-73635226D01*
X157705795Y-73804744D01*
X157627774Y-73993102D01*
X157588000Y-74193061D01*
X157588000Y-74396939D01*
X157627774Y-74596898D01*
X157705795Y-74785256D01*
X157819063Y-74954774D01*
X157963226Y-75098937D01*
X158132744Y-75212205D01*
X158321102Y-75290226D01*
X158521061Y-75330000D01*
X158594495Y-75330000D01*
X158618224Y-75349474D01*
X158645752Y-75364188D01*
X158750253Y-75420046D01*
X158893514Y-75463503D01*
X158930695Y-75467165D01*
X159012595Y-75620387D01*
X159123038Y-75754962D01*
X159257613Y-75865405D01*
X159411148Y-75947472D01*
X159577744Y-75998008D01*
X159750998Y-76015072D01*
X161051002Y-76015072D01*
X161224256Y-75998008D01*
X161390852Y-75947472D01*
X161544387Y-75865405D01*
X161607500Y-75813609D01*
X161670613Y-75865405D01*
X161824148Y-75947472D01*
X161990744Y-75998008D01*
X162163998Y-76015072D01*
X162839126Y-76015072D01*
X159524199Y-79330000D01*
X152584909Y-79330000D01*
X152578918Y-79315537D01*
X152399987Y-79047748D01*
X152172252Y-78820013D01*
X151904463Y-78641082D01*
X151606912Y-78517832D01*
X151291033Y-78455000D01*
X150968967Y-78455000D01*
X150653088Y-78517832D01*
X150355537Y-78641082D01*
X150087748Y-78820013D01*
X149860013Y-79047748D01*
X149681082Y-79315537D01*
X149557832Y-79613088D01*
X149495000Y-79928967D01*
X149495000Y-80251033D01*
X149557832Y-80566912D01*
X149681082Y-80864463D01*
X149860013Y-81132252D01*
X150087748Y-81359987D01*
X150184935Y-81424925D01*
X150174192Y-81454587D01*
X151130000Y-82410395D01*
X152085808Y-81454587D01*
X152075065Y-81424925D01*
X152172252Y-81359987D01*
X152399987Y-81132252D01*
X152578918Y-80864463D01*
X152584909Y-80850000D01*
X159801678Y-80850000D01*
X159839000Y-80853676D01*
X159876322Y-80850000D01*
X159876333Y-80850000D01*
X159987986Y-80839003D01*
X160131247Y-80795546D01*
X160263276Y-80724974D01*
X160379001Y-80630001D01*
X160402804Y-80600997D01*
X165013730Y-75990072D01*
X165852001Y-75990072D01*
X166025255Y-75973008D01*
X166191851Y-75922472D01*
X166345387Y-75840405D01*
X166433500Y-75768092D01*
X166521613Y-75840405D01*
X166675149Y-75922472D01*
X166841745Y-75973008D01*
X166880001Y-75976776D01*
X166880000Y-78679198D01*
X161229199Y-84330000D01*
X152768072Y-84330000D01*
X152768072Y-84090000D01*
X152755812Y-83965518D01*
X152719502Y-83845820D01*
X152660537Y-83735506D01*
X152581185Y-83638815D01*
X152484494Y-83559463D01*
X152380777Y-83504024D01*
X152529814Y-83450044D01*
X152670704Y-83160429D01*
X152752384Y-82848892D01*
X152771718Y-82527405D01*
X152727961Y-82208325D01*
X152622795Y-81903912D01*
X152529814Y-81729956D01*
X152265413Y-81634192D01*
X151309605Y-82590000D01*
X151323748Y-82604143D01*
X151144143Y-82783748D01*
X151130000Y-82769605D01*
X151115858Y-82783748D01*
X150936253Y-82604143D01*
X150950395Y-82590000D01*
X149994587Y-81634192D01*
X149730186Y-81729956D01*
X149589296Y-82019571D01*
X149507616Y-82331108D01*
X149488282Y-82652595D01*
X125120000Y-82652595D01*
X125120000Y-79953589D01*
X135245000Y-79953589D01*
X135245000Y-80226411D01*
X135298225Y-80493989D01*
X135402629Y-80746043D01*
X135554201Y-80972886D01*
X135747114Y-81165799D01*
X135973957Y-81317371D01*
X136226011Y-81421775D01*
X136493589Y-81475000D01*
X136766411Y-81475000D01*
X137033989Y-81421775D01*
X137286043Y-81317371D01*
X137512886Y-81165799D01*
X137705799Y-80972886D01*
X137857371Y-80746043D01*
X137961775Y-80493989D01*
X138015000Y-80226411D01*
X138015000Y-79953589D01*
X137961775Y-79686011D01*
X137857371Y-79433957D01*
X137705799Y-79207114D01*
X137512886Y-79014201D01*
X137286043Y-78862629D01*
X137033989Y-78758225D01*
X136766411Y-78705000D01*
X136493589Y-78705000D01*
X136226011Y-78758225D01*
X135973957Y-78862629D01*
X135747114Y-79014201D01*
X135554201Y-79207114D01*
X135402629Y-79433957D01*
X135298225Y-79686011D01*
X135245000Y-79953589D01*
X125120000Y-79953589D01*
X125120000Y-75990000D01*
X141391928Y-75990000D01*
X141391928Y-77990000D01*
X141404188Y-78114482D01*
X141440498Y-78234180D01*
X141499463Y-78344494D01*
X141578815Y-78441185D01*
X141675506Y-78520537D01*
X141785820Y-78579502D01*
X141905518Y-78615812D01*
X142030000Y-78628072D01*
X145230000Y-78628072D01*
X145354482Y-78615812D01*
X145474180Y-78579502D01*
X145584494Y-78520537D01*
X145681185Y-78441185D01*
X145760537Y-78344494D01*
X145819502Y-78234180D01*
X145855812Y-78114482D01*
X145868072Y-77990000D01*
X145868072Y-75990000D01*
X145855812Y-75865518D01*
X145819502Y-75745820D01*
X145760537Y-75635506D01*
X145681185Y-75538815D01*
X145584494Y-75459463D01*
X145474180Y-75400498D01*
X145354482Y-75364188D01*
X145230000Y-75351928D01*
X142030000Y-75351928D01*
X141905518Y-75364188D01*
X141785820Y-75400498D01*
X141675506Y-75459463D01*
X141578815Y-75538815D01*
X141499463Y-75635506D01*
X141440498Y-75745820D01*
X141404188Y-75865518D01*
X141391928Y-75990000D01*
X125120000Y-75990000D01*
X125120000Y-72252000D01*
X158862928Y-72252000D01*
X158875188Y-72376482D01*
X158911498Y-72496180D01*
X158970463Y-72606494D01*
X159049815Y-72703185D01*
X159146506Y-72782537D01*
X159256820Y-72841502D01*
X159376518Y-72877812D01*
X159501000Y-72890072D01*
X160115250Y-72887000D01*
X160274000Y-72728250D01*
X160274000Y-71716500D01*
X160528000Y-71716500D01*
X160528000Y-72728250D01*
X160686750Y-72887000D01*
X161301000Y-72890072D01*
X161425482Y-72877812D01*
X161545180Y-72841502D01*
X161607500Y-72808191D01*
X161669820Y-72841502D01*
X161789518Y-72877812D01*
X161914000Y-72890072D01*
X162528250Y-72887000D01*
X162687000Y-72728250D01*
X162687000Y-71716500D01*
X160528000Y-71716500D01*
X160274000Y-71716500D01*
X159024750Y-71716500D01*
X158866000Y-71875250D01*
X158862928Y-72252000D01*
X125120000Y-72252000D01*
X125120000Y-70927000D01*
X158862928Y-70927000D01*
X158866000Y-71303750D01*
X159024750Y-71462500D01*
X160274000Y-71462500D01*
X160274000Y-70450750D01*
X160528000Y-70450750D01*
X160528000Y-71462500D01*
X162687000Y-71462500D01*
X162687000Y-70450750D01*
X162528250Y-70292000D01*
X161914000Y-70288928D01*
X161789518Y-70301188D01*
X161669820Y-70337498D01*
X161607500Y-70370809D01*
X161545180Y-70337498D01*
X161425482Y-70301188D01*
X161301000Y-70288928D01*
X160686750Y-70292000D01*
X160528000Y-70450750D01*
X160274000Y-70450750D01*
X160115250Y-70292000D01*
X159501000Y-70288928D01*
X159376518Y-70301188D01*
X159256820Y-70337498D01*
X159146506Y-70396463D01*
X159049815Y-70475815D01*
X158970463Y-70572506D01*
X158911498Y-70682820D01*
X158875188Y-70802518D01*
X158862928Y-70927000D01*
X125120000Y-70927000D01*
X125120000Y-68409117D01*
X125265000Y-68409117D01*
X125265000Y-68750883D01*
X125331675Y-69086081D01*
X125462463Y-69401831D01*
X125652337Y-69685998D01*
X125894002Y-69927663D01*
X126178169Y-70117537D01*
X126493919Y-70248325D01*
X126829117Y-70315000D01*
X127170883Y-70315000D01*
X127506081Y-70248325D01*
X127821831Y-70117537D01*
X128105998Y-69927663D01*
X128347663Y-69685998D01*
X128537537Y-69401831D01*
X128668325Y-69086081D01*
X128735000Y-68750883D01*
X128735000Y-68409117D01*
X219245000Y-68409117D01*
X219245000Y-68750883D01*
X219311675Y-69086081D01*
X219442463Y-69401831D01*
X219632337Y-69685998D01*
X219874002Y-69927663D01*
X220158169Y-70117537D01*
X220473919Y-70248325D01*
X220809117Y-70315000D01*
X221150883Y-70315000D01*
X221486081Y-70248325D01*
X221801831Y-70117537D01*
X222085998Y-69927663D01*
X222327663Y-69685998D01*
X222517537Y-69401831D01*
X222648325Y-69086081D01*
X222715000Y-68750883D01*
X222715000Y-68409117D01*
X222648325Y-68073919D01*
X222517537Y-67758169D01*
X222327663Y-67474002D01*
X222085998Y-67232337D01*
X221801831Y-67042463D01*
X221486081Y-66911675D01*
X221150883Y-66845000D01*
X220809117Y-66845000D01*
X220473919Y-66911675D01*
X220158169Y-67042463D01*
X219874002Y-67232337D01*
X219632337Y-67474002D01*
X219442463Y-67758169D01*
X219311675Y-68073919D01*
X219245000Y-68409117D01*
X128735000Y-68409117D01*
X128668325Y-68073919D01*
X128537537Y-67758169D01*
X128347663Y-67474002D01*
X128105998Y-67232337D01*
X127821831Y-67042463D01*
X127506081Y-66911675D01*
X127170883Y-66845000D01*
X126829117Y-66845000D01*
X126493919Y-66911675D01*
X126178169Y-67042463D01*
X125894002Y-67232337D01*
X125652337Y-67474002D01*
X125462463Y-67758169D01*
X125331675Y-68073919D01*
X125265000Y-68409117D01*
X125120000Y-68409117D01*
X125120000Y-66700000D01*
X222860001Y-66700000D01*
X222860000Y-114332418D01*
G04 #@! TA.AperFunction,Conductor*
D18*
G36*
X222860000Y-114332418D02*
G01*
X222860001Y-114332428D01*
X222860000Y-119998408D01*
X125120000Y-121251484D01*
X125120000Y-119209117D01*
X125265000Y-119209117D01*
X125265000Y-119550883D01*
X125331675Y-119886081D01*
X125462463Y-120201831D01*
X125652337Y-120485998D01*
X125894002Y-120727663D01*
X126178169Y-120917537D01*
X126493919Y-121048325D01*
X126829117Y-121115000D01*
X127170883Y-121115000D01*
X127506081Y-121048325D01*
X127821831Y-120917537D01*
X128105998Y-120727663D01*
X128347663Y-120485998D01*
X128537537Y-120201831D01*
X128668325Y-119886081D01*
X128735000Y-119550883D01*
X128735000Y-119209117D01*
X128668325Y-118873919D01*
X128537537Y-118558169D01*
X128347663Y-118274002D01*
X128105998Y-118032337D01*
X127966485Y-117939117D01*
X219245000Y-117939117D01*
X219245000Y-118280883D01*
X219311675Y-118616081D01*
X219442463Y-118931831D01*
X219632337Y-119215998D01*
X219874002Y-119457663D01*
X220158169Y-119647537D01*
X220473919Y-119778325D01*
X220809117Y-119845000D01*
X221150883Y-119845000D01*
X221486081Y-119778325D01*
X221801831Y-119647537D01*
X222085998Y-119457663D01*
X222327663Y-119215998D01*
X222517537Y-118931831D01*
X222648325Y-118616081D01*
X222715000Y-118280883D01*
X222715000Y-117939117D01*
X222648325Y-117603919D01*
X222517537Y-117288169D01*
X222327663Y-117004002D01*
X222085998Y-116762337D01*
X221801831Y-116572463D01*
X221486081Y-116441675D01*
X221150883Y-116375000D01*
X220809117Y-116375000D01*
X220473919Y-116441675D01*
X220158169Y-116572463D01*
X219874002Y-116762337D01*
X219632337Y-117004002D01*
X219442463Y-117288169D01*
X219311675Y-117603919D01*
X219245000Y-117939117D01*
X127966485Y-117939117D01*
X127821831Y-117842463D01*
X127506081Y-117711675D01*
X127170883Y-117645000D01*
X126829117Y-117645000D01*
X126493919Y-117711675D01*
X126178169Y-117842463D01*
X125894002Y-118032337D01*
X125652337Y-118274002D01*
X125462463Y-118558169D01*
X125331675Y-118873919D01*
X125265000Y-119209117D01*
X125120000Y-119209117D01*
X125120000Y-107803740D01*
X136945000Y-107803740D01*
X136945000Y-108096260D01*
X137002068Y-108383158D01*
X137114010Y-108653411D01*
X137276525Y-108896632D01*
X137483368Y-109103475D01*
X137726589Y-109265990D01*
X137996842Y-109377932D01*
X138283740Y-109435000D01*
X138576260Y-109435000D01*
X138863158Y-109377932D01*
X139133411Y-109265990D01*
X139376632Y-109103475D01*
X139583475Y-108896632D01*
X139745990Y-108653411D01*
X139857932Y-108383158D01*
X139915000Y-108096260D01*
X139915000Y-107803740D01*
X139892471Y-107690475D01*
X140875000Y-107690475D01*
X140875000Y-108209525D01*
X140976261Y-108718601D01*
X141174893Y-109198141D01*
X141463262Y-109629715D01*
X141830285Y-109996738D01*
X142261859Y-110285107D01*
X142741399Y-110483739D01*
X143250475Y-110585000D01*
X143769525Y-110585000D01*
X144278601Y-110483739D01*
X144758141Y-110285107D01*
X145189715Y-109996738D01*
X145556738Y-109629715D01*
X145845107Y-109198141D01*
X146043739Y-108718601D01*
X146145000Y-108209525D01*
X146145000Y-107803740D01*
X147105000Y-107803740D01*
X147105000Y-108096260D01*
X147162068Y-108383158D01*
X147274010Y-108653411D01*
X147436525Y-108896632D01*
X147643368Y-109103475D01*
X147886589Y-109265990D01*
X148156842Y-109377932D01*
X148443740Y-109435000D01*
X148736260Y-109435000D01*
X149023158Y-109377932D01*
X149293411Y-109265990D01*
X149536632Y-109103475D01*
X149743475Y-108896632D01*
X149905990Y-108653411D01*
X150017932Y-108383158D01*
X150075000Y-108096260D01*
X150075000Y-107803740D01*
X150017932Y-107516842D01*
X149905990Y-107246589D01*
X149743475Y-107003368D01*
X149536632Y-106796525D01*
X149293411Y-106634010D01*
X149023158Y-106522068D01*
X148736260Y-106465000D01*
X148443740Y-106465000D01*
X148156842Y-106522068D01*
X147886589Y-106634010D01*
X147643368Y-106796525D01*
X147436525Y-107003368D01*
X147274010Y-107246589D01*
X147162068Y-107516842D01*
X147105000Y-107803740D01*
X146145000Y-107803740D01*
X146145000Y-107690475D01*
X146043739Y-107181399D01*
X145845107Y-106701859D01*
X145556738Y-106270285D01*
X145189715Y-105903262D01*
X144758141Y-105614893D01*
X144278601Y-105416261D01*
X143769525Y-105315000D01*
X143250475Y-105315000D01*
X142741399Y-105416261D01*
X142261859Y-105614893D01*
X141830285Y-105903262D01*
X141463262Y-106270285D01*
X141174893Y-106701859D01*
X140976261Y-107181399D01*
X140875000Y-107690475D01*
X139892471Y-107690475D01*
X139857932Y-107516842D01*
X139745990Y-107246589D01*
X139679650Y-107147304D01*
X139758639Y-107152409D01*
X140097439Y-107107489D01*
X140420966Y-106997336D01*
X140619274Y-106891338D01*
X140727107Y-106616712D01*
X139700000Y-105589605D01*
X139685858Y-105603748D01*
X139506253Y-105424143D01*
X139520395Y-105410000D01*
X139879605Y-105410000D01*
X140906712Y-106437107D01*
X141181338Y-106329274D01*
X141332216Y-106022616D01*
X141420369Y-105692415D01*
X141442409Y-105351361D01*
X141397489Y-105012561D01*
X141287336Y-104689034D01*
X141181338Y-104490726D01*
X140906712Y-104382893D01*
X139879605Y-105410000D01*
X139520395Y-105410000D01*
X138493288Y-104382893D01*
X138218662Y-104490726D01*
X138067784Y-104797384D01*
X137979631Y-105127585D01*
X137957591Y-105468639D01*
X138002511Y-105807439D01*
X138112664Y-106130966D01*
X138218662Y-106329274D01*
X138493286Y-106437106D01*
X138465392Y-106465000D01*
X138283740Y-106465000D01*
X137996842Y-106522068D01*
X137726589Y-106634010D01*
X137483368Y-106796525D01*
X137276525Y-107003368D01*
X137114010Y-107246589D01*
X137002068Y-107516842D01*
X136945000Y-107803740D01*
X125120000Y-107803740D01*
X125120000Y-104203288D01*
X138672893Y-104203288D01*
X139700000Y-105230395D01*
X140727107Y-104203288D01*
X140619274Y-103928662D01*
X140312616Y-103777784D01*
X139982415Y-103689631D01*
X139641361Y-103667591D01*
X139302561Y-103712511D01*
X138979034Y-103822664D01*
X138780726Y-103928662D01*
X138672893Y-104203288D01*
X125120000Y-104203288D01*
X125120000Y-102699117D01*
X144315000Y-102699117D01*
X144315000Y-103040883D01*
X144381675Y-103376081D01*
X144512463Y-103691831D01*
X144702337Y-103975998D01*
X144944002Y-104217663D01*
X145228169Y-104407537D01*
X145543919Y-104538325D01*
X145879117Y-104605000D01*
X146220883Y-104605000D01*
X146556081Y-104538325D01*
X146871831Y-104407537D01*
X147155998Y-104217663D01*
X147397663Y-103975998D01*
X147587537Y-103691831D01*
X147613148Y-103630000D01*
X166586678Y-103630000D01*
X166624000Y-103633676D01*
X166661322Y-103630000D01*
X166661333Y-103630000D01*
X166772986Y-103619003D01*
X166916247Y-103575546D01*
X167048276Y-103504974D01*
X167164001Y-103410001D01*
X167187804Y-103380997D01*
X181613004Y-88955798D01*
X181642001Y-88932001D01*
X181668332Y-88899917D01*
X181736974Y-88816277D01*
X181807546Y-88684247D01*
X181807546Y-88684246D01*
X181851003Y-88540986D01*
X181862000Y-88429333D01*
X181862000Y-88429323D01*
X181865676Y-88392000D01*
X181862000Y-88354677D01*
X181862000Y-80495858D01*
X181909774Y-80463937D01*
X182053937Y-80319774D01*
X182167205Y-80150256D01*
X182245226Y-79961898D01*
X182285000Y-79761939D01*
X182285000Y-79558061D01*
X182245226Y-79358102D01*
X182167205Y-79169744D01*
X182053937Y-79000226D01*
X181909774Y-78856063D01*
X181740256Y-78742795D01*
X181551898Y-78664774D01*
X181351939Y-78625000D01*
X181148061Y-78625000D01*
X180948102Y-78664774D01*
X180759744Y-78742795D01*
X180590226Y-78856063D01*
X180446063Y-79000226D01*
X180332795Y-79169744D01*
X180254774Y-79358102D01*
X180215000Y-79558061D01*
X180215000Y-79761939D01*
X180254774Y-79961898D01*
X180332795Y-80150256D01*
X180342001Y-80164034D01*
X180342000Y-88077198D01*
X166309199Y-102110000D01*
X147613148Y-102110000D01*
X147587537Y-102048169D01*
X147397663Y-101764002D01*
X147155998Y-101522337D01*
X146871831Y-101332463D01*
X146556081Y-101201675D01*
X146220883Y-101135000D01*
X145879117Y-101135000D01*
X145543919Y-101201675D01*
X145228169Y-101332463D01*
X144944002Y-101522337D01*
X144702337Y-101764002D01*
X144512463Y-102048169D01*
X144381675Y-102363919D01*
X144315000Y-102699117D01*
X125120000Y-102699117D01*
X125120000Y-87190000D01*
X141391928Y-87190000D01*
X141391928Y-89190000D01*
X141404188Y-89314482D01*
X141440498Y-89434180D01*
X141499463Y-89544494D01*
X141578815Y-89641185D01*
X141675506Y-89720537D01*
X141785820Y-89779502D01*
X141905518Y-89815812D01*
X142030000Y-89828072D01*
X145230000Y-89828072D01*
X145354482Y-89815812D01*
X145474180Y-89779502D01*
X145584494Y-89720537D01*
X145681185Y-89641185D01*
X145760537Y-89544494D01*
X145819502Y-89434180D01*
X145855812Y-89314482D01*
X145868072Y-89190000D01*
X145868072Y-87190000D01*
X145855812Y-87065518D01*
X145819502Y-86945820D01*
X145760537Y-86835506D01*
X145681185Y-86738815D01*
X145584494Y-86659463D01*
X145474180Y-86600498D01*
X145354482Y-86564188D01*
X145230000Y-86551928D01*
X142030000Y-86551928D01*
X141905518Y-86564188D01*
X141785820Y-86600498D01*
X141675506Y-86659463D01*
X141578815Y-86738815D01*
X141499463Y-86835506D01*
X141440498Y-86945820D01*
X141404188Y-87065518D01*
X141391928Y-87190000D01*
X125120000Y-87190000D01*
X125120000Y-84953589D01*
X135245000Y-84953589D01*
X135245000Y-85226411D01*
X135298225Y-85493989D01*
X135402629Y-85746043D01*
X135554201Y-85972886D01*
X135747114Y-86165799D01*
X135973957Y-86317371D01*
X136226011Y-86421775D01*
X136493589Y-86475000D01*
X136766411Y-86475000D01*
X137033989Y-86421775D01*
X137286043Y-86317371D01*
X137512886Y-86165799D01*
X137705799Y-85972886D01*
X137857371Y-85746043D01*
X137961775Y-85493989D01*
X138015000Y-85226411D01*
X138015000Y-84953589D01*
X137961775Y-84686011D01*
X137857371Y-84433957D01*
X137705799Y-84207114D01*
X137512886Y-84014201D01*
X137286043Y-83862629D01*
X137033989Y-83758225D01*
X136766411Y-83705000D01*
X136493589Y-83705000D01*
X136226011Y-83758225D01*
X135973957Y-83862629D01*
X135747114Y-84014201D01*
X135554201Y-84207114D01*
X135402629Y-84433957D01*
X135298225Y-84686011D01*
X135245000Y-84953589D01*
X125120000Y-84953589D01*
X125120000Y-82652595D01*
X149488282Y-82652595D01*
X149532039Y-82971675D01*
X149637205Y-83276088D01*
X149730186Y-83450044D01*
X149879223Y-83504024D01*
X149775506Y-83559463D01*
X149678815Y-83638815D01*
X149599463Y-83735506D01*
X149540498Y-83845820D01*
X149504188Y-83965518D01*
X149491928Y-84090000D01*
X149491928Y-86090000D01*
X149504188Y-86214482D01*
X149540498Y-86334180D01*
X149599463Y-86444494D01*
X149678815Y-86541185D01*
X149775506Y-86620537D01*
X149885820Y-86679502D01*
X150005518Y-86715812D01*
X150130000Y-86728072D01*
X152130000Y-86728072D01*
X152254482Y-86715812D01*
X152374180Y-86679502D01*
X152484494Y-86620537D01*
X152581185Y-86541185D01*
X152660537Y-86444494D01*
X152719502Y-86334180D01*
X152755812Y-86214482D01*
X152768072Y-86090000D01*
X152768072Y-85850000D01*
X161506678Y-85850000D01*
X161544000Y-85853676D01*
X161581322Y-85850000D01*
X161581333Y-85850000D01*
X161692986Y-85839003D01*
X161836247Y-85795546D01*
X161968276Y-85724974D01*
X162084001Y-85630001D01*
X162107804Y-85600997D01*
X168151004Y-79557798D01*
X168180001Y-79534001D01*
X168206332Y-79501917D01*
X168274974Y-79418277D01*
X168345546Y-79286247D01*
X168351081Y-79267999D01*
X168389003Y-79142986D01*
X168400000Y-79031333D01*
X168400000Y-79031323D01*
X168403676Y-78994000D01*
X168400000Y-78956677D01*
X168400000Y-76543288D01*
X176615000Y-76543288D01*
X176615000Y-76776712D01*
X176660539Y-77005652D01*
X176749866Y-77221308D01*
X176879550Y-77415394D01*
X177044606Y-77580450D01*
X177238692Y-77710134D01*
X177454348Y-77799461D01*
X177683288Y-77845000D01*
X177916712Y-77845000D01*
X178145652Y-77799461D01*
X178361308Y-77710134D01*
X178555394Y-77580450D01*
X178720450Y-77415394D01*
X178850134Y-77221308D01*
X178939461Y-77005652D01*
X178985000Y-76776712D01*
X178985000Y-76543288D01*
X178939461Y-76314348D01*
X178850134Y-76098692D01*
X178720450Y-75904606D01*
X178555394Y-75739550D01*
X178361308Y-75609866D01*
X178145652Y-75520539D01*
X177916712Y-75475000D01*
X177683288Y-75475000D01*
X177454348Y-75520539D01*
X177238692Y-75609866D01*
X177044606Y-75739550D01*
X176879550Y-75904606D01*
X176749866Y-76098692D01*
X176660539Y-76314348D01*
X176615000Y-76543288D01*
X168400000Y-76543288D01*
X168400000Y-75976776D01*
X168438255Y-75973008D01*
X168604851Y-75922472D01*
X168758387Y-75840405D01*
X168892962Y-75729962D01*
X169003405Y-75595387D01*
X169085472Y-75441851D01*
X169136008Y-75275255D01*
X169153072Y-75102001D01*
X169153072Y-74301999D01*
X169136008Y-74128745D01*
X169085472Y-73962149D01*
X169003405Y-73808613D01*
X168892962Y-73674038D01*
X168758387Y-73563595D01*
X168604851Y-73481528D01*
X168438255Y-73430992D01*
X168265001Y-73413928D01*
X167014999Y-73413928D01*
X166841745Y-73430992D01*
X166675149Y-73481528D01*
X166521613Y-73563595D01*
X166433500Y-73635908D01*
X166345387Y-73563595D01*
X166191851Y-73481528D01*
X166025255Y-73430992D01*
X165852001Y-73413928D01*
X165150874Y-73413928D01*
X165674730Y-72890072D01*
X165852001Y-72890072D01*
X166025255Y-72873008D01*
X166191851Y-72822472D01*
X166345387Y-72740405D01*
X166433500Y-72668092D01*
X166521613Y-72740405D01*
X166675149Y-72822472D01*
X166841745Y-72873008D01*
X167014999Y-72890072D01*
X168265001Y-72890072D01*
X168438255Y-72873008D01*
X168604851Y-72822472D01*
X168758387Y-72740405D01*
X168892962Y-72629962D01*
X169003405Y-72495387D01*
X169085472Y-72341851D01*
X169136008Y-72175255D01*
X169153072Y-72002001D01*
X169153072Y-71201999D01*
X169136008Y-71028745D01*
X169085472Y-70862149D01*
X169003405Y-70708613D01*
X168892962Y-70574038D01*
X168758387Y-70463595D01*
X168604851Y-70381528D01*
X168438255Y-70330992D01*
X168265001Y-70313928D01*
X167092938Y-70313928D01*
X167160205Y-70213256D01*
X167238226Y-70024898D01*
X167278000Y-69824939D01*
X167278000Y-69621061D01*
X167262531Y-69543288D01*
X176615000Y-69543288D01*
X176615000Y-69776712D01*
X176660539Y-70005652D01*
X176749866Y-70221308D01*
X176879550Y-70415394D01*
X177044606Y-70580450D01*
X177238692Y-70710134D01*
X177454348Y-70799461D01*
X177683288Y-70845000D01*
X177916712Y-70845000D01*
X178145652Y-70799461D01*
X178361308Y-70710134D01*
X178555394Y-70580450D01*
X178720450Y-70415394D01*
X178850134Y-70221308D01*
X178939461Y-70005652D01*
X178985000Y-69776712D01*
X178985000Y-69543288D01*
X178939461Y-69314348D01*
X178850134Y-69098692D01*
X178720450Y-68904606D01*
X178555394Y-68739550D01*
X178361308Y-68609866D01*
X178145652Y-68520539D01*
X177916712Y-68475000D01*
X177683288Y-68475000D01*
X177454348Y-68520539D01*
X177238692Y-68609866D01*
X177044606Y-68739550D01*
X176879550Y-68904606D01*
X176749866Y-69098692D01*
X176660539Y-69314348D01*
X176615000Y-69543288D01*
X167262531Y-69543288D01*
X167238226Y-69421102D01*
X167160205Y-69232744D01*
X167046937Y-69063226D01*
X166902774Y-68919063D01*
X166733256Y-68805795D01*
X166544898Y-68727774D01*
X166344939Y-68688000D01*
X166141061Y-68688000D01*
X165941102Y-68727774D01*
X165752744Y-68805795D01*
X165583226Y-68919063D01*
X165539289Y-68963000D01*
X165518322Y-68963000D01*
X165480999Y-68959324D01*
X165443676Y-68963000D01*
X165443667Y-68963000D01*
X165332014Y-68973997D01*
X165188753Y-69017454D01*
X165056724Y-69088026D01*
X164940999Y-69182999D01*
X164917196Y-69212003D01*
X164716003Y-69413196D01*
X164686999Y-69436999D01*
X164631871Y-69504174D01*
X164592026Y-69552724D01*
X164580646Y-69574015D01*
X164521454Y-69684754D01*
X164477997Y-69828015D01*
X164467000Y-69939668D01*
X164467000Y-69939678D01*
X164463324Y-69977000D01*
X164467000Y-70014323D01*
X164467000Y-70327224D01*
X164428745Y-70330992D01*
X164262149Y-70381528D01*
X164133855Y-70450103D01*
X164068494Y-70396463D01*
X163958180Y-70337498D01*
X163838482Y-70301188D01*
X163714000Y-70288928D01*
X163099750Y-70292000D01*
X162941000Y-70450750D01*
X162941000Y-71462500D01*
X162961000Y-71462500D01*
X162961000Y-71716500D01*
X162941000Y-71716500D01*
X162941000Y-72728250D01*
X163099750Y-72887000D01*
X163526066Y-72889132D01*
X163001271Y-73413928D01*
X162163998Y-73413928D01*
X161990744Y-73430992D01*
X161824148Y-73481528D01*
X161670613Y-73563595D01*
X161607500Y-73615391D01*
X161544387Y-73563595D01*
X161390852Y-73481528D01*
X161224256Y-73430992D01*
X161051002Y-73413928D01*
X159750998Y-73413928D01*
X159577744Y-73430992D01*
X159411148Y-73481528D01*
X159321277Y-73529566D01*
X159282774Y-73491063D01*
X159113256Y-73377795D01*
X158924898Y-73299774D01*
X158724939Y-73260000D01*
X158521061Y-73260000D01*
X158321102Y-73299774D01*
X158132744Y-73377795D01*
X157963226Y-73491063D01*
X157819063Y-73635226D01*
X157705795Y-73804744D01*
X157627774Y-73993102D01*
X157588000Y-74193061D01*
X157588000Y-74396939D01*
X157627774Y-74596898D01*
X157705795Y-74785256D01*
X157819063Y-74954774D01*
X157963226Y-75098937D01*
X158132744Y-75212205D01*
X158321102Y-75290226D01*
X158521061Y-75330000D01*
X158594495Y-75330000D01*
X158618224Y-75349474D01*
X158645752Y-75364188D01*
X158750253Y-75420046D01*
X158893514Y-75463503D01*
X158930695Y-75467165D01*
X159012595Y-75620387D01*
X159123038Y-75754962D01*
X159257613Y-75865405D01*
X159411148Y-75947472D01*
X159577744Y-75998008D01*
X159750998Y-76015072D01*
X161051002Y-76015072D01*
X161224256Y-75998008D01*
X161390852Y-75947472D01*
X161544387Y-75865405D01*
X161607500Y-75813609D01*
X161670613Y-75865405D01*
X161824148Y-75947472D01*
X161990744Y-75998008D01*
X162163998Y-76015072D01*
X162839126Y-76015072D01*
X159524199Y-79330000D01*
X152584909Y-79330000D01*
X152578918Y-79315537D01*
X152399987Y-79047748D01*
X152172252Y-78820013D01*
X151904463Y-78641082D01*
X151606912Y-78517832D01*
X151291033Y-78455000D01*
X150968967Y-78455000D01*
X150653088Y-78517832D01*
X150355537Y-78641082D01*
X150087748Y-78820013D01*
X149860013Y-79047748D01*
X149681082Y-79315537D01*
X149557832Y-79613088D01*
X149495000Y-79928967D01*
X149495000Y-80251033D01*
X149557832Y-80566912D01*
X149681082Y-80864463D01*
X149860013Y-81132252D01*
X150087748Y-81359987D01*
X150184935Y-81424925D01*
X150174192Y-81454587D01*
X151130000Y-82410395D01*
X152085808Y-81454587D01*
X152075065Y-81424925D01*
X152172252Y-81359987D01*
X152399987Y-81132252D01*
X152578918Y-80864463D01*
X152584909Y-80850000D01*
X159801678Y-80850000D01*
X159839000Y-80853676D01*
X159876322Y-80850000D01*
X159876333Y-80850000D01*
X159987986Y-80839003D01*
X160131247Y-80795546D01*
X160263276Y-80724974D01*
X160379001Y-80630001D01*
X160402804Y-80600997D01*
X165013730Y-75990072D01*
X165852001Y-75990072D01*
X166025255Y-75973008D01*
X166191851Y-75922472D01*
X166345387Y-75840405D01*
X166433500Y-75768092D01*
X166521613Y-75840405D01*
X166675149Y-75922472D01*
X166841745Y-75973008D01*
X166880001Y-75976776D01*
X166880000Y-78679198D01*
X161229199Y-84330000D01*
X152768072Y-84330000D01*
X152768072Y-84090000D01*
X152755812Y-83965518D01*
X152719502Y-83845820D01*
X152660537Y-83735506D01*
X152581185Y-83638815D01*
X152484494Y-83559463D01*
X152380777Y-83504024D01*
X152529814Y-83450044D01*
X152670704Y-83160429D01*
X152752384Y-82848892D01*
X152771718Y-82527405D01*
X152727961Y-82208325D01*
X152622795Y-81903912D01*
X152529814Y-81729956D01*
X152265413Y-81634192D01*
X151309605Y-82590000D01*
X151323748Y-82604143D01*
X151144143Y-82783748D01*
X151130000Y-82769605D01*
X151115858Y-82783748D01*
X150936253Y-82604143D01*
X150950395Y-82590000D01*
X149994587Y-81634192D01*
X149730186Y-81729956D01*
X149589296Y-82019571D01*
X149507616Y-82331108D01*
X149488282Y-82652595D01*
X125120000Y-82652595D01*
X125120000Y-79953589D01*
X135245000Y-79953589D01*
X135245000Y-80226411D01*
X135298225Y-80493989D01*
X135402629Y-80746043D01*
X135554201Y-80972886D01*
X135747114Y-81165799D01*
X135973957Y-81317371D01*
X136226011Y-81421775D01*
X136493589Y-81475000D01*
X136766411Y-81475000D01*
X137033989Y-81421775D01*
X137286043Y-81317371D01*
X137512886Y-81165799D01*
X137705799Y-80972886D01*
X137857371Y-80746043D01*
X137961775Y-80493989D01*
X138015000Y-80226411D01*
X138015000Y-79953589D01*
X137961775Y-79686011D01*
X137857371Y-79433957D01*
X137705799Y-79207114D01*
X137512886Y-79014201D01*
X137286043Y-78862629D01*
X137033989Y-78758225D01*
X136766411Y-78705000D01*
X136493589Y-78705000D01*
X136226011Y-78758225D01*
X135973957Y-78862629D01*
X135747114Y-79014201D01*
X135554201Y-79207114D01*
X135402629Y-79433957D01*
X135298225Y-79686011D01*
X135245000Y-79953589D01*
X125120000Y-79953589D01*
X125120000Y-75990000D01*
X141391928Y-75990000D01*
X141391928Y-77990000D01*
X141404188Y-78114482D01*
X141440498Y-78234180D01*
X141499463Y-78344494D01*
X141578815Y-78441185D01*
X141675506Y-78520537D01*
X141785820Y-78579502D01*
X141905518Y-78615812D01*
X142030000Y-78628072D01*
X145230000Y-78628072D01*
X145354482Y-78615812D01*
X145474180Y-78579502D01*
X145584494Y-78520537D01*
X145681185Y-78441185D01*
X145760537Y-78344494D01*
X145819502Y-78234180D01*
X145855812Y-78114482D01*
X145868072Y-77990000D01*
X145868072Y-75990000D01*
X145855812Y-75865518D01*
X145819502Y-75745820D01*
X145760537Y-75635506D01*
X145681185Y-75538815D01*
X145584494Y-75459463D01*
X145474180Y-75400498D01*
X145354482Y-75364188D01*
X145230000Y-75351928D01*
X142030000Y-75351928D01*
X141905518Y-75364188D01*
X141785820Y-75400498D01*
X141675506Y-75459463D01*
X141578815Y-75538815D01*
X141499463Y-75635506D01*
X141440498Y-75745820D01*
X141404188Y-75865518D01*
X141391928Y-75990000D01*
X125120000Y-75990000D01*
X125120000Y-72252000D01*
X158862928Y-72252000D01*
X158875188Y-72376482D01*
X158911498Y-72496180D01*
X158970463Y-72606494D01*
X159049815Y-72703185D01*
X159146506Y-72782537D01*
X159256820Y-72841502D01*
X159376518Y-72877812D01*
X159501000Y-72890072D01*
X160115250Y-72887000D01*
X160274000Y-72728250D01*
X160274000Y-71716500D01*
X160528000Y-71716500D01*
X160528000Y-72728250D01*
X160686750Y-72887000D01*
X161301000Y-72890072D01*
X161425482Y-72877812D01*
X161545180Y-72841502D01*
X161607500Y-72808191D01*
X161669820Y-72841502D01*
X161789518Y-72877812D01*
X161914000Y-72890072D01*
X162528250Y-72887000D01*
X162687000Y-72728250D01*
X162687000Y-71716500D01*
X160528000Y-71716500D01*
X160274000Y-71716500D01*
X159024750Y-71716500D01*
X158866000Y-71875250D01*
X158862928Y-72252000D01*
X125120000Y-72252000D01*
X125120000Y-70927000D01*
X158862928Y-70927000D01*
X158866000Y-71303750D01*
X159024750Y-71462500D01*
X160274000Y-71462500D01*
X160274000Y-70450750D01*
X160528000Y-70450750D01*
X160528000Y-71462500D01*
X162687000Y-71462500D01*
X162687000Y-70450750D01*
X162528250Y-70292000D01*
X161914000Y-70288928D01*
X161789518Y-70301188D01*
X161669820Y-70337498D01*
X161607500Y-70370809D01*
X161545180Y-70337498D01*
X161425482Y-70301188D01*
X161301000Y-70288928D01*
X160686750Y-70292000D01*
X160528000Y-70450750D01*
X160274000Y-70450750D01*
X160115250Y-70292000D01*
X159501000Y-70288928D01*
X159376518Y-70301188D01*
X159256820Y-70337498D01*
X159146506Y-70396463D01*
X159049815Y-70475815D01*
X158970463Y-70572506D01*
X158911498Y-70682820D01*
X158875188Y-70802518D01*
X158862928Y-70927000D01*
X125120000Y-70927000D01*
X125120000Y-68409117D01*
X125265000Y-68409117D01*
X125265000Y-68750883D01*
X125331675Y-69086081D01*
X125462463Y-69401831D01*
X125652337Y-69685998D01*
X125894002Y-69927663D01*
X126178169Y-70117537D01*
X126493919Y-70248325D01*
X126829117Y-70315000D01*
X127170883Y-70315000D01*
X127506081Y-70248325D01*
X127821831Y-70117537D01*
X128105998Y-69927663D01*
X128347663Y-69685998D01*
X128537537Y-69401831D01*
X128668325Y-69086081D01*
X128735000Y-68750883D01*
X128735000Y-68409117D01*
X219245000Y-68409117D01*
X219245000Y-68750883D01*
X219311675Y-69086081D01*
X219442463Y-69401831D01*
X219632337Y-69685998D01*
X219874002Y-69927663D01*
X220158169Y-70117537D01*
X220473919Y-70248325D01*
X220809117Y-70315000D01*
X221150883Y-70315000D01*
X221486081Y-70248325D01*
X221801831Y-70117537D01*
X222085998Y-69927663D01*
X222327663Y-69685998D01*
X222517537Y-69401831D01*
X222648325Y-69086081D01*
X222715000Y-68750883D01*
X222715000Y-68409117D01*
X222648325Y-68073919D01*
X222517537Y-67758169D01*
X222327663Y-67474002D01*
X222085998Y-67232337D01*
X221801831Y-67042463D01*
X221486081Y-66911675D01*
X221150883Y-66845000D01*
X220809117Y-66845000D01*
X220473919Y-66911675D01*
X220158169Y-67042463D01*
X219874002Y-67232337D01*
X219632337Y-67474002D01*
X219442463Y-67758169D01*
X219311675Y-68073919D01*
X219245000Y-68409117D01*
X128735000Y-68409117D01*
X128668325Y-68073919D01*
X128537537Y-67758169D01*
X128347663Y-67474002D01*
X128105998Y-67232337D01*
X127821831Y-67042463D01*
X127506081Y-66911675D01*
X127170883Y-66845000D01*
X126829117Y-66845000D01*
X126493919Y-66911675D01*
X126178169Y-67042463D01*
X125894002Y-67232337D01*
X125652337Y-67474002D01*
X125462463Y-67758169D01*
X125331675Y-68073919D01*
X125265000Y-68409117D01*
X125120000Y-68409117D01*
X125120000Y-66700000D01*
X222860001Y-66700000D01*
X222860000Y-114332418D01*
G37*
G04 #@! TD.AperFunction*
M02*
