%TF.GenerationSoftware,KiCad,Pcbnew,(5.1.7)-1*%
%TF.CreationDate,2020-10-31T04:10:28-07:00*%
%TF.ProjectId,daughter_board,64617567-6874-4657-925f-626f6172642e,rev?*%
%TF.SameCoordinates,Original*%
%TF.FileFunction,Copper,L1,Top*%
%TF.FilePolarity,Positive*%
%FSLAX46Y46*%
G04 Gerber Fmt 4.6, Leading zero omitted, Abs format (unit mm)*
G04 Created by KiCad (PCBNEW (5.1.7)-1) date 2020-10-31 04:10:28*
%MOMM*%
%LPD*%
G01*
G04 APERTURE LIST*
%TA.AperFunction,SMDPad,CuDef*%
%ADD10R,2.800000X2.200000*%
%TD*%
%TA.AperFunction,SMDPad,CuDef*%
%ADD11R,2.800000X2.800000*%
%TD*%
%TA.AperFunction,ComponentPad*%
%ADD12C,2.200000*%
%TD*%
%TA.AperFunction,ComponentPad*%
%ADD13C,1.500000*%
%TD*%
%TA.AperFunction,ComponentPad*%
%ADD14R,3.200000X2.000000*%
%TD*%
%TA.AperFunction,ComponentPad*%
%ADD15C,2.000000*%
%TD*%
%TA.AperFunction,ComponentPad*%
%ADD16R,2.000000X2.000000*%
%TD*%
G04 APERTURE END LIST*
%TO.P,C1,1*%
%TO.N,OUT_A*%
%TA.AperFunction,SMDPad,CuDef*%
G36*
G01*
X128550001Y-91875002D02*
X128550001Y-90575000D01*
G75*
G02*
X128800000Y-90325001I249999J0D01*
G01*
X129625002Y-90325001D01*
G75*
G02*
X129875001Y-90575000I0J-249999D01*
G01*
X129875001Y-91875002D01*
G75*
G02*
X129625002Y-92125001I-249999J0D01*
G01*
X128800000Y-92125001D01*
G75*
G02*
X128550001Y-91875002I0J249999D01*
G01*
G37*
%TD.AperFunction*%
%TO.P,C1,2*%
%TO.N,GND*%
%TA.AperFunction,SMDPad,CuDef*%
G36*
G01*
X131675001Y-91875002D02*
X131675001Y-90575000D01*
G75*
G02*
X131925000Y-90325001I249999J0D01*
G01*
X132750002Y-90325001D01*
G75*
G02*
X133000001Y-90575000I0J-249999D01*
G01*
X133000001Y-91875002D01*
G75*
G02*
X132750002Y-92125001I-249999J0D01*
G01*
X131925000Y-92125001D01*
G75*
G02*
X131675001Y-91875002I0J249999D01*
G01*
G37*
%TD.AperFunction*%
%TD*%
%TO.P,C2,2*%
%TO.N,GND*%
%TA.AperFunction,SMDPad,CuDef*%
G36*
G01*
X151875001Y-90725002D02*
X151875001Y-89425000D01*
G75*
G02*
X152125000Y-89175001I249999J0D01*
G01*
X152950002Y-89175001D01*
G75*
G02*
X153200001Y-89425000I0J-249999D01*
G01*
X153200001Y-90725002D01*
G75*
G02*
X152950002Y-90975001I-249999J0D01*
G01*
X152125000Y-90975001D01*
G75*
G02*
X151875001Y-90725002I0J249999D01*
G01*
G37*
%TD.AperFunction*%
%TO.P,C2,1*%
%TO.N,OUT_B*%
%TA.AperFunction,SMDPad,CuDef*%
G36*
G01*
X148750001Y-90725002D02*
X148750001Y-89425000D01*
G75*
G02*
X149000000Y-89175001I249999J0D01*
G01*
X149825002Y-89175001D01*
G75*
G02*
X150075001Y-89425000I0J-249999D01*
G01*
X150075001Y-90725002D01*
G75*
G02*
X149825002Y-90975001I-249999J0D01*
G01*
X149000000Y-90975001D01*
G75*
G02*
X148750001Y-90725002I0J249999D01*
G01*
G37*
%TD.AperFunction*%
%TD*%
D10*
%TO.P,J1,R*%
%TO.N,N/C*%
X157795001Y-77275001D03*
%TO.P,J1,S*%
%TO.N,Net-(J1-PadS)*%
X150395001Y-75275001D03*
D11*
%TO.P,J1,T*%
%TO.N,GND*%
X150395001Y-84675001D03*
%TD*%
%TO.P,R1,1*%
%TO.N,Net-(R1-Pad1)*%
%TA.AperFunction,SMDPad,CuDef*%
G36*
G01*
X134555001Y-91820001D02*
X134555001Y-90570001D01*
G75*
G02*
X134805001Y-90320001I250000J0D01*
G01*
X135605001Y-90320001D01*
G75*
G02*
X135855001Y-90570001I0J-250000D01*
G01*
X135855001Y-91820001D01*
G75*
G02*
X135605001Y-92070001I-250000J0D01*
G01*
X134805001Y-92070001D01*
G75*
G02*
X134555001Y-91820001I0J250000D01*
G01*
G37*
%TD.AperFunction*%
%TO.P,R1,2*%
%TO.N,OUT_A*%
%TA.AperFunction,SMDPad,CuDef*%
G36*
G01*
X137655001Y-91820001D02*
X137655001Y-90570001D01*
G75*
G02*
X137905001Y-90320001I250000J0D01*
G01*
X138705001Y-90320001D01*
G75*
G02*
X138955001Y-90570001I0J-250000D01*
G01*
X138955001Y-91820001D01*
G75*
G02*
X138705001Y-92070001I-250000J0D01*
G01*
X137905001Y-92070001D01*
G75*
G02*
X137655001Y-91820001I0J250000D01*
G01*
G37*
%TD.AperFunction*%
%TD*%
%TO.P,R2,2*%
%TO.N,OUT_B*%
%TA.AperFunction,SMDPad,CuDef*%
G36*
G01*
X131645001Y-95170001D02*
X131645001Y-93920001D01*
G75*
G02*
X131895001Y-93670001I250000J0D01*
G01*
X132695001Y-93670001D01*
G75*
G02*
X132945001Y-93920001I0J-250000D01*
G01*
X132945001Y-95170001D01*
G75*
G02*
X132695001Y-95420001I-250000J0D01*
G01*
X131895001Y-95420001D01*
G75*
G02*
X131645001Y-95170001I0J250000D01*
G01*
G37*
%TD.AperFunction*%
%TO.P,R2,1*%
%TO.N,Net-(R2-Pad1)*%
%TA.AperFunction,SMDPad,CuDef*%
G36*
G01*
X128545001Y-95170001D02*
X128545001Y-93920001D01*
G75*
G02*
X128795001Y-93670001I250000J0D01*
G01*
X129595001Y-93670001D01*
G75*
G02*
X129845001Y-93920001I0J-250000D01*
G01*
X129845001Y-95170001D01*
G75*
G02*
X129595001Y-95420001I-250000J0D01*
G01*
X128795001Y-95420001D01*
G75*
G02*
X128545001Y-95170001I0J250000D01*
G01*
G37*
%TD.AperFunction*%
%TD*%
D12*
%TO.P,SW1,1*%
%TO.N,Net-(J1-PadS)*%
X140410001Y-74370001D03*
%TO.P,SW1,2*%
%TO.N,GND*%
X134060001Y-76910001D03*
%TD*%
D13*
%TO.P,SW2,*%
%TO.N,*%
X150390000Y-104060000D03*
X150390000Y-99060000D03*
D14*
%TO.P,SW2,MP*%
%TO.N,N/C*%
X143390000Y-107160000D03*
X143390000Y-95960000D03*
D15*
%TO.P,SW2,B*%
%TO.N,Net-(R2-Pad1)*%
X135890000Y-104060000D03*
%TO.P,SW2,C*%
%TO.N,GND*%
X135890000Y-101560000D03*
D16*
%TO.P,SW2,A*%
%TO.N,Net-(R1-Pad1)*%
X135890000Y-99060000D03*
%TD*%
M02*
