%TF.GenerationSoftware,KiCad,Pcbnew,(5.1.7)-1*%
%TF.CreationDate,2020-10-31T04:10:28-07:00*%
%TF.ProjectId,daughter_board,64617567-6874-4657-925f-626f6172642e,rev?*%
%TF.SameCoordinates,Original*%
%TF.FileFunction,Legend,Top*%
%TF.FilePolarity,Positive*%
%FSLAX46Y46*%
G04 Gerber Fmt 4.6, Leading zero omitted, Abs format (unit mm)*
G04 Created by KiCad (PCBNEW (5.1.7)-1) date 2020-10-31 04:10:28*
%MOMM*%
%LPD*%
G01*
G04 APERTURE LIST*
%ADD10C,0.120000*%
%ADD11C,0.150000*%
G04 APERTURE END LIST*
D10*
%TO.C,C1*%
X130063749Y-92135001D02*
X131486253Y-92135001D01*
X130063749Y-90315001D02*
X131486253Y-90315001D01*
%TO.C,C2*%
X150263749Y-89165001D02*
X151686253Y-89165001D01*
X150263749Y-90985001D02*
X151686253Y-90985001D01*
%TO.C,J1*%
X150995001Y-76575001D02*
X148995001Y-76575001D01*
X150995001Y-73975001D02*
X148995001Y-73975001D01*
X150995001Y-83075001D02*
X150995001Y-76575001D01*
X150995001Y-87475001D02*
X150995001Y-86275001D01*
X157195001Y-87475001D02*
X150995001Y-87475001D01*
X157195001Y-78575001D02*
X157195001Y-87475001D01*
X157195001Y-72775001D02*
X157195001Y-75975001D01*
X156695001Y-72775001D02*
X157195001Y-72775001D01*
X156695001Y-70275001D02*
X156695001Y-72775001D01*
X151495001Y-70275001D02*
X156695001Y-70275001D01*
X151495001Y-72775001D02*
X151495001Y-70275001D01*
X150995001Y-72775001D02*
X151495001Y-72775001D01*
X150995001Y-73975001D02*
X150995001Y-72775001D01*
%TO.C,R1*%
X136027937Y-92105001D02*
X137482065Y-92105001D01*
X136027937Y-90285001D02*
X137482065Y-90285001D01*
%TO.C,R2*%
X130017937Y-93635001D02*
X131472065Y-93635001D01*
X130017937Y-95455001D02*
X131472065Y-95455001D01*
%TO.C,SW1*%
X130885001Y-86435001D02*
X130885001Y-72465001D01*
X144855001Y-86435001D02*
X130885001Y-86435001D01*
X144855001Y-72465001D02*
X144855001Y-86435001D01*
X130885001Y-72465001D02*
X144855001Y-72465001D01*
%TO.C,SW2*%
X146390000Y-101560000D02*
G75*
G03*
X146390000Y-101560000I-3000000J0D01*
G01*
X145390000Y-95660000D02*
X149490000Y-95660000D01*
X149490000Y-107460000D02*
X145390000Y-107460000D01*
X141390000Y-107460000D02*
X137290000Y-107460000D01*
X141390000Y-95760000D02*
X137290000Y-95760000D01*
X137290000Y-95760000D02*
X137290000Y-107460000D01*
X135890000Y-97760000D02*
X135590000Y-97460000D01*
X135590000Y-97460000D02*
X136190000Y-97460000D01*
X136190000Y-97460000D02*
X135890000Y-97760000D01*
X149490000Y-95660000D02*
X149490000Y-98260000D01*
X149490000Y-100260000D02*
X149490000Y-102860000D01*
X149490000Y-104860000D02*
X149490000Y-107460000D01*
X143390000Y-101060000D02*
X143390000Y-102060000D01*
X142890000Y-101560000D02*
X143890000Y-101560000D01*
%TO.C,C1*%
D11*
X130608334Y-89732143D02*
X130560715Y-89779762D01*
X130417858Y-89827381D01*
X130322620Y-89827381D01*
X130179762Y-89779762D01*
X130084524Y-89684524D01*
X130036905Y-89589286D01*
X129989286Y-89398810D01*
X129989286Y-89255953D01*
X130036905Y-89065477D01*
X130084524Y-88970239D01*
X130179762Y-88875001D01*
X130322620Y-88827381D01*
X130417858Y-88827381D01*
X130560715Y-88875001D01*
X130608334Y-88922620D01*
X131560715Y-89827381D02*
X130989286Y-89827381D01*
X131275001Y-89827381D02*
X131275001Y-88827381D01*
X131179762Y-88970239D01*
X131084524Y-89065477D01*
X130989286Y-89113096D01*
%TO.C,C2*%
X150808334Y-88582143D02*
X150760715Y-88629762D01*
X150617858Y-88677381D01*
X150522620Y-88677381D01*
X150379762Y-88629762D01*
X150284524Y-88534524D01*
X150236905Y-88439286D01*
X150189286Y-88248810D01*
X150189286Y-88105953D01*
X150236905Y-87915477D01*
X150284524Y-87820239D01*
X150379762Y-87725001D01*
X150522620Y-87677381D01*
X150617858Y-87677381D01*
X150760715Y-87725001D01*
X150808334Y-87772620D01*
X151189286Y-87772620D02*
X151236905Y-87725001D01*
X151332143Y-87677381D01*
X151570239Y-87677381D01*
X151665477Y-87725001D01*
X151713096Y-87772620D01*
X151760715Y-87867858D01*
X151760715Y-87963096D01*
X151713096Y-88105953D01*
X151141667Y-88677381D01*
X151760715Y-88677381D01*
%TO.C,J1*%
X153761667Y-68427381D02*
X153761667Y-69141667D01*
X153714048Y-69284524D01*
X153618810Y-69379762D01*
X153475953Y-69427381D01*
X153380715Y-69427381D01*
X154761667Y-69427381D02*
X154190239Y-69427381D01*
X154475953Y-69427381D02*
X154475953Y-68427381D01*
X154380715Y-68570239D01*
X154285477Y-68665477D01*
X154190239Y-68713096D01*
%TO.C,R1*%
X136588334Y-89827381D02*
X136255001Y-89351191D01*
X136016905Y-89827381D02*
X136016905Y-88827381D01*
X136397858Y-88827381D01*
X136493096Y-88875001D01*
X136540715Y-88922620D01*
X136588334Y-89017858D01*
X136588334Y-89160715D01*
X136540715Y-89255953D01*
X136493096Y-89303572D01*
X136397858Y-89351191D01*
X136016905Y-89351191D01*
X137540715Y-89827381D02*
X136969286Y-89827381D01*
X137255001Y-89827381D02*
X137255001Y-88827381D01*
X137159762Y-88970239D01*
X137064524Y-89065477D01*
X136969286Y-89113096D01*
%TO.C,R2*%
X130578334Y-93177381D02*
X130245001Y-92701191D01*
X130006905Y-93177381D02*
X130006905Y-92177381D01*
X130387858Y-92177381D01*
X130483096Y-92225001D01*
X130530715Y-92272620D01*
X130578334Y-92367858D01*
X130578334Y-92510715D01*
X130530715Y-92605953D01*
X130483096Y-92653572D01*
X130387858Y-92701191D01*
X130006905Y-92701191D01*
X130959286Y-92272620D02*
X131006905Y-92225001D01*
X131102143Y-92177381D01*
X131340239Y-92177381D01*
X131435477Y-92225001D01*
X131483096Y-92272620D01*
X131530715Y-92367858D01*
X131530715Y-92463096D01*
X131483096Y-92605953D01*
X130911667Y-93177381D01*
X131530715Y-93177381D01*
%TO.C,SW1*%
X136536667Y-71980762D02*
X136679524Y-72028381D01*
X136917620Y-72028381D01*
X137012858Y-71980762D01*
X137060477Y-71933143D01*
X137108096Y-71837905D01*
X137108096Y-71742667D01*
X137060477Y-71647429D01*
X137012858Y-71599810D01*
X136917620Y-71552191D01*
X136727143Y-71504572D01*
X136631905Y-71456953D01*
X136584286Y-71409334D01*
X136536667Y-71314096D01*
X136536667Y-71218858D01*
X136584286Y-71123620D01*
X136631905Y-71076001D01*
X136727143Y-71028381D01*
X136965239Y-71028381D01*
X137108096Y-71076001D01*
X137441429Y-71028381D02*
X137679524Y-72028381D01*
X137870001Y-71314096D01*
X138060477Y-72028381D01*
X138298572Y-71028381D01*
X139203334Y-72028381D02*
X138631905Y-72028381D01*
X138917620Y-72028381D02*
X138917620Y-71028381D01*
X138822381Y-71171239D01*
X138727143Y-71266477D01*
X138631905Y-71314096D01*
%TO.C,SW2*%
X137356666Y-94764761D02*
X137499523Y-94812380D01*
X137737619Y-94812380D01*
X137832857Y-94764761D01*
X137880476Y-94717142D01*
X137928095Y-94621904D01*
X137928095Y-94526666D01*
X137880476Y-94431428D01*
X137832857Y-94383809D01*
X137737619Y-94336190D01*
X137547142Y-94288571D01*
X137451904Y-94240952D01*
X137404285Y-94193333D01*
X137356666Y-94098095D01*
X137356666Y-94002857D01*
X137404285Y-93907619D01*
X137451904Y-93860000D01*
X137547142Y-93812380D01*
X137785238Y-93812380D01*
X137928095Y-93860000D01*
X138261428Y-93812380D02*
X138499523Y-94812380D01*
X138690000Y-94098095D01*
X138880476Y-94812380D01*
X139118571Y-93812380D01*
X139451904Y-93907619D02*
X139499523Y-93860000D01*
X139594761Y-93812380D01*
X139832857Y-93812380D01*
X139928095Y-93860000D01*
X139975714Y-93907619D01*
X140023333Y-94002857D01*
X140023333Y-94098095D01*
X139975714Y-94240952D01*
X139404285Y-94812380D01*
X140023333Y-94812380D01*
%TD*%
M02*
