M48
; DRILL file {KiCad (5.1.7)-1} date 04/25/21 15:55:38
; FORMAT={-:-/ absolute / inch / decimal}
; #@! TF.CreationDate,2021-04-25T15:55:38-07:00
; #@! TF.GenerationSoftware,Kicad,Pcbnew,(5.1.7)-1
FMAT,2
INCH
T1C0.0157
T2C0.0394
T3C0.0591
T4C0.0669
T5C0.0866
T6C0.1575
%
G90
G05
T1
X6.042Y-3.411
X6.0455Y-3.106
T2
X5.3791Y-3.1531
X5.3791Y-3.35
X5.95Y-3.1531
X5.95Y-3.2516
X5.95Y-3.35
T3
X5.5Y-4.15
X5.75Y-4.05
T4
X5.45Y-4.25
X5.85Y-4.25
X7.001Y-2.8435
X7.001Y-3.1191
T5
X8.7Y-2.7
X8.702Y-4.698
X5.0Y-2.7
X5.0Y-4.7
T6
X5.65Y-4.25
T3
G00X5.6803Y-3.0311
M15
G01X5.6291Y-3.0311
M16
G05
G00X5.6803Y-3.472
M15
G01X5.6291Y-3.472
M16
G05
T0
M30
