G04 #@! TF.GenerationSoftware,KiCad,Pcbnew,(5.1.7)-1*
G04 #@! TF.CreationDate,2021-04-25T15:55:36-07:00*
G04 #@! TF.ProjectId,daughter_board,64617567-6874-4657-925f-626f6172642e,rev?*
G04 #@! TF.SameCoordinates,Original*
G04 #@! TF.FileFunction,Legend,Bot*
G04 #@! TF.FilePolarity,Positive*
%FSLAX46Y46*%
G04 Gerber Fmt 4.6, Leading zero omitted, Abs format (unit mm)*
G04 Created by KiCad (PCBNEW (5.1.7)-1) date 2021-04-25 15:55:36*
%MOMM*%
%LPD*%
G01*
G04 APERTURE LIST*
%ADD10C,0.120000*%
%ADD11C,0.127000*%
%ADD12C,0.400000*%
%ADD13C,0.015000*%
G04 APERTURE END LIST*
D10*
X159491000Y-73863252D02*
X159491000Y-72440748D01*
X161311000Y-73863252D02*
X161311000Y-72440748D01*
X163724000Y-73863252D02*
X163724000Y-72440748D01*
X161904000Y-73863252D02*
X161904000Y-72440748D01*
X166730000Y-73879064D02*
X166730000Y-72424936D01*
X168550000Y-73879064D02*
X168550000Y-72424936D01*
X166137000Y-73879064D02*
X166137000Y-72424936D01*
X164317000Y-73879064D02*
X164317000Y-72424936D01*
D11*
X174825400Y-71426100D02*
X174825400Y-67726100D01*
X174825400Y-67726100D02*
X175325400Y-67726100D01*
X175325400Y-67726100D02*
X179575400Y-67726100D01*
X175325400Y-67726100D02*
X175325400Y-66226100D01*
X175325400Y-66226100D02*
X180325400Y-66226100D01*
X180325400Y-66226100D02*
X180325400Y-66926100D01*
X180825400Y-72626100D02*
X180825400Y-78726100D01*
X180825400Y-82276100D02*
X180825400Y-83226100D01*
X174825400Y-83226100D02*
X174825400Y-74526100D01*
D12*
X181775400Y-66476100D02*
G75*
G03*
X181775400Y-66476100I-200000J0D01*
G01*
D11*
X178925400Y-83226100D02*
X180825400Y-83226100D01*
X174825400Y-83226100D02*
X175275400Y-83226100D01*
D13*
X170860527Y-70544940D02*
X171578137Y-70544940D01*
X171721659Y-70497099D01*
X171817340Y-70401418D01*
X171865181Y-70257896D01*
X171865181Y-70162215D01*
X171865181Y-71549594D02*
X171865181Y-70975506D01*
X171865181Y-71262550D02*
X170860527Y-71262550D01*
X171004049Y-71166869D01*
X171099730Y-71071187D01*
X171147571Y-70975506D01*
M02*
