G04 #@! TF.GenerationSoftware,KiCad,Pcbnew,(5.1.7)-1*
G04 #@! TF.CreationDate,2021-04-25T15:55:36-07:00*
G04 #@! TF.ProjectId,daughter_board,64617567-6874-4657-925f-626f6172642e,rev?*
G04 #@! TF.SameCoordinates,Original*
G04 #@! TF.FileFunction,Paste,Bot*
G04 #@! TF.FilePolarity,Positive*
%FSLAX46Y46*%
G04 Gerber Fmt 4.6, Leading zero omitted, Abs format (unit mm)*
G04 Created by KiCad (PCBNEW (5.1.7)-1) date 2021-04-25 15:55:36*
%MOMM*%
%LPD*%
G01*
G04 APERTURE LIST*
%ADD10R,2.800000X2.000000*%
%ADD11R,2.600000X2.800000*%
%ADD12R,2.800000X2.200000*%
%ADD13R,2.800000X2.800000*%
G04 APERTURE END LIST*
G36*
G01*
X161051003Y-75377000D02*
X159750997Y-75377000D01*
G75*
G02*
X159501000Y-75127003I0J249997D01*
G01*
X159501000Y-74301997D01*
G75*
G02*
X159750997Y-74052000I249997J0D01*
G01*
X161051003Y-74052000D01*
G75*
G02*
X161301000Y-74301997I0J-249997D01*
G01*
X161301000Y-75127003D01*
G75*
G02*
X161051003Y-75377000I-249997J0D01*
G01*
G37*
G36*
G01*
X161051003Y-72252000D02*
X159750997Y-72252000D01*
G75*
G02*
X159501000Y-72002003I0J249997D01*
G01*
X159501000Y-71176997D01*
G75*
G02*
X159750997Y-70927000I249997J0D01*
G01*
X161051003Y-70927000D01*
G75*
G02*
X161301000Y-71176997I0J-249997D01*
G01*
X161301000Y-72002003D01*
G75*
G02*
X161051003Y-72252000I-249997J0D01*
G01*
G37*
G36*
G01*
X163464003Y-72252000D02*
X162163997Y-72252000D01*
G75*
G02*
X161914000Y-72002003I0J249997D01*
G01*
X161914000Y-71176997D01*
G75*
G02*
X162163997Y-70927000I249997J0D01*
G01*
X163464003Y-70927000D01*
G75*
G02*
X163714000Y-71176997I0J-249997D01*
G01*
X163714000Y-72002003D01*
G75*
G02*
X163464003Y-72252000I-249997J0D01*
G01*
G37*
G36*
G01*
X163464003Y-75377000D02*
X162163997Y-75377000D01*
G75*
G02*
X161914000Y-75127003I0J249997D01*
G01*
X161914000Y-74301997D01*
G75*
G02*
X162163997Y-74052000I249997J0D01*
G01*
X163464003Y-74052000D01*
G75*
G02*
X163714000Y-74301997I0J-249997D01*
G01*
X163714000Y-75127003D01*
G75*
G02*
X163464003Y-75377000I-249997J0D01*
G01*
G37*
G36*
G01*
X168265001Y-75352000D02*
X167014999Y-75352000D01*
G75*
G02*
X166765000Y-75102001I0J249999D01*
G01*
X166765000Y-74301999D01*
G75*
G02*
X167014999Y-74052000I249999J0D01*
G01*
X168265001Y-74052000D01*
G75*
G02*
X168515000Y-74301999I0J-249999D01*
G01*
X168515000Y-75102001D01*
G75*
G02*
X168265001Y-75352000I-249999J0D01*
G01*
G37*
G36*
G01*
X168265001Y-72252000D02*
X167014999Y-72252000D01*
G75*
G02*
X166765000Y-72002001I0J249999D01*
G01*
X166765000Y-71201999D01*
G75*
G02*
X167014999Y-70952000I249999J0D01*
G01*
X168265001Y-70952000D01*
G75*
G02*
X168515000Y-71201999I0J-249999D01*
G01*
X168515000Y-72002001D01*
G75*
G02*
X168265001Y-72252000I-249999J0D01*
G01*
G37*
G36*
G01*
X165852001Y-72252000D02*
X164601999Y-72252000D01*
G75*
G02*
X164352000Y-72002001I0J249999D01*
G01*
X164352000Y-71201999D01*
G75*
G02*
X164601999Y-70952000I249999J0D01*
G01*
X165852001Y-70952000D01*
G75*
G02*
X166102000Y-71201999I0J-249999D01*
G01*
X166102000Y-72002001D01*
G75*
G02*
X165852001Y-72252000I-249999J0D01*
G01*
G37*
G36*
G01*
X165852001Y-75352000D02*
X164601999Y-75352000D01*
G75*
G02*
X164352000Y-75102001I0J249999D01*
G01*
X164352000Y-74301999D01*
G75*
G02*
X164601999Y-74052000I249999J0D01*
G01*
X165852001Y-74052000D01*
G75*
G02*
X166102000Y-74301999I0J-249999D01*
G01*
X166102000Y-75102001D01*
G75*
G02*
X165852001Y-75352000I-249999J0D01*
G01*
G37*
D10*
X181525400Y-68326100D03*
D11*
X181425400Y-80526100D03*
D12*
X174125400Y-73026100D03*
X181525400Y-71126100D03*
D13*
X177075400Y-84526100D03*
M02*
