G04 #@! TF.GenerationSoftware,KiCad,Pcbnew,(5.1.7)-1*
G04 #@! TF.CreationDate,2021-04-25T15:55:36-07:00*
G04 #@! TF.ProjectId,daughter_board,64617567-6874-4657-925f-626f6172642e,rev?*
G04 #@! TF.SameCoordinates,Original*
G04 #@! TF.FileFunction,Soldermask,Bot*
G04 #@! TF.FilePolarity,Negative*
%FSLAX46Y46*%
G04 Gerber Fmt 4.6, Leading zero omitted, Abs format (unit mm)*
G04 Created by KiCad (PCBNEW (5.1.7)-1) date 2021-04-25 15:55:36*
%MOMM*%
%LPD*%
G01*
G04 APERTURE LIST*
%ADD10C,2.200000*%
%ADD11C,4.000000*%
%ADD12C,1.700000*%
%ADD13C,1.500000*%
%ADD14R,3.200000X2.000000*%
%ADD15C,2.000000*%
%ADD16R,2.000000X2.000000*%
%ADD17R,2.800000X2.000000*%
%ADD18R,2.600000X2.800000*%
%ADD19R,2.800000X2.200000*%
%ADD20R,2.800000X2.800000*%
G04 APERTURE END LIST*
D10*
X127000000Y-119380000D03*
X221030800Y-119329200D03*
X220980000Y-68580000D03*
X127000000Y-68580000D03*
G36*
G01*
X161051003Y-75377000D02*
X159750997Y-75377000D01*
G75*
G02*
X159501000Y-75127003I0J249997D01*
G01*
X159501000Y-74301997D01*
G75*
G02*
X159750997Y-74052000I249997J0D01*
G01*
X161051003Y-74052000D01*
G75*
G02*
X161301000Y-74301997I0J-249997D01*
G01*
X161301000Y-75127003D01*
G75*
G02*
X161051003Y-75377000I-249997J0D01*
G01*
G37*
G36*
G01*
X161051003Y-72252000D02*
X159750997Y-72252000D01*
G75*
G02*
X159501000Y-72002003I0J249997D01*
G01*
X159501000Y-71176997D01*
G75*
G02*
X159750997Y-70927000I249997J0D01*
G01*
X161051003Y-70927000D01*
G75*
G02*
X161301000Y-71176997I0J-249997D01*
G01*
X161301000Y-72002003D01*
G75*
G02*
X161051003Y-72252000I-249997J0D01*
G01*
G37*
G36*
G01*
X163464003Y-72252000D02*
X162163997Y-72252000D01*
G75*
G02*
X161914000Y-72002003I0J249997D01*
G01*
X161914000Y-71176997D01*
G75*
G02*
X162163997Y-70927000I249997J0D01*
G01*
X163464003Y-70927000D01*
G75*
G02*
X163714000Y-71176997I0J-249997D01*
G01*
X163714000Y-72002003D01*
G75*
G02*
X163464003Y-72252000I-249997J0D01*
G01*
G37*
G36*
G01*
X163464003Y-75377000D02*
X162163997Y-75377000D01*
G75*
G02*
X161914000Y-75127003I0J249997D01*
G01*
X161914000Y-74301997D01*
G75*
G02*
X162163997Y-74052000I249997J0D01*
G01*
X163464003Y-74052000D01*
G75*
G02*
X163714000Y-74301997I0J-249997D01*
G01*
X163714000Y-75127003D01*
G75*
G02*
X163464003Y-75377000I-249997J0D01*
G01*
G37*
G36*
G01*
X168265001Y-75352000D02*
X167014999Y-75352000D01*
G75*
G02*
X166765000Y-75102001I0J249999D01*
G01*
X166765000Y-74301999D01*
G75*
G02*
X167014999Y-74052000I249999J0D01*
G01*
X168265001Y-74052000D01*
G75*
G02*
X168515000Y-74301999I0J-249999D01*
G01*
X168515000Y-75102001D01*
G75*
G02*
X168265001Y-75352000I-249999J0D01*
G01*
G37*
G36*
G01*
X168265001Y-72252000D02*
X167014999Y-72252000D01*
G75*
G02*
X166765000Y-72002001I0J249999D01*
G01*
X166765000Y-71201999D01*
G75*
G02*
X167014999Y-70952000I249999J0D01*
G01*
X168265001Y-70952000D01*
G75*
G02*
X168515000Y-71201999I0J-249999D01*
G01*
X168515000Y-72002001D01*
G75*
G02*
X168265001Y-72252000I-249999J0D01*
G01*
G37*
G36*
G01*
X165852001Y-72252000D02*
X164601999Y-72252000D01*
G75*
G02*
X164352000Y-72002001I0J249999D01*
G01*
X164352000Y-71201999D01*
G75*
G02*
X164601999Y-70952000I249999J0D01*
G01*
X165852001Y-70952000D01*
G75*
G02*
X166102000Y-71201999I0J-249999D01*
G01*
X166102000Y-72002001D01*
G75*
G02*
X165852001Y-72252000I-249999J0D01*
G01*
G37*
G36*
G01*
X165852001Y-75352000D02*
X164601999Y-75352000D01*
G75*
G02*
X164352000Y-75102001I0J249999D01*
G01*
X164352000Y-74301999D01*
G75*
G02*
X164601999Y-74052000I249999J0D01*
G01*
X165852001Y-74052000D01*
G75*
G02*
X166102000Y-74301999I0J-249999D01*
G01*
X166102000Y-75102001D01*
G75*
G02*
X165852001Y-75352000I-249999J0D01*
G01*
G37*
X146050000Y-102870000D03*
X139700000Y-105410000D03*
D11*
X143510000Y-107950000D03*
D12*
X138430000Y-107950000D03*
X148590000Y-107950000D03*
D13*
X136630000Y-80090000D03*
X136630000Y-85090000D03*
D14*
X143630000Y-76990000D03*
X143630000Y-88190000D03*
D15*
X151130000Y-80090000D03*
X151130000Y-82590000D03*
D16*
X151130000Y-85090000D03*
D17*
X181525400Y-68326100D03*
D18*
X181425400Y-80526100D03*
D19*
X174125400Y-73026100D03*
X181525400Y-71126100D03*
D12*
X177825400Y-72226100D03*
X177825400Y-79226100D03*
D20*
X177075400Y-84526100D03*
M02*
