G04 #@! TF.GenerationSoftware,KiCad,Pcbnew,(5.1.7)-1*
G04 #@! TF.CreationDate,2021-04-25T15:55:36-07:00*
G04 #@! TF.ProjectId,daughter_board,64617567-6874-4657-925f-626f6172642e,rev?*
G04 #@! TF.SameCoordinates,Original*
G04 #@! TF.FileFunction,Copper,L2,Bot*
G04 #@! TF.FilePolarity,Positive*
%FSLAX46Y46*%
G04 Gerber Fmt 4.6, Leading zero omitted, Abs format (unit mm)*
G04 Created by KiCad (PCBNEW (5.1.7)-1) date 2021-04-25 15:55:36*
%MOMM*%
%LPD*%
G01*
G04 APERTURE LIST*
G04 #@! TA.AperFunction,ComponentPad*
%ADD10C,2.200000*%
G04 #@! TD*
G04 #@! TA.AperFunction,ComponentPad*
%ADD11C,1.500000*%
G04 #@! TD*
G04 #@! TA.AperFunction,ComponentPad*
%ADD12R,3.200000X2.000000*%
G04 #@! TD*
G04 #@! TA.AperFunction,ComponentPad*
%ADD13C,2.000000*%
G04 #@! TD*
G04 #@! TA.AperFunction,ComponentPad*
%ADD14R,2.000000X2.000000*%
G04 #@! TD*
G04 #@! TA.AperFunction,SMDPad,CuDef*
%ADD15R,2.800000X2.000000*%
G04 #@! TD*
G04 #@! TA.AperFunction,SMDPad,CuDef*
%ADD16R,2.600000X2.800000*%
G04 #@! TD*
G04 #@! TA.AperFunction,SMDPad,CuDef*
%ADD17R,2.800000X2.200000*%
G04 #@! TD*
G04 #@! TA.AperFunction,SMDPad,CuDef*
%ADD18R,2.800000X2.800000*%
G04 #@! TD*
G04 #@! TA.AperFunction,ViaPad*
%ADD19C,0.800000*%
G04 #@! TD*
G04 #@! TA.AperFunction,Conductor*
%ADD20C,0.250000*%
G04 #@! TD*
G04 APERTURE END LIST*
G04 #@! TA.AperFunction,SMDPad,CuDef*
G36*
G01*
X161051003Y-75377000D02*
X159750997Y-75377000D01*
G75*
G02*
X159501000Y-75127003I0J249997D01*
G01*
X159501000Y-74301997D01*
G75*
G02*
X159750997Y-74052000I249997J0D01*
G01*
X161051003Y-74052000D01*
G75*
G02*
X161301000Y-74301997I0J-249997D01*
G01*
X161301000Y-75127003D01*
G75*
G02*
X161051003Y-75377000I-249997J0D01*
G01*
G37*
G04 #@! TD.AperFunction*
G04 #@! TA.AperFunction,SMDPad,CuDef*
G36*
G01*
X161051003Y-72252000D02*
X159750997Y-72252000D01*
G75*
G02*
X159501000Y-72002003I0J249997D01*
G01*
X159501000Y-71176997D01*
G75*
G02*
X159750997Y-70927000I249997J0D01*
G01*
X161051003Y-70927000D01*
G75*
G02*
X161301000Y-71176997I0J-249997D01*
G01*
X161301000Y-72002003D01*
G75*
G02*
X161051003Y-72252000I-249997J0D01*
G01*
G37*
G04 #@! TD.AperFunction*
G04 #@! TA.AperFunction,SMDPad,CuDef*
G36*
G01*
X163464003Y-72252000D02*
X162163997Y-72252000D01*
G75*
G02*
X161914000Y-72002003I0J249997D01*
G01*
X161914000Y-71176997D01*
G75*
G02*
X162163997Y-70927000I249997J0D01*
G01*
X163464003Y-70927000D01*
G75*
G02*
X163714000Y-71176997I0J-249997D01*
G01*
X163714000Y-72002003D01*
G75*
G02*
X163464003Y-72252000I-249997J0D01*
G01*
G37*
G04 #@! TD.AperFunction*
G04 #@! TA.AperFunction,SMDPad,CuDef*
G36*
G01*
X163464003Y-75377000D02*
X162163997Y-75377000D01*
G75*
G02*
X161914000Y-75127003I0J249997D01*
G01*
X161914000Y-74301997D01*
G75*
G02*
X162163997Y-74052000I249997J0D01*
G01*
X163464003Y-74052000D01*
G75*
G02*
X163714000Y-74301997I0J-249997D01*
G01*
X163714000Y-75127003D01*
G75*
G02*
X163464003Y-75377000I-249997J0D01*
G01*
G37*
G04 #@! TD.AperFunction*
G04 #@! TA.AperFunction,SMDPad,CuDef*
G36*
G01*
X168265001Y-75352000D02*
X167014999Y-75352000D01*
G75*
G02*
X166765000Y-75102001I0J249999D01*
G01*
X166765000Y-74301999D01*
G75*
G02*
X167014999Y-74052000I249999J0D01*
G01*
X168265001Y-74052000D01*
G75*
G02*
X168515000Y-74301999I0J-249999D01*
G01*
X168515000Y-75102001D01*
G75*
G02*
X168265001Y-75352000I-249999J0D01*
G01*
G37*
G04 #@! TD.AperFunction*
G04 #@! TA.AperFunction,SMDPad,CuDef*
G36*
G01*
X168265001Y-72252000D02*
X167014999Y-72252000D01*
G75*
G02*
X166765000Y-72002001I0J249999D01*
G01*
X166765000Y-71201999D01*
G75*
G02*
X167014999Y-70952000I249999J0D01*
G01*
X168265001Y-70952000D01*
G75*
G02*
X168515000Y-71201999I0J-249999D01*
G01*
X168515000Y-72002001D01*
G75*
G02*
X168265001Y-72252000I-249999J0D01*
G01*
G37*
G04 #@! TD.AperFunction*
G04 #@! TA.AperFunction,SMDPad,CuDef*
G36*
G01*
X165852001Y-72252000D02*
X164601999Y-72252000D01*
G75*
G02*
X164352000Y-72002001I0J249999D01*
G01*
X164352000Y-71201999D01*
G75*
G02*
X164601999Y-70952000I249999J0D01*
G01*
X165852001Y-70952000D01*
G75*
G02*
X166102000Y-71201999I0J-249999D01*
G01*
X166102000Y-72002001D01*
G75*
G02*
X165852001Y-72252000I-249999J0D01*
G01*
G37*
G04 #@! TD.AperFunction*
G04 #@! TA.AperFunction,SMDPad,CuDef*
G36*
G01*
X165852001Y-75352000D02*
X164601999Y-75352000D01*
G75*
G02*
X164352000Y-75102001I0J249999D01*
G01*
X164352000Y-74301999D01*
G75*
G02*
X164601999Y-74052000I249999J0D01*
G01*
X165852001Y-74052000D01*
G75*
G02*
X166102000Y-74301999I0J-249999D01*
G01*
X166102000Y-75102001D01*
G75*
G02*
X165852001Y-75352000I-249999J0D01*
G01*
G37*
G04 #@! TD.AperFunction*
D10*
X146050000Y-102870000D03*
X139700000Y-105410000D03*
D11*
X136630000Y-80090000D03*
X136630000Y-85090000D03*
D12*
X143630000Y-76990000D03*
X143630000Y-88190000D03*
D13*
X151130000Y-80090000D03*
X151130000Y-82590000D03*
D14*
X151130000Y-85090000D03*
D15*
X181525400Y-68326100D03*
D16*
X181425400Y-80526100D03*
D17*
X174125400Y-73026100D03*
X181525400Y-71126100D03*
D18*
X177075400Y-84526100D03*
D19*
X153466800Y-86639400D03*
X153555700Y-78892400D03*
D20*
X181525400Y-71126100D02*
X180371500Y-71126100D01*
X180371500Y-71126100D02*
X179603400Y-70358000D01*
X168884000Y-70358000D02*
X167640000Y-71602000D01*
X179603400Y-70358000D02*
X168884000Y-70358000D01*
X160401000Y-74714500D02*
X160401000Y-74968100D01*
X181525400Y-71126100D02*
X181525400Y-72411100D01*
X181525400Y-72411100D02*
X181525400Y-72893700D01*
X181525400Y-72893700D02*
X178841400Y-75577700D01*
X178841400Y-75577700D02*
X171856400Y-75577700D01*
X171856400Y-75577700D02*
X169887900Y-77546200D01*
X169887900Y-77546200D02*
X169887900Y-79260700D01*
X169887900Y-79260700D02*
X161975800Y-87172800D01*
X154000200Y-87172800D02*
X153466800Y-86639400D01*
X161975800Y-87172800D02*
X154000200Y-87172800D01*
X157733600Y-74714500D02*
X160401000Y-74714500D01*
X153555700Y-78892400D02*
X157733600Y-74714500D01*
X160401000Y-71589500D02*
X162814000Y-71589500D01*
X160401000Y-71589500D02*
X155918300Y-71589500D01*
X155918300Y-71589500D02*
X148907500Y-78600300D01*
X148907500Y-78600300D02*
X148907500Y-81661000D01*
X149836500Y-82590000D02*
X151130000Y-82590000D01*
X148907500Y-81661000D02*
X149836500Y-82590000D01*
X181525400Y-68326100D02*
X164960200Y-68326100D01*
X162814000Y-70472300D02*
X162814000Y-71589500D01*
X164960200Y-68326100D02*
X162814000Y-70472300D01*
X162814000Y-74714500D02*
X162814000Y-74206100D01*
X162814000Y-74206100D02*
X163703000Y-73317100D01*
X163703000Y-73317100D02*
X164439600Y-73317100D01*
X165227000Y-72529700D02*
X165227000Y-71602000D01*
X164439600Y-73317100D02*
X165227000Y-72529700D01*
X166651100Y-73026100D02*
X165227000Y-71602000D01*
X174125400Y-73026100D02*
X166651100Y-73026100D01*
X151130000Y-85090000D02*
X161696400Y-85090000D01*
X167640000Y-79146400D02*
X167640000Y-74702000D01*
X161696400Y-85090000D02*
X167640000Y-79146400D01*
X165227000Y-74702000D02*
X165227000Y-75895200D01*
X161032200Y-80090000D02*
X151130000Y-80090000D01*
X165227000Y-75895200D02*
X161032200Y-80090000D01*
X181425400Y-91269000D02*
X181425400Y-80526100D01*
X169824400Y-102870000D02*
X181425400Y-91269000D01*
X146050000Y-102870000D02*
X169824400Y-102870000D01*
M02*
