G04 #@! TF.GenerationSoftware,KiCad,Pcbnew,(5.1.7)-1*
G04 #@! TF.CreationDate,2021-05-02T01:56:36-07:00*
G04 #@! TF.ProjectId,computer_rgb_controller,636f6d70-7574-4657-925f-7267625f636f,rev?*
G04 #@! TF.SameCoordinates,Original*
G04 #@! TF.FileFunction,Legend,Top*
G04 #@! TF.FilePolarity,Positive*
%FSLAX46Y46*%
G04 Gerber Fmt 4.6, Leading zero omitted, Abs format (unit mm)*
G04 Created by KiCad (PCBNEW (5.1.7)-1) date 2021-05-02 01:56:36*
%MOMM*%
%LPD*%
G01*
G04 APERTURE LIST*
%ADD10C,0.120000*%
%ADD11C,0.127000*%
%ADD12C,0.400000*%
%ADD13C,0.150000*%
%ADD14C,0.015000*%
%ADD15C,2.200000*%
%ADD16R,2.000000X2.000000*%
%ADD17C,2.000000*%
%ADD18R,1.700000X1.700000*%
%ADD19O,1.700000X1.700000*%
%ADD20R,3.000000X3.000000*%
%ADD21C,3.000000*%
%ADD22O,8.000000X2.000000*%
%ADD23C,1.200000*%
%ADD24R,2.000000X2.800000*%
%ADD25R,2.800000X2.600000*%
%ADD26R,2.200000X2.800000*%
%ADD27C,1.700000*%
%ADD28R,2.800000X2.800000*%
G04 APERTURE END LIST*
D10*
X128310000Y-66000000D02*
G75*
G03*
X128310000Y-66000000I-5120000J0D01*
G01*
X128270000Y-66000000D02*
X118110000Y-66000000D01*
X128270000Y-66040000D02*
X118110000Y-66040000D01*
X128270000Y-66080000D02*
X118110000Y-66080000D01*
X128269000Y-66120000D02*
X118111000Y-66120000D01*
X128268000Y-66160000D02*
X118112000Y-66160000D01*
X128267000Y-66200000D02*
X118113000Y-66200000D01*
X128265000Y-66240000D02*
X118115000Y-66240000D01*
X128263000Y-66280000D02*
X118117000Y-66280000D01*
X128260000Y-66320000D02*
X118120000Y-66320000D01*
X128258000Y-66360000D02*
X118122000Y-66360000D01*
X128255000Y-66400000D02*
X118125000Y-66400000D01*
X128252000Y-66440000D02*
X118128000Y-66440000D01*
X128248000Y-66480000D02*
X118132000Y-66480000D01*
X128244000Y-66520000D02*
X118136000Y-66520000D01*
X128240000Y-66560000D02*
X118140000Y-66560000D01*
X128235000Y-66600000D02*
X118145000Y-66600000D01*
X128230000Y-66640000D02*
X118150000Y-66640000D01*
X128225000Y-66680000D02*
X118155000Y-66680000D01*
X128220000Y-66721000D02*
X118160000Y-66721000D01*
X128214000Y-66761000D02*
X118166000Y-66761000D01*
X128208000Y-66801000D02*
X118172000Y-66801000D01*
X128201000Y-66841000D02*
X118179000Y-66841000D01*
X128194000Y-66881000D02*
X118186000Y-66881000D01*
X128187000Y-66921000D02*
X118193000Y-66921000D01*
X128180000Y-66961000D02*
X118200000Y-66961000D01*
X128172000Y-67001000D02*
X118208000Y-67001000D01*
X128164000Y-67041000D02*
X118216000Y-67041000D01*
X128155000Y-67081000D02*
X118225000Y-67081000D01*
X128146000Y-67121000D02*
X118234000Y-67121000D01*
X128137000Y-67161000D02*
X118243000Y-67161000D01*
X128128000Y-67201000D02*
X118252000Y-67201000D01*
X128118000Y-67241000D02*
X118262000Y-67241000D01*
X128108000Y-67281000D02*
X124431000Y-67281000D01*
X121949000Y-67281000D02*
X118272000Y-67281000D01*
X128097000Y-67321000D02*
X124431000Y-67321000D01*
X121949000Y-67321000D02*
X118283000Y-67321000D01*
X128087000Y-67361000D02*
X124431000Y-67361000D01*
X121949000Y-67361000D02*
X118293000Y-67361000D01*
X128075000Y-67401000D02*
X124431000Y-67401000D01*
X121949000Y-67401000D02*
X118305000Y-67401000D01*
X128064000Y-67441000D02*
X124431000Y-67441000D01*
X121949000Y-67441000D02*
X118316000Y-67441000D01*
X128052000Y-67481000D02*
X124431000Y-67481000D01*
X121949000Y-67481000D02*
X118328000Y-67481000D01*
X128040000Y-67521000D02*
X124431000Y-67521000D01*
X121949000Y-67521000D02*
X118340000Y-67521000D01*
X128027000Y-67561000D02*
X124431000Y-67561000D01*
X121949000Y-67561000D02*
X118353000Y-67561000D01*
X128014000Y-67601000D02*
X124431000Y-67601000D01*
X121949000Y-67601000D02*
X118366000Y-67601000D01*
X128001000Y-67641000D02*
X124431000Y-67641000D01*
X121949000Y-67641000D02*
X118379000Y-67641000D01*
X127987000Y-67681000D02*
X124431000Y-67681000D01*
X121949000Y-67681000D02*
X118393000Y-67681000D01*
X127973000Y-67721000D02*
X124431000Y-67721000D01*
X121949000Y-67721000D02*
X118407000Y-67721000D01*
X127958000Y-67761000D02*
X124431000Y-67761000D01*
X121949000Y-67761000D02*
X118422000Y-67761000D01*
X127944000Y-67801000D02*
X124431000Y-67801000D01*
X121949000Y-67801000D02*
X118436000Y-67801000D01*
X127928000Y-67841000D02*
X124431000Y-67841000D01*
X121949000Y-67841000D02*
X118452000Y-67841000D01*
X127913000Y-67881000D02*
X124431000Y-67881000D01*
X121949000Y-67881000D02*
X118467000Y-67881000D01*
X127897000Y-67921000D02*
X124431000Y-67921000D01*
X121949000Y-67921000D02*
X118483000Y-67921000D01*
X127880000Y-67961000D02*
X124431000Y-67961000D01*
X121949000Y-67961000D02*
X118500000Y-67961000D01*
X127864000Y-68001000D02*
X124431000Y-68001000D01*
X121949000Y-68001000D02*
X118516000Y-68001000D01*
X127847000Y-68041000D02*
X124431000Y-68041000D01*
X121949000Y-68041000D02*
X118533000Y-68041000D01*
X127829000Y-68081000D02*
X124431000Y-68081000D01*
X121949000Y-68081000D02*
X118551000Y-68081000D01*
X127811000Y-68121000D02*
X124431000Y-68121000D01*
X121949000Y-68121000D02*
X118569000Y-68121000D01*
X127793000Y-68161000D02*
X124431000Y-68161000D01*
X121949000Y-68161000D02*
X118587000Y-68161000D01*
X127774000Y-68201000D02*
X124431000Y-68201000D01*
X121949000Y-68201000D02*
X118606000Y-68201000D01*
X127754000Y-68241000D02*
X124431000Y-68241000D01*
X121949000Y-68241000D02*
X118626000Y-68241000D01*
X127735000Y-68281000D02*
X124431000Y-68281000D01*
X121949000Y-68281000D02*
X118645000Y-68281000D01*
X127715000Y-68321000D02*
X124431000Y-68321000D01*
X121949000Y-68321000D02*
X118665000Y-68321000D01*
X127694000Y-68361000D02*
X124431000Y-68361000D01*
X121949000Y-68361000D02*
X118686000Y-68361000D01*
X127673000Y-68401000D02*
X124431000Y-68401000D01*
X121949000Y-68401000D02*
X118707000Y-68401000D01*
X127652000Y-68441000D02*
X124431000Y-68441000D01*
X121949000Y-68441000D02*
X118728000Y-68441000D01*
X127630000Y-68481000D02*
X124431000Y-68481000D01*
X121949000Y-68481000D02*
X118750000Y-68481000D01*
X127607000Y-68521000D02*
X124431000Y-68521000D01*
X121949000Y-68521000D02*
X118773000Y-68521000D01*
X127585000Y-68561000D02*
X124431000Y-68561000D01*
X121949000Y-68561000D02*
X118795000Y-68561000D01*
X127561000Y-68601000D02*
X124431000Y-68601000D01*
X121949000Y-68601000D02*
X118819000Y-68601000D01*
X127537000Y-68641000D02*
X124431000Y-68641000D01*
X121949000Y-68641000D02*
X118843000Y-68641000D01*
X127513000Y-68681000D02*
X124431000Y-68681000D01*
X121949000Y-68681000D02*
X118867000Y-68681000D01*
X127488000Y-68721000D02*
X124431000Y-68721000D01*
X121949000Y-68721000D02*
X118892000Y-68721000D01*
X127463000Y-68761000D02*
X124431000Y-68761000D01*
X121949000Y-68761000D02*
X118917000Y-68761000D01*
X127437000Y-68801000D02*
X124431000Y-68801000D01*
X121949000Y-68801000D02*
X118943000Y-68801000D01*
X127411000Y-68841000D02*
X124431000Y-68841000D01*
X121949000Y-68841000D02*
X118969000Y-68841000D01*
X127384000Y-68881000D02*
X124431000Y-68881000D01*
X121949000Y-68881000D02*
X118996000Y-68881000D01*
X127356000Y-68921000D02*
X124431000Y-68921000D01*
X121949000Y-68921000D02*
X119024000Y-68921000D01*
X127328000Y-68961000D02*
X124431000Y-68961000D01*
X121949000Y-68961000D02*
X119052000Y-68961000D01*
X127300000Y-69001000D02*
X124431000Y-69001000D01*
X121949000Y-69001000D02*
X119080000Y-69001000D01*
X127270000Y-69041000D02*
X124431000Y-69041000D01*
X121949000Y-69041000D02*
X119110000Y-69041000D01*
X127240000Y-69081000D02*
X124431000Y-69081000D01*
X121949000Y-69081000D02*
X119140000Y-69081000D01*
X127210000Y-69121000D02*
X124431000Y-69121000D01*
X121949000Y-69121000D02*
X119170000Y-69121000D01*
X127179000Y-69161000D02*
X124431000Y-69161000D01*
X121949000Y-69161000D02*
X119201000Y-69161000D01*
X127147000Y-69201000D02*
X124431000Y-69201000D01*
X121949000Y-69201000D02*
X119233000Y-69201000D01*
X127115000Y-69241000D02*
X124431000Y-69241000D01*
X121949000Y-69241000D02*
X119265000Y-69241000D01*
X127082000Y-69281000D02*
X124431000Y-69281000D01*
X121949000Y-69281000D02*
X119298000Y-69281000D01*
X127048000Y-69321000D02*
X124431000Y-69321000D01*
X121949000Y-69321000D02*
X119332000Y-69321000D01*
X127014000Y-69361000D02*
X124431000Y-69361000D01*
X121949000Y-69361000D02*
X119366000Y-69361000D01*
X126979000Y-69401000D02*
X124431000Y-69401000D01*
X121949000Y-69401000D02*
X119401000Y-69401000D01*
X126943000Y-69441000D02*
X124431000Y-69441000D01*
X121949000Y-69441000D02*
X119437000Y-69441000D01*
X126906000Y-69481000D02*
X124431000Y-69481000D01*
X121949000Y-69481000D02*
X119474000Y-69481000D01*
X126869000Y-69521000D02*
X124431000Y-69521000D01*
X121949000Y-69521000D02*
X119511000Y-69521000D01*
X126830000Y-69561000D02*
X124431000Y-69561000D01*
X121949000Y-69561000D02*
X119550000Y-69561000D01*
X126791000Y-69601000D02*
X124431000Y-69601000D01*
X121949000Y-69601000D02*
X119589000Y-69601000D01*
X126751000Y-69641000D02*
X124431000Y-69641000D01*
X121949000Y-69641000D02*
X119629000Y-69641000D01*
X126710000Y-69681000D02*
X124431000Y-69681000D01*
X121949000Y-69681000D02*
X119670000Y-69681000D01*
X126668000Y-69721000D02*
X124431000Y-69721000D01*
X121949000Y-69721000D02*
X119712000Y-69721000D01*
X126626000Y-69761000D02*
X119754000Y-69761000D01*
X126582000Y-69801000D02*
X119798000Y-69801000D01*
X126537000Y-69841000D02*
X119843000Y-69841000D01*
X126491000Y-69881000D02*
X119889000Y-69881000D01*
X126444000Y-69921000D02*
X119936000Y-69921000D01*
X126396000Y-69961000D02*
X119984000Y-69961000D01*
X126346000Y-70001000D02*
X120034000Y-70001000D01*
X126296000Y-70041000D02*
X120084000Y-70041000D01*
X126244000Y-70081000D02*
X120136000Y-70081000D01*
X126190000Y-70121000D02*
X120190000Y-70121000D01*
X126135000Y-70161000D02*
X120245000Y-70161000D01*
X126079000Y-70201000D02*
X120301000Y-70201000D01*
X126020000Y-70241000D02*
X120360000Y-70241000D01*
X125960000Y-70281000D02*
X120420000Y-70281000D01*
X125899000Y-70321000D02*
X120481000Y-70321000D01*
X125835000Y-70361000D02*
X120545000Y-70361000D01*
X125769000Y-70401000D02*
X120611000Y-70401000D01*
X125700000Y-70441000D02*
X120680000Y-70441000D01*
X125629000Y-70481000D02*
X120751000Y-70481000D01*
X125555000Y-70521000D02*
X120825000Y-70521000D01*
X125479000Y-70561000D02*
X120901000Y-70561000D01*
X125399000Y-70601000D02*
X120981000Y-70601000D01*
X125315000Y-70641000D02*
X121065000Y-70641000D01*
X125227000Y-70681000D02*
X121153000Y-70681000D01*
X125134000Y-70721000D02*
X121246000Y-70721000D01*
X125036000Y-70761000D02*
X121344000Y-70761000D01*
X124932000Y-70801000D02*
X121448000Y-70801000D01*
X124820000Y-70841000D02*
X121560000Y-70841000D01*
X124700000Y-70881000D02*
X121680000Y-70881000D01*
X124568000Y-70921000D02*
X121812000Y-70921000D01*
X124420000Y-70961000D02*
X121960000Y-70961000D01*
X124252000Y-71001000D02*
X122128000Y-71001000D01*
X124052000Y-71041000D02*
X122328000Y-71041000D01*
X123789000Y-71081000D02*
X122591000Y-71081000D01*
X126065000Y-60520354D02*
X126065000Y-61520354D01*
X126565000Y-61020354D02*
X125565000Y-61020354D01*
X153710000Y-66000000D02*
G75*
G03*
X153710000Y-66000000I-5120000J0D01*
G01*
X153670000Y-66000000D02*
X143510000Y-66000000D01*
X153670000Y-66040000D02*
X143510000Y-66040000D01*
X153670000Y-66080000D02*
X143510000Y-66080000D01*
X153669000Y-66120000D02*
X143511000Y-66120000D01*
X153668000Y-66160000D02*
X143512000Y-66160000D01*
X153667000Y-66200000D02*
X143513000Y-66200000D01*
X153665000Y-66240000D02*
X143515000Y-66240000D01*
X153663000Y-66280000D02*
X143517000Y-66280000D01*
X153660000Y-66320000D02*
X143520000Y-66320000D01*
X153658000Y-66360000D02*
X143522000Y-66360000D01*
X153655000Y-66400000D02*
X143525000Y-66400000D01*
X153652000Y-66440000D02*
X143528000Y-66440000D01*
X153648000Y-66480000D02*
X143532000Y-66480000D01*
X153644000Y-66520000D02*
X143536000Y-66520000D01*
X153640000Y-66560000D02*
X143540000Y-66560000D01*
X153635000Y-66600000D02*
X143545000Y-66600000D01*
X153630000Y-66640000D02*
X143550000Y-66640000D01*
X153625000Y-66680000D02*
X143555000Y-66680000D01*
X153620000Y-66721000D02*
X143560000Y-66721000D01*
X153614000Y-66761000D02*
X143566000Y-66761000D01*
X153608000Y-66801000D02*
X143572000Y-66801000D01*
X153601000Y-66841000D02*
X143579000Y-66841000D01*
X153594000Y-66881000D02*
X143586000Y-66881000D01*
X153587000Y-66921000D02*
X143593000Y-66921000D01*
X153580000Y-66961000D02*
X143600000Y-66961000D01*
X153572000Y-67001000D02*
X143608000Y-67001000D01*
X153564000Y-67041000D02*
X143616000Y-67041000D01*
X153555000Y-67081000D02*
X143625000Y-67081000D01*
X153546000Y-67121000D02*
X143634000Y-67121000D01*
X153537000Y-67161000D02*
X143643000Y-67161000D01*
X153528000Y-67201000D02*
X143652000Y-67201000D01*
X153518000Y-67241000D02*
X143662000Y-67241000D01*
X153508000Y-67281000D02*
X149831000Y-67281000D01*
X147349000Y-67281000D02*
X143672000Y-67281000D01*
X153497000Y-67321000D02*
X149831000Y-67321000D01*
X147349000Y-67321000D02*
X143683000Y-67321000D01*
X153487000Y-67361000D02*
X149831000Y-67361000D01*
X147349000Y-67361000D02*
X143693000Y-67361000D01*
X153475000Y-67401000D02*
X149831000Y-67401000D01*
X147349000Y-67401000D02*
X143705000Y-67401000D01*
X153464000Y-67441000D02*
X149831000Y-67441000D01*
X147349000Y-67441000D02*
X143716000Y-67441000D01*
X153452000Y-67481000D02*
X149831000Y-67481000D01*
X147349000Y-67481000D02*
X143728000Y-67481000D01*
X153440000Y-67521000D02*
X149831000Y-67521000D01*
X147349000Y-67521000D02*
X143740000Y-67521000D01*
X153427000Y-67561000D02*
X149831000Y-67561000D01*
X147349000Y-67561000D02*
X143753000Y-67561000D01*
X153414000Y-67601000D02*
X149831000Y-67601000D01*
X147349000Y-67601000D02*
X143766000Y-67601000D01*
X153401000Y-67641000D02*
X149831000Y-67641000D01*
X147349000Y-67641000D02*
X143779000Y-67641000D01*
X153387000Y-67681000D02*
X149831000Y-67681000D01*
X147349000Y-67681000D02*
X143793000Y-67681000D01*
X153373000Y-67721000D02*
X149831000Y-67721000D01*
X147349000Y-67721000D02*
X143807000Y-67721000D01*
X153358000Y-67761000D02*
X149831000Y-67761000D01*
X147349000Y-67761000D02*
X143822000Y-67761000D01*
X153344000Y-67801000D02*
X149831000Y-67801000D01*
X147349000Y-67801000D02*
X143836000Y-67801000D01*
X153328000Y-67841000D02*
X149831000Y-67841000D01*
X147349000Y-67841000D02*
X143852000Y-67841000D01*
X153313000Y-67881000D02*
X149831000Y-67881000D01*
X147349000Y-67881000D02*
X143867000Y-67881000D01*
X153297000Y-67921000D02*
X149831000Y-67921000D01*
X147349000Y-67921000D02*
X143883000Y-67921000D01*
X153280000Y-67961000D02*
X149831000Y-67961000D01*
X147349000Y-67961000D02*
X143900000Y-67961000D01*
X153264000Y-68001000D02*
X149831000Y-68001000D01*
X147349000Y-68001000D02*
X143916000Y-68001000D01*
X153247000Y-68041000D02*
X149831000Y-68041000D01*
X147349000Y-68041000D02*
X143933000Y-68041000D01*
X153229000Y-68081000D02*
X149831000Y-68081000D01*
X147349000Y-68081000D02*
X143951000Y-68081000D01*
X153211000Y-68121000D02*
X149831000Y-68121000D01*
X147349000Y-68121000D02*
X143969000Y-68121000D01*
X153193000Y-68161000D02*
X149831000Y-68161000D01*
X147349000Y-68161000D02*
X143987000Y-68161000D01*
X153174000Y-68201000D02*
X149831000Y-68201000D01*
X147349000Y-68201000D02*
X144006000Y-68201000D01*
X153154000Y-68241000D02*
X149831000Y-68241000D01*
X147349000Y-68241000D02*
X144026000Y-68241000D01*
X153135000Y-68281000D02*
X149831000Y-68281000D01*
X147349000Y-68281000D02*
X144045000Y-68281000D01*
X153115000Y-68321000D02*
X149831000Y-68321000D01*
X147349000Y-68321000D02*
X144065000Y-68321000D01*
X153094000Y-68361000D02*
X149831000Y-68361000D01*
X147349000Y-68361000D02*
X144086000Y-68361000D01*
X153073000Y-68401000D02*
X149831000Y-68401000D01*
X147349000Y-68401000D02*
X144107000Y-68401000D01*
X153052000Y-68441000D02*
X149831000Y-68441000D01*
X147349000Y-68441000D02*
X144128000Y-68441000D01*
X153030000Y-68481000D02*
X149831000Y-68481000D01*
X147349000Y-68481000D02*
X144150000Y-68481000D01*
X153007000Y-68521000D02*
X149831000Y-68521000D01*
X147349000Y-68521000D02*
X144173000Y-68521000D01*
X152985000Y-68561000D02*
X149831000Y-68561000D01*
X147349000Y-68561000D02*
X144195000Y-68561000D01*
X152961000Y-68601000D02*
X149831000Y-68601000D01*
X147349000Y-68601000D02*
X144219000Y-68601000D01*
X152937000Y-68641000D02*
X149831000Y-68641000D01*
X147349000Y-68641000D02*
X144243000Y-68641000D01*
X152913000Y-68681000D02*
X149831000Y-68681000D01*
X147349000Y-68681000D02*
X144267000Y-68681000D01*
X152888000Y-68721000D02*
X149831000Y-68721000D01*
X147349000Y-68721000D02*
X144292000Y-68721000D01*
X152863000Y-68761000D02*
X149831000Y-68761000D01*
X147349000Y-68761000D02*
X144317000Y-68761000D01*
X152837000Y-68801000D02*
X149831000Y-68801000D01*
X147349000Y-68801000D02*
X144343000Y-68801000D01*
X152811000Y-68841000D02*
X149831000Y-68841000D01*
X147349000Y-68841000D02*
X144369000Y-68841000D01*
X152784000Y-68881000D02*
X149831000Y-68881000D01*
X147349000Y-68881000D02*
X144396000Y-68881000D01*
X152756000Y-68921000D02*
X149831000Y-68921000D01*
X147349000Y-68921000D02*
X144424000Y-68921000D01*
X152728000Y-68961000D02*
X149831000Y-68961000D01*
X147349000Y-68961000D02*
X144452000Y-68961000D01*
X152700000Y-69001000D02*
X149831000Y-69001000D01*
X147349000Y-69001000D02*
X144480000Y-69001000D01*
X152670000Y-69041000D02*
X149831000Y-69041000D01*
X147349000Y-69041000D02*
X144510000Y-69041000D01*
X152640000Y-69081000D02*
X149831000Y-69081000D01*
X147349000Y-69081000D02*
X144540000Y-69081000D01*
X152610000Y-69121000D02*
X149831000Y-69121000D01*
X147349000Y-69121000D02*
X144570000Y-69121000D01*
X152579000Y-69161000D02*
X149831000Y-69161000D01*
X147349000Y-69161000D02*
X144601000Y-69161000D01*
X152547000Y-69201000D02*
X149831000Y-69201000D01*
X147349000Y-69201000D02*
X144633000Y-69201000D01*
X152515000Y-69241000D02*
X149831000Y-69241000D01*
X147349000Y-69241000D02*
X144665000Y-69241000D01*
X152482000Y-69281000D02*
X149831000Y-69281000D01*
X147349000Y-69281000D02*
X144698000Y-69281000D01*
X152448000Y-69321000D02*
X149831000Y-69321000D01*
X147349000Y-69321000D02*
X144732000Y-69321000D01*
X152414000Y-69361000D02*
X149831000Y-69361000D01*
X147349000Y-69361000D02*
X144766000Y-69361000D01*
X152379000Y-69401000D02*
X149831000Y-69401000D01*
X147349000Y-69401000D02*
X144801000Y-69401000D01*
X152343000Y-69441000D02*
X149831000Y-69441000D01*
X147349000Y-69441000D02*
X144837000Y-69441000D01*
X152306000Y-69481000D02*
X149831000Y-69481000D01*
X147349000Y-69481000D02*
X144874000Y-69481000D01*
X152269000Y-69521000D02*
X149831000Y-69521000D01*
X147349000Y-69521000D02*
X144911000Y-69521000D01*
X152230000Y-69561000D02*
X149831000Y-69561000D01*
X147349000Y-69561000D02*
X144950000Y-69561000D01*
X152191000Y-69601000D02*
X149831000Y-69601000D01*
X147349000Y-69601000D02*
X144989000Y-69601000D01*
X152151000Y-69641000D02*
X149831000Y-69641000D01*
X147349000Y-69641000D02*
X145029000Y-69641000D01*
X152110000Y-69681000D02*
X149831000Y-69681000D01*
X147349000Y-69681000D02*
X145070000Y-69681000D01*
X152068000Y-69721000D02*
X149831000Y-69721000D01*
X147349000Y-69721000D02*
X145112000Y-69721000D01*
X152026000Y-69761000D02*
X145154000Y-69761000D01*
X151982000Y-69801000D02*
X145198000Y-69801000D01*
X151937000Y-69841000D02*
X145243000Y-69841000D01*
X151891000Y-69881000D02*
X145289000Y-69881000D01*
X151844000Y-69921000D02*
X145336000Y-69921000D01*
X151796000Y-69961000D02*
X145384000Y-69961000D01*
X151746000Y-70001000D02*
X145434000Y-70001000D01*
X151696000Y-70041000D02*
X145484000Y-70041000D01*
X151644000Y-70081000D02*
X145536000Y-70081000D01*
X151590000Y-70121000D02*
X145590000Y-70121000D01*
X151535000Y-70161000D02*
X145645000Y-70161000D01*
X151479000Y-70201000D02*
X145701000Y-70201000D01*
X151420000Y-70241000D02*
X145760000Y-70241000D01*
X151360000Y-70281000D02*
X145820000Y-70281000D01*
X151299000Y-70321000D02*
X145881000Y-70321000D01*
X151235000Y-70361000D02*
X145945000Y-70361000D01*
X151169000Y-70401000D02*
X146011000Y-70401000D01*
X151100000Y-70441000D02*
X146080000Y-70441000D01*
X151029000Y-70481000D02*
X146151000Y-70481000D01*
X150955000Y-70521000D02*
X146225000Y-70521000D01*
X150879000Y-70561000D02*
X146301000Y-70561000D01*
X150799000Y-70601000D02*
X146381000Y-70601000D01*
X150715000Y-70641000D02*
X146465000Y-70641000D01*
X150627000Y-70681000D02*
X146553000Y-70681000D01*
X150534000Y-70721000D02*
X146646000Y-70721000D01*
X150436000Y-70761000D02*
X146744000Y-70761000D01*
X150332000Y-70801000D02*
X146848000Y-70801000D01*
X150220000Y-70841000D02*
X146960000Y-70841000D01*
X150100000Y-70881000D02*
X147080000Y-70881000D01*
X149968000Y-70921000D02*
X147212000Y-70921000D01*
X149820000Y-70961000D02*
X147360000Y-70961000D01*
X149652000Y-71001000D02*
X147528000Y-71001000D01*
X149452000Y-71041000D02*
X147728000Y-71041000D01*
X149189000Y-71081000D02*
X147991000Y-71081000D01*
X151465000Y-60520354D02*
X151465000Y-61520354D01*
X151965000Y-61020354D02*
X150965000Y-61020354D01*
X139265000Y-61020354D02*
X138265000Y-61020354D01*
X138765000Y-60520354D02*
X138765000Y-61520354D01*
X136489000Y-71081000D02*
X135291000Y-71081000D01*
X136752000Y-71041000D02*
X135028000Y-71041000D01*
X136952000Y-71001000D02*
X134828000Y-71001000D01*
X137120000Y-70961000D02*
X134660000Y-70961000D01*
X137268000Y-70921000D02*
X134512000Y-70921000D01*
X137400000Y-70881000D02*
X134380000Y-70881000D01*
X137520000Y-70841000D02*
X134260000Y-70841000D01*
X137632000Y-70801000D02*
X134148000Y-70801000D01*
X137736000Y-70761000D02*
X134044000Y-70761000D01*
X137834000Y-70721000D02*
X133946000Y-70721000D01*
X137927000Y-70681000D02*
X133853000Y-70681000D01*
X138015000Y-70641000D02*
X133765000Y-70641000D01*
X138099000Y-70601000D02*
X133681000Y-70601000D01*
X138179000Y-70561000D02*
X133601000Y-70561000D01*
X138255000Y-70521000D02*
X133525000Y-70521000D01*
X138329000Y-70481000D02*
X133451000Y-70481000D01*
X138400000Y-70441000D02*
X133380000Y-70441000D01*
X138469000Y-70401000D02*
X133311000Y-70401000D01*
X138535000Y-70361000D02*
X133245000Y-70361000D01*
X138599000Y-70321000D02*
X133181000Y-70321000D01*
X138660000Y-70281000D02*
X133120000Y-70281000D01*
X138720000Y-70241000D02*
X133060000Y-70241000D01*
X138779000Y-70201000D02*
X133001000Y-70201000D01*
X138835000Y-70161000D02*
X132945000Y-70161000D01*
X138890000Y-70121000D02*
X132890000Y-70121000D01*
X138944000Y-70081000D02*
X132836000Y-70081000D01*
X138996000Y-70041000D02*
X132784000Y-70041000D01*
X139046000Y-70001000D02*
X132734000Y-70001000D01*
X139096000Y-69961000D02*
X132684000Y-69961000D01*
X139144000Y-69921000D02*
X132636000Y-69921000D01*
X139191000Y-69881000D02*
X132589000Y-69881000D01*
X139237000Y-69841000D02*
X132543000Y-69841000D01*
X139282000Y-69801000D02*
X132498000Y-69801000D01*
X139326000Y-69761000D02*
X132454000Y-69761000D01*
X134649000Y-69721000D02*
X132412000Y-69721000D01*
X139368000Y-69721000D02*
X137131000Y-69721000D01*
X134649000Y-69681000D02*
X132370000Y-69681000D01*
X139410000Y-69681000D02*
X137131000Y-69681000D01*
X134649000Y-69641000D02*
X132329000Y-69641000D01*
X139451000Y-69641000D02*
X137131000Y-69641000D01*
X134649000Y-69601000D02*
X132289000Y-69601000D01*
X139491000Y-69601000D02*
X137131000Y-69601000D01*
X134649000Y-69561000D02*
X132250000Y-69561000D01*
X139530000Y-69561000D02*
X137131000Y-69561000D01*
X134649000Y-69521000D02*
X132211000Y-69521000D01*
X139569000Y-69521000D02*
X137131000Y-69521000D01*
X134649000Y-69481000D02*
X132174000Y-69481000D01*
X139606000Y-69481000D02*
X137131000Y-69481000D01*
X134649000Y-69441000D02*
X132137000Y-69441000D01*
X139643000Y-69441000D02*
X137131000Y-69441000D01*
X134649000Y-69401000D02*
X132101000Y-69401000D01*
X139679000Y-69401000D02*
X137131000Y-69401000D01*
X134649000Y-69361000D02*
X132066000Y-69361000D01*
X139714000Y-69361000D02*
X137131000Y-69361000D01*
X134649000Y-69321000D02*
X132032000Y-69321000D01*
X139748000Y-69321000D02*
X137131000Y-69321000D01*
X134649000Y-69281000D02*
X131998000Y-69281000D01*
X139782000Y-69281000D02*
X137131000Y-69281000D01*
X134649000Y-69241000D02*
X131965000Y-69241000D01*
X139815000Y-69241000D02*
X137131000Y-69241000D01*
X134649000Y-69201000D02*
X131933000Y-69201000D01*
X139847000Y-69201000D02*
X137131000Y-69201000D01*
X134649000Y-69161000D02*
X131901000Y-69161000D01*
X139879000Y-69161000D02*
X137131000Y-69161000D01*
X134649000Y-69121000D02*
X131870000Y-69121000D01*
X139910000Y-69121000D02*
X137131000Y-69121000D01*
X134649000Y-69081000D02*
X131840000Y-69081000D01*
X139940000Y-69081000D02*
X137131000Y-69081000D01*
X134649000Y-69041000D02*
X131810000Y-69041000D01*
X139970000Y-69041000D02*
X137131000Y-69041000D01*
X134649000Y-69001000D02*
X131780000Y-69001000D01*
X140000000Y-69001000D02*
X137131000Y-69001000D01*
X134649000Y-68961000D02*
X131752000Y-68961000D01*
X140028000Y-68961000D02*
X137131000Y-68961000D01*
X134649000Y-68921000D02*
X131724000Y-68921000D01*
X140056000Y-68921000D02*
X137131000Y-68921000D01*
X134649000Y-68881000D02*
X131696000Y-68881000D01*
X140084000Y-68881000D02*
X137131000Y-68881000D01*
X134649000Y-68841000D02*
X131669000Y-68841000D01*
X140111000Y-68841000D02*
X137131000Y-68841000D01*
X134649000Y-68801000D02*
X131643000Y-68801000D01*
X140137000Y-68801000D02*
X137131000Y-68801000D01*
X134649000Y-68761000D02*
X131617000Y-68761000D01*
X140163000Y-68761000D02*
X137131000Y-68761000D01*
X134649000Y-68721000D02*
X131592000Y-68721000D01*
X140188000Y-68721000D02*
X137131000Y-68721000D01*
X134649000Y-68681000D02*
X131567000Y-68681000D01*
X140213000Y-68681000D02*
X137131000Y-68681000D01*
X134649000Y-68641000D02*
X131543000Y-68641000D01*
X140237000Y-68641000D02*
X137131000Y-68641000D01*
X134649000Y-68601000D02*
X131519000Y-68601000D01*
X140261000Y-68601000D02*
X137131000Y-68601000D01*
X134649000Y-68561000D02*
X131495000Y-68561000D01*
X140285000Y-68561000D02*
X137131000Y-68561000D01*
X134649000Y-68521000D02*
X131473000Y-68521000D01*
X140307000Y-68521000D02*
X137131000Y-68521000D01*
X134649000Y-68481000D02*
X131450000Y-68481000D01*
X140330000Y-68481000D02*
X137131000Y-68481000D01*
X134649000Y-68441000D02*
X131428000Y-68441000D01*
X140352000Y-68441000D02*
X137131000Y-68441000D01*
X134649000Y-68401000D02*
X131407000Y-68401000D01*
X140373000Y-68401000D02*
X137131000Y-68401000D01*
X134649000Y-68361000D02*
X131386000Y-68361000D01*
X140394000Y-68361000D02*
X137131000Y-68361000D01*
X134649000Y-68321000D02*
X131365000Y-68321000D01*
X140415000Y-68321000D02*
X137131000Y-68321000D01*
X134649000Y-68281000D02*
X131345000Y-68281000D01*
X140435000Y-68281000D02*
X137131000Y-68281000D01*
X134649000Y-68241000D02*
X131326000Y-68241000D01*
X140454000Y-68241000D02*
X137131000Y-68241000D01*
X134649000Y-68201000D02*
X131306000Y-68201000D01*
X140474000Y-68201000D02*
X137131000Y-68201000D01*
X134649000Y-68161000D02*
X131287000Y-68161000D01*
X140493000Y-68161000D02*
X137131000Y-68161000D01*
X134649000Y-68121000D02*
X131269000Y-68121000D01*
X140511000Y-68121000D02*
X137131000Y-68121000D01*
X134649000Y-68081000D02*
X131251000Y-68081000D01*
X140529000Y-68081000D02*
X137131000Y-68081000D01*
X134649000Y-68041000D02*
X131233000Y-68041000D01*
X140547000Y-68041000D02*
X137131000Y-68041000D01*
X134649000Y-68001000D02*
X131216000Y-68001000D01*
X140564000Y-68001000D02*
X137131000Y-68001000D01*
X134649000Y-67961000D02*
X131200000Y-67961000D01*
X140580000Y-67961000D02*
X137131000Y-67961000D01*
X134649000Y-67921000D02*
X131183000Y-67921000D01*
X140597000Y-67921000D02*
X137131000Y-67921000D01*
X134649000Y-67881000D02*
X131167000Y-67881000D01*
X140613000Y-67881000D02*
X137131000Y-67881000D01*
X134649000Y-67841000D02*
X131152000Y-67841000D01*
X140628000Y-67841000D02*
X137131000Y-67841000D01*
X134649000Y-67801000D02*
X131136000Y-67801000D01*
X140644000Y-67801000D02*
X137131000Y-67801000D01*
X134649000Y-67761000D02*
X131122000Y-67761000D01*
X140658000Y-67761000D02*
X137131000Y-67761000D01*
X134649000Y-67721000D02*
X131107000Y-67721000D01*
X140673000Y-67721000D02*
X137131000Y-67721000D01*
X134649000Y-67681000D02*
X131093000Y-67681000D01*
X140687000Y-67681000D02*
X137131000Y-67681000D01*
X134649000Y-67641000D02*
X131079000Y-67641000D01*
X140701000Y-67641000D02*
X137131000Y-67641000D01*
X134649000Y-67601000D02*
X131066000Y-67601000D01*
X140714000Y-67601000D02*
X137131000Y-67601000D01*
X134649000Y-67561000D02*
X131053000Y-67561000D01*
X140727000Y-67561000D02*
X137131000Y-67561000D01*
X134649000Y-67521000D02*
X131040000Y-67521000D01*
X140740000Y-67521000D02*
X137131000Y-67521000D01*
X134649000Y-67481000D02*
X131028000Y-67481000D01*
X140752000Y-67481000D02*
X137131000Y-67481000D01*
X134649000Y-67441000D02*
X131016000Y-67441000D01*
X140764000Y-67441000D02*
X137131000Y-67441000D01*
X134649000Y-67401000D02*
X131005000Y-67401000D01*
X140775000Y-67401000D02*
X137131000Y-67401000D01*
X134649000Y-67361000D02*
X130993000Y-67361000D01*
X140787000Y-67361000D02*
X137131000Y-67361000D01*
X134649000Y-67321000D02*
X130983000Y-67321000D01*
X140797000Y-67321000D02*
X137131000Y-67321000D01*
X134649000Y-67281000D02*
X130972000Y-67281000D01*
X140808000Y-67281000D02*
X137131000Y-67281000D01*
X140818000Y-67241000D02*
X130962000Y-67241000D01*
X140828000Y-67201000D02*
X130952000Y-67201000D01*
X140837000Y-67161000D02*
X130943000Y-67161000D01*
X140846000Y-67121000D02*
X130934000Y-67121000D01*
X140855000Y-67081000D02*
X130925000Y-67081000D01*
X140864000Y-67041000D02*
X130916000Y-67041000D01*
X140872000Y-67001000D02*
X130908000Y-67001000D01*
X140880000Y-66961000D02*
X130900000Y-66961000D01*
X140887000Y-66921000D02*
X130893000Y-66921000D01*
X140894000Y-66881000D02*
X130886000Y-66881000D01*
X140901000Y-66841000D02*
X130879000Y-66841000D01*
X140908000Y-66801000D02*
X130872000Y-66801000D01*
X140914000Y-66761000D02*
X130866000Y-66761000D01*
X140920000Y-66721000D02*
X130860000Y-66721000D01*
X140925000Y-66680000D02*
X130855000Y-66680000D01*
X140930000Y-66640000D02*
X130850000Y-66640000D01*
X140935000Y-66600000D02*
X130845000Y-66600000D01*
X140940000Y-66560000D02*
X130840000Y-66560000D01*
X140944000Y-66520000D02*
X130836000Y-66520000D01*
X140948000Y-66480000D02*
X130832000Y-66480000D01*
X140952000Y-66440000D02*
X130828000Y-66440000D01*
X140955000Y-66400000D02*
X130825000Y-66400000D01*
X140958000Y-66360000D02*
X130822000Y-66360000D01*
X140960000Y-66320000D02*
X130820000Y-66320000D01*
X140963000Y-66280000D02*
X130817000Y-66280000D01*
X140965000Y-66240000D02*
X130815000Y-66240000D01*
X140967000Y-66200000D02*
X130813000Y-66200000D01*
X140968000Y-66160000D02*
X130812000Y-66160000D01*
X140969000Y-66120000D02*
X130811000Y-66120000D01*
X140970000Y-66080000D02*
X130810000Y-66080000D01*
X140970000Y-66040000D02*
X130810000Y-66040000D01*
X140970000Y-66000000D02*
X130810000Y-66000000D01*
X141010000Y-66000000D02*
G75*
G03*
X141010000Y-66000000I-5120000J0D01*
G01*
X105350000Y-72958000D02*
X108010000Y-72958000D01*
X105350000Y-65278000D02*
X105350000Y-72958000D01*
X108010000Y-65278000D02*
X108010000Y-72958000D01*
X105350000Y-65278000D02*
X108010000Y-65278000D01*
X105350000Y-64008000D02*
X105350000Y-62678000D01*
X105350000Y-62678000D02*
X106680000Y-62678000D01*
X114360000Y-70358000D02*
X111700000Y-70358000D01*
X114360000Y-70358000D02*
X114360000Y-62678000D01*
X114360000Y-62678000D02*
X111700000Y-62678000D01*
X111700000Y-70358000D02*
X111700000Y-62678000D01*
X111700000Y-72958000D02*
X111700000Y-71628000D01*
X113030000Y-72958000D02*
X111700000Y-72958000D01*
X99000000Y-72958000D02*
X101660000Y-72958000D01*
X99000000Y-67818000D02*
X99000000Y-72958000D01*
X101660000Y-67818000D02*
X101660000Y-72958000D01*
X99000000Y-67818000D02*
X101660000Y-67818000D01*
X99000000Y-66548000D02*
X99000000Y-65218000D01*
X99000000Y-65218000D02*
X100330000Y-65218000D01*
X123190000Y-38100000D02*
X133350000Y-38100000D01*
X123190000Y-36830000D02*
X123190000Y-44450000D01*
X123190000Y-44450000D02*
X133350000Y-44450000D01*
X133350000Y-44450000D02*
X133350000Y-36830000D01*
X133350000Y-36830000D02*
X123190000Y-36830000D01*
X143510000Y-40894000D02*
X143510000Y-36830000D01*
X143510000Y-36830000D02*
X140462000Y-36830000D01*
X143510000Y-57150000D02*
X151130000Y-57150000D01*
X143510000Y-57150000D02*
X135890000Y-57150000D01*
X135890000Y-57150000D02*
X135890000Y-36830000D01*
X135890000Y-36830000D02*
X140462000Y-36830000D01*
X140462000Y-36830000D02*
X143510000Y-36830000D01*
X143510000Y-36830000D02*
X150622000Y-36830000D01*
X151130000Y-57150000D02*
X151130000Y-36830000D01*
X151130000Y-36830000D02*
X150622000Y-36830000D01*
X79926000Y-60027999D02*
X120226000Y-60028000D01*
X120226000Y-60028000D02*
X120226000Y-37508001D01*
X120226000Y-37508001D02*
X79926000Y-37508000D01*
X79926000Y-37508000D02*
X79926000Y-45014667D01*
X79926000Y-45014667D02*
X80286000Y-45014667D01*
X80286000Y-45014667D02*
X80286000Y-52521333D01*
X80286000Y-52521333D02*
X79926000Y-52521333D01*
X79926000Y-52521333D02*
X79926000Y-60027999D01*
D11*
X82945000Y-63675000D02*
X79245000Y-63675000D01*
X79245000Y-63675000D02*
X79245000Y-64175000D01*
X79245000Y-64175000D02*
X79245000Y-68425000D01*
X79245000Y-64175000D02*
X77745000Y-64175000D01*
X77745000Y-64175000D02*
X77745000Y-69175000D01*
X77745000Y-69175000D02*
X78445000Y-69175000D01*
X84145000Y-69675000D02*
X90245000Y-69675000D01*
X93795000Y-69675000D02*
X94745000Y-69675000D01*
X94745000Y-63675000D02*
X86045000Y-63675000D01*
D12*
X78195000Y-70425000D02*
G75*
G03*
X78195000Y-70425000I-200000J0D01*
G01*
D11*
X94745000Y-67775000D02*
X94745000Y-69675000D01*
X94745000Y-63675000D02*
X94745000Y-64125000D01*
D13*
X129797142Y-66166666D02*
X129844761Y-66214285D01*
X129892380Y-66357142D01*
X129892380Y-66452380D01*
X129844761Y-66595238D01*
X129749523Y-66690476D01*
X129654285Y-66738095D01*
X129463809Y-66785714D01*
X129320952Y-66785714D01*
X129130476Y-66738095D01*
X129035238Y-66690476D01*
X128940000Y-66595238D01*
X128892380Y-66452380D01*
X128892380Y-66357142D01*
X128940000Y-66214285D01*
X128987619Y-66166666D01*
X129892380Y-65214285D02*
X129892380Y-65785714D01*
X129892380Y-65500000D02*
X128892380Y-65500000D01*
X129035238Y-65595238D01*
X129130476Y-65690476D01*
X129178095Y-65785714D01*
X155197142Y-66166666D02*
X155244761Y-66214285D01*
X155292380Y-66357142D01*
X155292380Y-66452380D01*
X155244761Y-66595238D01*
X155149523Y-66690476D01*
X155054285Y-66738095D01*
X154863809Y-66785714D01*
X154720952Y-66785714D01*
X154530476Y-66738095D01*
X154435238Y-66690476D01*
X154340000Y-66595238D01*
X154292380Y-66452380D01*
X154292380Y-66357142D01*
X154340000Y-66214285D01*
X154387619Y-66166666D01*
X154387619Y-65785714D02*
X154340000Y-65738095D01*
X154292380Y-65642857D01*
X154292380Y-65404761D01*
X154340000Y-65309523D01*
X154387619Y-65261904D01*
X154482857Y-65214285D01*
X154578095Y-65214285D01*
X154720952Y-65261904D01*
X155292380Y-65833333D01*
X155292380Y-65214285D01*
X142497142Y-66166666D02*
X142544761Y-66214285D01*
X142592380Y-66357142D01*
X142592380Y-66452380D01*
X142544761Y-66595238D01*
X142449523Y-66690476D01*
X142354285Y-66738095D01*
X142163809Y-66785714D01*
X142020952Y-66785714D01*
X141830476Y-66738095D01*
X141735238Y-66690476D01*
X141640000Y-66595238D01*
X141592380Y-66452380D01*
X141592380Y-66357142D01*
X141640000Y-66214285D01*
X141687619Y-66166666D01*
X141592380Y-65833333D02*
X141592380Y-65214285D01*
X141973333Y-65547619D01*
X141973333Y-65404761D01*
X142020952Y-65309523D01*
X142068571Y-65261904D01*
X142163809Y-65214285D01*
X142401904Y-65214285D01*
X142497142Y-65261904D01*
X142544761Y-65309523D01*
X142592380Y-65404761D01*
X142592380Y-65690476D01*
X142544761Y-65785714D01*
X142497142Y-65833333D01*
X106346666Y-60920380D02*
X106346666Y-61634666D01*
X106299047Y-61777523D01*
X106203809Y-61872761D01*
X106060952Y-61920380D01*
X105965714Y-61920380D01*
X107346666Y-61920380D02*
X106775238Y-61920380D01*
X107060952Y-61920380D02*
X107060952Y-60920380D01*
X106965714Y-61063238D01*
X106870476Y-61158476D01*
X106775238Y-61206095D01*
X112696666Y-60920380D02*
X112696666Y-61634666D01*
X112649047Y-61777523D01*
X112553809Y-61872761D01*
X112410952Y-61920380D01*
X112315714Y-61920380D01*
X113125238Y-61015619D02*
X113172857Y-60968000D01*
X113268095Y-60920380D01*
X113506190Y-60920380D01*
X113601428Y-60968000D01*
X113649047Y-61015619D01*
X113696666Y-61110857D01*
X113696666Y-61206095D01*
X113649047Y-61348952D01*
X113077619Y-61920380D01*
X113696666Y-61920380D01*
X99996666Y-63460380D02*
X99996666Y-64174666D01*
X99949047Y-64317523D01*
X99853809Y-64412761D01*
X99710952Y-64460380D01*
X99615714Y-64460380D01*
X100377619Y-63460380D02*
X100996666Y-63460380D01*
X100663333Y-63841333D01*
X100806190Y-63841333D01*
X100901428Y-63888952D01*
X100949047Y-63936571D01*
X100996666Y-64031809D01*
X100996666Y-64269904D01*
X100949047Y-64365142D01*
X100901428Y-64412761D01*
X100806190Y-64460380D01*
X100520476Y-64460380D01*
X100425238Y-64412761D01*
X100377619Y-64365142D01*
X127936666Y-45172380D02*
X127936666Y-45886666D01*
X127889047Y-46029523D01*
X127793809Y-46124761D01*
X127650952Y-46172380D01*
X127555714Y-46172380D01*
X128841428Y-45505714D02*
X128841428Y-46172380D01*
X128603333Y-45124761D02*
X128365238Y-45839047D01*
X128984285Y-45839047D01*
X142176666Y-35710761D02*
X142319523Y-35758380D01*
X142557619Y-35758380D01*
X142652857Y-35710761D01*
X142700476Y-35663142D01*
X142748095Y-35567904D01*
X142748095Y-35472666D01*
X142700476Y-35377428D01*
X142652857Y-35329809D01*
X142557619Y-35282190D01*
X142367142Y-35234571D01*
X142271904Y-35186952D01*
X142224285Y-35139333D01*
X142176666Y-35044095D01*
X142176666Y-34948857D01*
X142224285Y-34853619D01*
X142271904Y-34806000D01*
X142367142Y-34758380D01*
X142605238Y-34758380D01*
X142748095Y-34806000D01*
X143081428Y-34758380D02*
X143319523Y-35758380D01*
X143510000Y-35044095D01*
X143700476Y-35758380D01*
X143938571Y-34758380D01*
X144271904Y-34853619D02*
X144319523Y-34806000D01*
X144414761Y-34758380D01*
X144652857Y-34758380D01*
X144748095Y-34806000D01*
X144795714Y-34853619D01*
X144843333Y-34948857D01*
X144843333Y-35044095D01*
X144795714Y-35186952D01*
X144224285Y-35758380D01*
X144843333Y-35758380D01*
X78378380Y-49529904D02*
X79187904Y-49529904D01*
X79283142Y-49482285D01*
X79330761Y-49434666D01*
X79378380Y-49339428D01*
X79378380Y-49148952D01*
X79330761Y-49053714D01*
X79283142Y-49006095D01*
X79187904Y-48958476D01*
X78378380Y-48958476D01*
X79378380Y-47958476D02*
X79378380Y-48529904D01*
X79378380Y-48244190D02*
X78378380Y-48244190D01*
X78521238Y-48339428D01*
X78616476Y-48434666D01*
X78664095Y-48529904D01*
D14*
X82063840Y-59710127D02*
X82063840Y-60427737D01*
X82015999Y-60571259D01*
X81920318Y-60666940D01*
X81776796Y-60714781D01*
X81681115Y-60714781D01*
X83020653Y-59710127D02*
X82542247Y-59710127D01*
X82494406Y-60188534D01*
X82542247Y-60140693D01*
X82637928Y-60092852D01*
X82877131Y-60092852D01*
X82972813Y-60140693D01*
X83020653Y-60188534D01*
X83068494Y-60284215D01*
X83068494Y-60523418D01*
X83020653Y-60619100D01*
X82972813Y-60666940D01*
X82877131Y-60714781D01*
X82637928Y-60714781D01*
X82542247Y-60666940D01*
X82494406Y-60619100D01*
%LPC*%
D15*
X154940000Y-70866000D03*
X154940000Y-36830000D03*
X80010000Y-36830000D03*
D16*
X123190000Y-63500000D03*
D17*
X123190000Y-68500000D03*
D16*
X148590000Y-63500000D03*
D17*
X148590000Y-68500000D03*
X135890000Y-68500000D03*
D16*
X135890000Y-63500000D03*
D18*
X106680000Y-64008000D03*
D19*
X106680000Y-66548000D03*
X106680000Y-69088000D03*
X106680000Y-71628000D03*
D18*
X113030000Y-71628000D03*
D19*
X113030000Y-69088000D03*
X113030000Y-66548000D03*
X113030000Y-64008000D03*
D18*
X100330000Y-66548000D03*
D19*
X100330000Y-69088000D03*
X100330000Y-71628000D03*
D20*
X130810000Y-40640000D03*
D21*
X125730000Y-40640000D03*
D22*
X143510000Y-48006000D03*
X143510000Y-40894000D03*
D23*
X81026000Y-58928000D03*
X83566000Y-58928000D03*
X86106000Y-58928000D03*
X88646000Y-58928000D03*
X91186000Y-38608000D03*
X91186000Y-58928000D03*
X93726000Y-38608000D03*
X93726000Y-58928000D03*
X96266000Y-38608000D03*
X96266000Y-58928000D03*
X98806000Y-38608000D03*
X98806000Y-58928000D03*
X101346000Y-38608000D03*
X101346000Y-58928000D03*
X103886000Y-38608000D03*
X103886000Y-58928000D03*
X106426000Y-38608000D03*
X106426000Y-58928000D03*
X108966000Y-38608000D03*
X108966000Y-58928000D03*
X111506000Y-38608000D03*
X111506000Y-58928000D03*
X114046000Y-38608000D03*
X114046000Y-58928000D03*
X116586000Y-38608000D03*
X116586000Y-58928000D03*
X119126000Y-38608000D03*
X119126000Y-58928000D03*
D24*
X79845000Y-70375000D03*
D25*
X92045000Y-70275000D03*
D26*
X84545000Y-62975000D03*
X82645000Y-70375000D03*
D27*
X83745000Y-66675000D03*
X90745000Y-66675000D03*
D28*
X96045000Y-65925000D03*
M02*
