G04 #@! TF.GenerationSoftware,KiCad,Pcbnew,(5.1.7)-1*
G04 #@! TF.CreationDate,2021-05-02T01:56:36-07:00*
G04 #@! TF.ProjectId,computer_rgb_controller,636f6d70-7574-4657-925f-7267625f636f,rev?*
G04 #@! TF.SameCoordinates,Original*
G04 #@! TF.FileFunction,Soldermask,Top*
G04 #@! TF.FilePolarity,Negative*
%FSLAX46Y46*%
G04 Gerber Fmt 4.6, Leading zero omitted, Abs format (unit mm)*
G04 Created by KiCad (PCBNEW (5.1.7)-1) date 2021-05-02 01:56:36*
%MOMM*%
%LPD*%
G01*
G04 APERTURE LIST*
%ADD10C,2.200000*%
%ADD11R,2.000000X2.000000*%
%ADD12C,2.000000*%
%ADD13R,1.700000X1.700000*%
%ADD14O,1.700000X1.700000*%
%ADD15R,3.000000X3.000000*%
%ADD16C,3.000000*%
%ADD17O,8.000000X2.000000*%
%ADD18C,1.200000*%
%ADD19R,2.000000X2.800000*%
%ADD20R,2.800000X2.600000*%
%ADD21R,2.200000X2.800000*%
%ADD22C,1.700000*%
%ADD23R,2.800000X2.800000*%
G04 APERTURE END LIST*
D10*
X154940000Y-70866000D03*
X154940000Y-36830000D03*
X80010000Y-36830000D03*
D11*
X123190000Y-63500000D03*
D12*
X123190000Y-68500000D03*
D11*
X148590000Y-63500000D03*
D12*
X148590000Y-68500000D03*
X135890000Y-68500000D03*
D11*
X135890000Y-63500000D03*
D13*
X106680000Y-64008000D03*
D14*
X106680000Y-66548000D03*
X106680000Y-69088000D03*
X106680000Y-71628000D03*
D13*
X113030000Y-71628000D03*
D14*
X113030000Y-69088000D03*
X113030000Y-66548000D03*
X113030000Y-64008000D03*
D13*
X100330000Y-66548000D03*
D14*
X100330000Y-69088000D03*
X100330000Y-71628000D03*
D15*
X130810000Y-40640000D03*
D16*
X125730000Y-40640000D03*
D17*
X143510000Y-48006000D03*
X143510000Y-40894000D03*
D18*
X81026000Y-58928000D03*
X83566000Y-58928000D03*
X86106000Y-58928000D03*
X88646000Y-58928000D03*
X91186000Y-38608000D03*
X91186000Y-58928000D03*
X93726000Y-38608000D03*
X93726000Y-58928000D03*
X96266000Y-38608000D03*
X96266000Y-58928000D03*
X98806000Y-38608000D03*
X98806000Y-58928000D03*
X101346000Y-38608000D03*
X101346000Y-58928000D03*
X103886000Y-38608000D03*
X103886000Y-58928000D03*
X106426000Y-38608000D03*
X106426000Y-58928000D03*
X108966000Y-38608000D03*
X108966000Y-58928000D03*
X111506000Y-38608000D03*
X111506000Y-58928000D03*
X114046000Y-38608000D03*
X114046000Y-58928000D03*
X116586000Y-38608000D03*
X116586000Y-58928000D03*
X119126000Y-38608000D03*
X119126000Y-58928000D03*
D19*
X79845000Y-70375000D03*
D20*
X92045000Y-70275000D03*
D21*
X84545000Y-62975000D03*
X82645000Y-70375000D03*
D22*
X83745000Y-66675000D03*
X90745000Y-66675000D03*
D23*
X96045000Y-65925000D03*
M02*
