G04 #@! TF.GenerationSoftware,KiCad,Pcbnew,(5.1.7)-1*
G04 #@! TF.CreationDate,2021-05-02T01:56:36-07:00*
G04 #@! TF.ProjectId,computer_rgb_controller,636f6d70-7574-4657-925f-7267625f636f,rev?*
G04 #@! TF.SameCoordinates,Original*
G04 #@! TF.FileFunction,Legend,Bot*
G04 #@! TF.FilePolarity,Positive*
%FSLAX46Y46*%
G04 Gerber Fmt 4.6, Leading zero omitted, Abs format (unit mm)*
G04 Created by KiCad (PCBNEW (5.1.7)-1) date 2021-05-02 01:56:36*
%MOMM*%
%LPD*%
G01*
G04 APERTURE LIST*
%ADD10C,0.120000*%
%ADD11C,0.150000*%
%ADD12C,2.200000*%
%ADD13R,2.000000X2.000000*%
%ADD14C,2.000000*%
%ADD15R,1.700000X1.700000*%
%ADD16O,1.700000X1.700000*%
%ADD17R,3.000000X3.000000*%
%ADD18C,3.000000*%
%ADD19R,0.800000X0.900000*%
%ADD20O,8.000000X2.000000*%
%ADD21C,1.200000*%
%ADD22C,1.700000*%
G04 APERTURE END LIST*
D10*
X105085000Y-47115000D02*
X104155000Y-47115000D01*
X101925000Y-47115000D02*
X102855000Y-47115000D01*
X101925000Y-47115000D02*
X101925000Y-44955000D01*
X105085000Y-47115000D02*
X105085000Y-45655000D01*
X95052000Y-53592000D02*
X95052000Y-52132000D01*
X91892000Y-53592000D02*
X91892000Y-51432000D01*
X91892000Y-53592000D02*
X92822000Y-53592000D01*
X95052000Y-53592000D02*
X94122000Y-53592000D01*
X114930000Y-52560000D02*
X114000000Y-52560000D01*
X111770000Y-52560000D02*
X112700000Y-52560000D01*
X111770000Y-52560000D02*
X111770000Y-50400000D01*
X114930000Y-52560000D02*
X114930000Y-51100000D01*
X107407064Y-49255000D02*
X105952936Y-49255000D01*
X107407064Y-51075000D02*
X105952936Y-51075000D01*
X89696936Y-55478000D02*
X91151064Y-55478000D01*
X89696936Y-57298000D02*
X91151064Y-57298000D01*
X117212064Y-56155000D02*
X115757936Y-56155000D01*
X117212064Y-54335000D02*
X115757936Y-54335000D01*
X99602936Y-49255000D02*
X101057064Y-49255000D01*
X99602936Y-51075000D02*
X101057064Y-51075000D01*
X97247064Y-55478000D02*
X95792936Y-55478000D01*
X97247064Y-57298000D02*
X95792936Y-57298000D01*
X109508936Y-56282000D02*
X110963064Y-56282000D01*
X109508936Y-54462000D02*
X110963064Y-54462000D01*
X87228000Y-69630936D02*
X87228000Y-71085064D01*
X89048000Y-69630936D02*
X89048000Y-71085064D01*
X83714000Y-69604936D02*
X83714000Y-71059064D01*
X81894000Y-69604936D02*
X81894000Y-71059064D01*
X84561000Y-69630936D02*
X84561000Y-71085064D01*
X86381000Y-69630936D02*
X86381000Y-71085064D01*
D11*
X101552619Y-46259761D02*
X101505000Y-46164523D01*
X101409761Y-46069285D01*
X101266904Y-45926428D01*
X101219285Y-45831190D01*
X101219285Y-45735952D01*
X101457380Y-45783571D02*
X101409761Y-45688333D01*
X101314523Y-45593095D01*
X101124047Y-45545476D01*
X100790714Y-45545476D01*
X100600238Y-45593095D01*
X100505000Y-45688333D01*
X100457380Y-45783571D01*
X100457380Y-45974047D01*
X100505000Y-46069285D01*
X100600238Y-46164523D01*
X100790714Y-46212142D01*
X101124047Y-46212142D01*
X101314523Y-46164523D01*
X101409761Y-46069285D01*
X101457380Y-45974047D01*
X101457380Y-45783571D01*
X101457380Y-47164523D02*
X101457380Y-46593095D01*
X101457380Y-46878809D02*
X100457380Y-46878809D01*
X100600238Y-46783571D01*
X100695476Y-46688333D01*
X100743095Y-46593095D01*
X91519619Y-52736761D02*
X91472000Y-52641523D01*
X91376761Y-52546285D01*
X91233904Y-52403428D01*
X91186285Y-52308190D01*
X91186285Y-52212952D01*
X91424380Y-52260571D02*
X91376761Y-52165333D01*
X91281523Y-52070095D01*
X91091047Y-52022476D01*
X90757714Y-52022476D01*
X90567238Y-52070095D01*
X90472000Y-52165333D01*
X90424380Y-52260571D01*
X90424380Y-52451047D01*
X90472000Y-52546285D01*
X90567238Y-52641523D01*
X90757714Y-52689142D01*
X91091047Y-52689142D01*
X91281523Y-52641523D01*
X91376761Y-52546285D01*
X91424380Y-52451047D01*
X91424380Y-52260571D01*
X90519619Y-53070095D02*
X90472000Y-53117714D01*
X90424380Y-53212952D01*
X90424380Y-53451047D01*
X90472000Y-53546285D01*
X90519619Y-53593904D01*
X90614857Y-53641523D01*
X90710095Y-53641523D01*
X90852952Y-53593904D01*
X91424380Y-53022476D01*
X91424380Y-53641523D01*
X111397619Y-51704761D02*
X111350000Y-51609523D01*
X111254761Y-51514285D01*
X111111904Y-51371428D01*
X111064285Y-51276190D01*
X111064285Y-51180952D01*
X111302380Y-51228571D02*
X111254761Y-51133333D01*
X111159523Y-51038095D01*
X110969047Y-50990476D01*
X110635714Y-50990476D01*
X110445238Y-51038095D01*
X110350000Y-51133333D01*
X110302380Y-51228571D01*
X110302380Y-51419047D01*
X110350000Y-51514285D01*
X110445238Y-51609523D01*
X110635714Y-51657142D01*
X110969047Y-51657142D01*
X111159523Y-51609523D01*
X111254761Y-51514285D01*
X111302380Y-51419047D01*
X111302380Y-51228571D01*
X110302380Y-51990476D02*
X110302380Y-52609523D01*
X110683333Y-52276190D01*
X110683333Y-52419047D01*
X110730952Y-52514285D01*
X110778571Y-52561904D01*
X110873809Y-52609523D01*
X111111904Y-52609523D01*
X111207142Y-52561904D01*
X111254761Y-52514285D01*
X111302380Y-52419047D01*
X111302380Y-52133333D01*
X111254761Y-52038095D01*
X111207142Y-51990476D01*
X106846666Y-48797380D02*
X107180000Y-48321190D01*
X107418095Y-48797380D02*
X107418095Y-47797380D01*
X107037142Y-47797380D01*
X106941904Y-47845000D01*
X106894285Y-47892619D01*
X106846666Y-47987857D01*
X106846666Y-48130714D01*
X106894285Y-48225952D01*
X106941904Y-48273571D01*
X107037142Y-48321190D01*
X107418095Y-48321190D01*
X105894285Y-48797380D02*
X106465714Y-48797380D01*
X106180000Y-48797380D02*
X106180000Y-47797380D01*
X106275238Y-47940238D01*
X106370476Y-48035476D01*
X106465714Y-48083095D01*
X90590666Y-58660380D02*
X90924000Y-58184190D01*
X91162095Y-58660380D02*
X91162095Y-57660380D01*
X90781142Y-57660380D01*
X90685904Y-57708000D01*
X90638285Y-57755619D01*
X90590666Y-57850857D01*
X90590666Y-57993714D01*
X90638285Y-58088952D01*
X90685904Y-58136571D01*
X90781142Y-58184190D01*
X91162095Y-58184190D01*
X90209714Y-57755619D02*
X90162095Y-57708000D01*
X90066857Y-57660380D01*
X89828761Y-57660380D01*
X89733523Y-57708000D01*
X89685904Y-57755619D01*
X89638285Y-57850857D01*
X89638285Y-57946095D01*
X89685904Y-58088952D01*
X90257333Y-58660380D01*
X89638285Y-58660380D01*
X116651666Y-53877380D02*
X116985000Y-53401190D01*
X117223095Y-53877380D02*
X117223095Y-52877380D01*
X116842142Y-52877380D01*
X116746904Y-52925000D01*
X116699285Y-52972619D01*
X116651666Y-53067857D01*
X116651666Y-53210714D01*
X116699285Y-53305952D01*
X116746904Y-53353571D01*
X116842142Y-53401190D01*
X117223095Y-53401190D01*
X116318333Y-52877380D02*
X115699285Y-52877380D01*
X116032619Y-53258333D01*
X115889761Y-53258333D01*
X115794523Y-53305952D01*
X115746904Y-53353571D01*
X115699285Y-53448809D01*
X115699285Y-53686904D01*
X115746904Y-53782142D01*
X115794523Y-53829761D01*
X115889761Y-53877380D01*
X116175476Y-53877380D01*
X116270714Y-53829761D01*
X116318333Y-53782142D01*
X100496666Y-52437380D02*
X100830000Y-51961190D01*
X101068095Y-52437380D02*
X101068095Y-51437380D01*
X100687142Y-51437380D01*
X100591904Y-51485000D01*
X100544285Y-51532619D01*
X100496666Y-51627857D01*
X100496666Y-51770714D01*
X100544285Y-51865952D01*
X100591904Y-51913571D01*
X100687142Y-51961190D01*
X101068095Y-51961190D01*
X99639523Y-51770714D02*
X99639523Y-52437380D01*
X99877619Y-51389761D02*
X100115714Y-52104047D01*
X99496666Y-52104047D01*
X96686666Y-55020380D02*
X97020000Y-54544190D01*
X97258095Y-55020380D02*
X97258095Y-54020380D01*
X96877142Y-54020380D01*
X96781904Y-54068000D01*
X96734285Y-54115619D01*
X96686666Y-54210857D01*
X96686666Y-54353714D01*
X96734285Y-54448952D01*
X96781904Y-54496571D01*
X96877142Y-54544190D01*
X97258095Y-54544190D01*
X95781904Y-54020380D02*
X96258095Y-54020380D01*
X96305714Y-54496571D01*
X96258095Y-54448952D01*
X96162857Y-54401333D01*
X95924761Y-54401333D01*
X95829523Y-54448952D01*
X95781904Y-54496571D01*
X95734285Y-54591809D01*
X95734285Y-54829904D01*
X95781904Y-54925142D01*
X95829523Y-54972761D01*
X95924761Y-55020380D01*
X96162857Y-55020380D01*
X96258095Y-54972761D01*
X96305714Y-54925142D01*
X110402666Y-57644380D02*
X110736000Y-57168190D01*
X110974095Y-57644380D02*
X110974095Y-56644380D01*
X110593142Y-56644380D01*
X110497904Y-56692000D01*
X110450285Y-56739619D01*
X110402666Y-56834857D01*
X110402666Y-56977714D01*
X110450285Y-57072952D01*
X110497904Y-57120571D01*
X110593142Y-57168190D01*
X110974095Y-57168190D01*
X109545523Y-56644380D02*
X109736000Y-56644380D01*
X109831238Y-56692000D01*
X109878857Y-56739619D01*
X109974095Y-56882476D01*
X110021714Y-57072952D01*
X110021714Y-57453904D01*
X109974095Y-57549142D01*
X109926476Y-57596761D01*
X109831238Y-57644380D01*
X109640761Y-57644380D01*
X109545523Y-57596761D01*
X109497904Y-57549142D01*
X109450285Y-57453904D01*
X109450285Y-57215809D01*
X109497904Y-57120571D01*
X109545523Y-57072952D01*
X109640761Y-57025333D01*
X109831238Y-57025333D01*
X109926476Y-57072952D01*
X109974095Y-57120571D01*
X110021714Y-57215809D01*
X90463666Y-72334380D02*
X90797000Y-71858190D01*
X91035095Y-72334380D02*
X91035095Y-71334380D01*
X90654142Y-71334380D01*
X90558904Y-71382000D01*
X90511285Y-71429619D01*
X90463666Y-71524857D01*
X90463666Y-71667714D01*
X90511285Y-71762952D01*
X90558904Y-71810571D01*
X90654142Y-71858190D01*
X91035095Y-71858190D01*
X90130333Y-71334380D02*
X89463666Y-71334380D01*
X89892238Y-72334380D01*
X82970666Y-67508380D02*
X83304000Y-67032190D01*
X83542095Y-67508380D02*
X83542095Y-66508380D01*
X83161142Y-66508380D01*
X83065904Y-66556000D01*
X83018285Y-66603619D01*
X82970666Y-66698857D01*
X82970666Y-66841714D01*
X83018285Y-66936952D01*
X83065904Y-66984571D01*
X83161142Y-67032190D01*
X83542095Y-67032190D01*
X82399238Y-66936952D02*
X82494476Y-66889333D01*
X82542095Y-66841714D01*
X82589714Y-66746476D01*
X82589714Y-66698857D01*
X82542095Y-66603619D01*
X82494476Y-66556000D01*
X82399238Y-66508380D01*
X82208761Y-66508380D01*
X82113523Y-66556000D01*
X82065904Y-66603619D01*
X82018285Y-66698857D01*
X82018285Y-66746476D01*
X82065904Y-66841714D01*
X82113523Y-66889333D01*
X82208761Y-66936952D01*
X82399238Y-66936952D01*
X82494476Y-66984571D01*
X82542095Y-67032190D01*
X82589714Y-67127428D01*
X82589714Y-67317904D01*
X82542095Y-67413142D01*
X82494476Y-67460761D01*
X82399238Y-67508380D01*
X82208761Y-67508380D01*
X82113523Y-67460761D01*
X82065904Y-67413142D01*
X82018285Y-67317904D01*
X82018285Y-67127428D01*
X82065904Y-67032190D01*
X82113523Y-66984571D01*
X82208761Y-66936952D01*
X85637666Y-67508380D02*
X85971000Y-67032190D01*
X86209095Y-67508380D02*
X86209095Y-66508380D01*
X85828142Y-66508380D01*
X85732904Y-66556000D01*
X85685285Y-66603619D01*
X85637666Y-66698857D01*
X85637666Y-66841714D01*
X85685285Y-66936952D01*
X85732904Y-66984571D01*
X85828142Y-67032190D01*
X86209095Y-67032190D01*
X85161476Y-67508380D02*
X84971000Y-67508380D01*
X84875761Y-67460761D01*
X84828142Y-67413142D01*
X84732904Y-67270285D01*
X84685285Y-67079809D01*
X84685285Y-66698857D01*
X84732904Y-66603619D01*
X84780523Y-66556000D01*
X84875761Y-66508380D01*
X85066238Y-66508380D01*
X85161476Y-66556000D01*
X85209095Y-66603619D01*
X85256714Y-66698857D01*
X85256714Y-66936952D01*
X85209095Y-67032190D01*
X85161476Y-67079809D01*
X85066238Y-67127428D01*
X84875761Y-67127428D01*
X84780523Y-67079809D01*
X84732904Y-67032190D01*
X84685285Y-66936952D01*
%LPC*%
D12*
X154940000Y-70866000D03*
X154940000Y-36830000D03*
X80010000Y-36830000D03*
D13*
X123190000Y-63500000D03*
D14*
X123190000Y-68500000D03*
D13*
X148590000Y-63500000D03*
D14*
X148590000Y-68500000D03*
X135890000Y-68500000D03*
D13*
X135890000Y-63500000D03*
D15*
X106680000Y-64008000D03*
D16*
X106680000Y-66548000D03*
X106680000Y-69088000D03*
X106680000Y-71628000D03*
D15*
X113030000Y-71628000D03*
D16*
X113030000Y-69088000D03*
X113030000Y-66548000D03*
X113030000Y-64008000D03*
D15*
X100330000Y-66548000D03*
D16*
X100330000Y-69088000D03*
X100330000Y-71628000D03*
D17*
X130810000Y-40640000D03*
D18*
X125730000Y-40640000D03*
D19*
X102555000Y-45355000D03*
X104455000Y-45355000D03*
X103505000Y-47355000D03*
X93472000Y-53832000D03*
X94422000Y-51832000D03*
X92522000Y-51832000D03*
X112400000Y-50800000D03*
X114300000Y-50800000D03*
X113350000Y-52800000D03*
G36*
G01*
X108880000Y-49539999D02*
X108880000Y-50790001D01*
G75*
G02*
X108630001Y-51040000I-249999J0D01*
G01*
X107829999Y-51040000D01*
G75*
G02*
X107580000Y-50790001I0J249999D01*
G01*
X107580000Y-49539999D01*
G75*
G02*
X107829999Y-49290000I249999J0D01*
G01*
X108630001Y-49290000D01*
G75*
G02*
X108880000Y-49539999I0J-249999D01*
G01*
G37*
G36*
G01*
X105780000Y-49539999D02*
X105780000Y-50790001D01*
G75*
G02*
X105530001Y-51040000I-249999J0D01*
G01*
X104729999Y-51040000D01*
G75*
G02*
X104480000Y-50790001I0J249999D01*
G01*
X104480000Y-49539999D01*
G75*
G02*
X104729999Y-49290000I249999J0D01*
G01*
X105530001Y-49290000D01*
G75*
G02*
X105780000Y-49539999I0J-249999D01*
G01*
G37*
G36*
G01*
X91324000Y-57013001D02*
X91324000Y-55762999D01*
G75*
G02*
X91573999Y-55513000I249999J0D01*
G01*
X92374001Y-55513000D01*
G75*
G02*
X92624000Y-55762999I0J-249999D01*
G01*
X92624000Y-57013001D01*
G75*
G02*
X92374001Y-57263000I-249999J0D01*
G01*
X91573999Y-57263000D01*
G75*
G02*
X91324000Y-57013001I0J249999D01*
G01*
G37*
G36*
G01*
X88224000Y-57013001D02*
X88224000Y-55762999D01*
G75*
G02*
X88473999Y-55513000I249999J0D01*
G01*
X89274001Y-55513000D01*
G75*
G02*
X89524000Y-55762999I0J-249999D01*
G01*
X89524000Y-57013001D01*
G75*
G02*
X89274001Y-57263000I-249999J0D01*
G01*
X88473999Y-57263000D01*
G75*
G02*
X88224000Y-57013001I0J249999D01*
G01*
G37*
G36*
G01*
X115585000Y-54619999D02*
X115585000Y-55870001D01*
G75*
G02*
X115335001Y-56120000I-249999J0D01*
G01*
X114534999Y-56120000D01*
G75*
G02*
X114285000Y-55870001I0J249999D01*
G01*
X114285000Y-54619999D01*
G75*
G02*
X114534999Y-54370000I249999J0D01*
G01*
X115335001Y-54370000D01*
G75*
G02*
X115585000Y-54619999I0J-249999D01*
G01*
G37*
G36*
G01*
X118685000Y-54619999D02*
X118685000Y-55870001D01*
G75*
G02*
X118435001Y-56120000I-249999J0D01*
G01*
X117634999Y-56120000D01*
G75*
G02*
X117385000Y-55870001I0J249999D01*
G01*
X117385000Y-54619999D01*
G75*
G02*
X117634999Y-54370000I249999J0D01*
G01*
X118435001Y-54370000D01*
G75*
G02*
X118685000Y-54619999I0J-249999D01*
G01*
G37*
G36*
G01*
X101230000Y-50790001D02*
X101230000Y-49539999D01*
G75*
G02*
X101479999Y-49290000I249999J0D01*
G01*
X102280001Y-49290000D01*
G75*
G02*
X102530000Y-49539999I0J-249999D01*
G01*
X102530000Y-50790001D01*
G75*
G02*
X102280001Y-51040000I-249999J0D01*
G01*
X101479999Y-51040000D01*
G75*
G02*
X101230000Y-50790001I0J249999D01*
G01*
G37*
G36*
G01*
X98130000Y-50790001D02*
X98130000Y-49539999D01*
G75*
G02*
X98379999Y-49290000I249999J0D01*
G01*
X99180001Y-49290000D01*
G75*
G02*
X99430000Y-49539999I0J-249999D01*
G01*
X99430000Y-50790001D01*
G75*
G02*
X99180001Y-51040000I-249999J0D01*
G01*
X98379999Y-51040000D01*
G75*
G02*
X98130000Y-50790001I0J249999D01*
G01*
G37*
G36*
G01*
X98720000Y-55762999D02*
X98720000Y-57013001D01*
G75*
G02*
X98470001Y-57263000I-249999J0D01*
G01*
X97669999Y-57263000D01*
G75*
G02*
X97420000Y-57013001I0J249999D01*
G01*
X97420000Y-55762999D01*
G75*
G02*
X97669999Y-55513000I249999J0D01*
G01*
X98470001Y-55513000D01*
G75*
G02*
X98720000Y-55762999I0J-249999D01*
G01*
G37*
G36*
G01*
X95620000Y-55762999D02*
X95620000Y-57013001D01*
G75*
G02*
X95370001Y-57263000I-249999J0D01*
G01*
X94569999Y-57263000D01*
G75*
G02*
X94320000Y-57013001I0J249999D01*
G01*
X94320000Y-55762999D01*
G75*
G02*
X94569999Y-55513000I249999J0D01*
G01*
X95370001Y-55513000D01*
G75*
G02*
X95620000Y-55762999I0J-249999D01*
G01*
G37*
G36*
G01*
X108036000Y-55997001D02*
X108036000Y-54746999D01*
G75*
G02*
X108285999Y-54497000I249999J0D01*
G01*
X109086001Y-54497000D01*
G75*
G02*
X109336000Y-54746999I0J-249999D01*
G01*
X109336000Y-55997001D01*
G75*
G02*
X109086001Y-56247000I-249999J0D01*
G01*
X108285999Y-56247000D01*
G75*
G02*
X108036000Y-55997001I0J249999D01*
G01*
G37*
G36*
G01*
X111136000Y-55997001D02*
X111136000Y-54746999D01*
G75*
G02*
X111385999Y-54497000I249999J0D01*
G01*
X112186001Y-54497000D01*
G75*
G02*
X112436000Y-54746999I0J-249999D01*
G01*
X112436000Y-55997001D01*
G75*
G02*
X112186001Y-56247000I-249999J0D01*
G01*
X111385999Y-56247000D01*
G75*
G02*
X111136000Y-55997001I0J249999D01*
G01*
G37*
G36*
G01*
X87512999Y-68158000D02*
X88763001Y-68158000D01*
G75*
G02*
X89013000Y-68407999I0J-249999D01*
G01*
X89013000Y-69208001D01*
G75*
G02*
X88763001Y-69458000I-249999J0D01*
G01*
X87512999Y-69458000D01*
G75*
G02*
X87263000Y-69208001I0J249999D01*
G01*
X87263000Y-68407999D01*
G75*
G02*
X87512999Y-68158000I249999J0D01*
G01*
G37*
G36*
G01*
X87512999Y-71258000D02*
X88763001Y-71258000D01*
G75*
G02*
X89013000Y-71507999I0J-249999D01*
G01*
X89013000Y-72308001D01*
G75*
G02*
X88763001Y-72558000I-249999J0D01*
G01*
X87512999Y-72558000D01*
G75*
G02*
X87263000Y-72308001I0J249999D01*
G01*
X87263000Y-71507999D01*
G75*
G02*
X87512999Y-71258000I249999J0D01*
G01*
G37*
G36*
G01*
X82178999Y-71232000D02*
X83429001Y-71232000D01*
G75*
G02*
X83679000Y-71481999I0J-249999D01*
G01*
X83679000Y-72282001D01*
G75*
G02*
X83429001Y-72532000I-249999J0D01*
G01*
X82178999Y-72532000D01*
G75*
G02*
X81929000Y-72282001I0J249999D01*
G01*
X81929000Y-71481999D01*
G75*
G02*
X82178999Y-71232000I249999J0D01*
G01*
G37*
G36*
G01*
X82178999Y-68132000D02*
X83429001Y-68132000D01*
G75*
G02*
X83679000Y-68381999I0J-249999D01*
G01*
X83679000Y-69182001D01*
G75*
G02*
X83429001Y-69432000I-249999J0D01*
G01*
X82178999Y-69432000D01*
G75*
G02*
X81929000Y-69182001I0J249999D01*
G01*
X81929000Y-68381999D01*
G75*
G02*
X82178999Y-68132000I249999J0D01*
G01*
G37*
G36*
G01*
X84845999Y-68158000D02*
X86096001Y-68158000D01*
G75*
G02*
X86346000Y-68407999I0J-249999D01*
G01*
X86346000Y-69208001D01*
G75*
G02*
X86096001Y-69458000I-249999J0D01*
G01*
X84845999Y-69458000D01*
G75*
G02*
X84596000Y-69208001I0J249999D01*
G01*
X84596000Y-68407999D01*
G75*
G02*
X84845999Y-68158000I249999J0D01*
G01*
G37*
G36*
G01*
X84845999Y-71258000D02*
X86096001Y-71258000D01*
G75*
G02*
X86346000Y-71507999I0J-249999D01*
G01*
X86346000Y-72308001D01*
G75*
G02*
X86096001Y-72558000I-249999J0D01*
G01*
X84845999Y-72558000D01*
G75*
G02*
X84596000Y-72308001I0J249999D01*
G01*
X84596000Y-71507999D01*
G75*
G02*
X84845999Y-71258000I249999J0D01*
G01*
G37*
D20*
X143510000Y-48006000D03*
X143510000Y-40894000D03*
D21*
X81026000Y-58928000D03*
X83566000Y-58928000D03*
X86106000Y-58928000D03*
X88646000Y-58928000D03*
X91186000Y-38608000D03*
X91186000Y-58928000D03*
X93726000Y-38608000D03*
X93726000Y-58928000D03*
X96266000Y-38608000D03*
X96266000Y-58928000D03*
X98806000Y-38608000D03*
X98806000Y-58928000D03*
X101346000Y-38608000D03*
X101346000Y-58928000D03*
X103886000Y-38608000D03*
X103886000Y-58928000D03*
X106426000Y-38608000D03*
X106426000Y-58928000D03*
X108966000Y-38608000D03*
X108966000Y-58928000D03*
X111506000Y-38608000D03*
X111506000Y-58928000D03*
X114046000Y-38608000D03*
X114046000Y-58928000D03*
X116586000Y-38608000D03*
X116586000Y-58928000D03*
X119126000Y-38608000D03*
X119126000Y-58928000D03*
D22*
X83745000Y-66675000D03*
X90745000Y-66675000D03*
M02*
