M48
; DRILL file {KiCad (5.1.7)-1} date 05/02/21 01:56:56
; FORMAT={-:-/ absolute / metric / decimal}
; #@! TF.CreationDate,2021-05-02T01:56:56-07:00
; #@! TF.GenerationSoftware,Kicad,Pcbnew,(5.1.7)-1
; #@! TF.FileFunction,Plated,1,2,PTH
FMAT,2
METRIC
T1C0.400
T2C0.800
T3C1.000
T4C1.200
T5C1.520
%
G90
G05
T1
X81.788Y-67.056
X84.545Y-62.975
X92.045Y-70.275
X92.837Y-45.847
X98.07Y-56.388
X101.346Y-45.339
X107.061Y-53.975
X113.411Y-55.245
T2
X81.026Y-58.928
X83.566Y-58.928
X86.106Y-58.928
X88.646Y-58.928
X91.186Y-38.608
X91.186Y-58.928
X93.726Y-38.608
X93.726Y-58.928
X96.266Y-38.608
X96.266Y-58.928
X98.806Y-38.608
X98.806Y-58.928
X101.346Y-38.608
X101.346Y-58.928
X103.886Y-38.608
X103.886Y-58.928
X106.426Y-38.608
X106.426Y-58.928
X108.966Y-38.608
X108.966Y-58.928
X111.506Y-38.608
X111.506Y-58.928
X114.046Y-38.608
X114.046Y-58.928
X116.586Y-38.608
X116.586Y-58.928
X119.126Y-38.608
X119.126Y-58.928
T3
X113.03Y-64.008
X113.03Y-66.548
X113.03Y-69.088
X113.03Y-71.628
X100.33Y-66.548
X100.33Y-69.088
X100.33Y-71.628
X106.68Y-64.008
X106.68Y-66.548
X106.68Y-69.088
X106.68Y-71.628
X123.19Y-63.5
X123.19Y-68.5
X135.89Y-63.5
X135.89Y-68.5
X148.59Y-63.5
X148.59Y-68.5
T5
X125.73Y-40.64
X130.81Y-40.64
T4
G00X145.91Y-40.894
M15
G01X141.11Y-40.894
M16
G05
G00X145.91Y-48.006
M15
G01X141.11Y-48.006
M16
G05
T0
M30
