G04 #@! TF.GenerationSoftware,KiCad,Pcbnew,(5.1.7)-1*
G04 #@! TF.CreationDate,2021-05-02T01:56:36-07:00*
G04 #@! TF.ProjectId,computer_rgb_controller,636f6d70-7574-4657-925f-7267625f636f,rev?*
G04 #@! TF.SameCoordinates,Original*
G04 #@! TF.FileFunction,Copper,L1,Top*
G04 #@! TF.FilePolarity,Positive*
%FSLAX46Y46*%
G04 Gerber Fmt 4.6, Leading zero omitted, Abs format (unit mm)*
G04 Created by KiCad (PCBNEW (5.1.7)-1) date 2021-05-02 01:56:36*
%MOMM*%
%LPD*%
G01*
G04 APERTURE LIST*
G04 #@! TA.AperFunction,ComponentPad*
%ADD10R,2.000000X2.000000*%
G04 #@! TD*
G04 #@! TA.AperFunction,ComponentPad*
%ADD11C,2.000000*%
G04 #@! TD*
G04 #@! TA.AperFunction,ComponentPad*
%ADD12R,1.700000X1.700000*%
G04 #@! TD*
G04 #@! TA.AperFunction,ComponentPad*
%ADD13O,1.700000X1.700000*%
G04 #@! TD*
G04 #@! TA.AperFunction,ComponentPad*
%ADD14R,3.000000X3.000000*%
G04 #@! TD*
G04 #@! TA.AperFunction,ComponentPad*
%ADD15C,3.000000*%
G04 #@! TD*
G04 #@! TA.AperFunction,ComponentPad*
%ADD16O,8.000000X2.000000*%
G04 #@! TD*
G04 #@! TA.AperFunction,ComponentPad*
%ADD17C,1.200000*%
G04 #@! TD*
G04 #@! TA.AperFunction,SMDPad,CuDef*
%ADD18R,2.000000X2.800000*%
G04 #@! TD*
G04 #@! TA.AperFunction,SMDPad,CuDef*
%ADD19R,2.800000X2.600000*%
G04 #@! TD*
G04 #@! TA.AperFunction,SMDPad,CuDef*
%ADD20R,2.200000X2.800000*%
G04 #@! TD*
G04 #@! TA.AperFunction,SMDPad,CuDef*
%ADD21R,2.800000X2.800000*%
G04 #@! TD*
G04 #@! TA.AperFunction,ViaPad*
%ADD22C,0.800000*%
G04 #@! TD*
G04 #@! TA.AperFunction,Conductor*
%ADD23C,1.500000*%
G04 #@! TD*
G04 #@! TA.AperFunction,Conductor*
%ADD24C,0.250000*%
G04 #@! TD*
G04 #@! TA.AperFunction,Conductor*
%ADD25C,0.254000*%
G04 #@! TD*
G04 #@! TA.AperFunction,Conductor*
%ADD26C,0.100000*%
G04 #@! TD*
G04 APERTURE END LIST*
D10*
X123190000Y-63500000D03*
D11*
X123190000Y-68500000D03*
D10*
X148590000Y-63500000D03*
D11*
X148590000Y-68500000D03*
X135890000Y-68500000D03*
D10*
X135890000Y-63500000D03*
D12*
X106680000Y-64008000D03*
D13*
X106680000Y-66548000D03*
X106680000Y-69088000D03*
X106680000Y-71628000D03*
D12*
X113030000Y-71628000D03*
D13*
X113030000Y-69088000D03*
X113030000Y-66548000D03*
X113030000Y-64008000D03*
D12*
X100330000Y-66548000D03*
D13*
X100330000Y-69088000D03*
X100330000Y-71628000D03*
D14*
X130810000Y-40640000D03*
D15*
X125730000Y-40640000D03*
D16*
X143510000Y-48006000D03*
X143510000Y-40894000D03*
D17*
X81026000Y-58928000D03*
X83566000Y-58928000D03*
X86106000Y-58928000D03*
X88646000Y-58928000D03*
X91186000Y-38608000D03*
X91186000Y-58928000D03*
X93726000Y-38608000D03*
X93726000Y-58928000D03*
X96266000Y-38608000D03*
X96266000Y-58928000D03*
X98806000Y-38608000D03*
X98806000Y-58928000D03*
X101346000Y-38608000D03*
X101346000Y-58928000D03*
X103886000Y-38608000D03*
X103886000Y-58928000D03*
X106426000Y-38608000D03*
X106426000Y-58928000D03*
X108966000Y-38608000D03*
X108966000Y-58928000D03*
X111506000Y-38608000D03*
X111506000Y-58928000D03*
X114046000Y-38608000D03*
X114046000Y-58928000D03*
X116586000Y-38608000D03*
X116586000Y-58928000D03*
X119126000Y-38608000D03*
X119126000Y-58928000D03*
D18*
X79845000Y-70375000D03*
D19*
X92045000Y-70275000D03*
D20*
X84545000Y-62975000D03*
X82645000Y-70375000D03*
D21*
X96045000Y-65925000D03*
D22*
X98070000Y-56388000D03*
X81788000Y-67056000D03*
X84545000Y-62975000D03*
X92045000Y-70275000D03*
X101346000Y-45339000D03*
X92837000Y-45847000D03*
X107061000Y-53975000D03*
X113411000Y-55245000D03*
D23*
X143510000Y-48006000D02*
X143510000Y-51943000D01*
X148590000Y-57023000D02*
X148590000Y-63500000D01*
X143510000Y-51943000D02*
X148590000Y-57023000D01*
X148590000Y-63500000D02*
X135890000Y-63500000D01*
X135890000Y-63500000D02*
X123190000Y-63500000D01*
X113538000Y-63500000D02*
X113030000Y-64008000D01*
X123190000Y-63500000D02*
X113538000Y-63500000D01*
X113030000Y-64008000D02*
X106680000Y-64008000D01*
X102870000Y-64008000D02*
X100330000Y-66548000D01*
X106680000Y-64008000D02*
X102870000Y-64008000D01*
X143256000Y-40640000D02*
X143510000Y-40894000D01*
X130810000Y-40640000D02*
X143256000Y-40640000D01*
D24*
X108966000Y-58928000D02*
X107188000Y-60706000D01*
X106622010Y-60763990D02*
X100145010Y-60763990D01*
X106680000Y-60706000D02*
X106622010Y-60763990D01*
X107188000Y-60706000D02*
X106680000Y-60706000D01*
X100145010Y-60763990D02*
X98044000Y-62865000D01*
X98044000Y-62865000D02*
X88646000Y-62865000D01*
X88646000Y-62865000D02*
X86487000Y-60706000D01*
X86487000Y-60706000D02*
X82677000Y-60706000D01*
X82677000Y-60706000D02*
X81788000Y-61595000D01*
X81788000Y-69518000D02*
X82645000Y-70375000D01*
X81788000Y-67056000D02*
X81788000Y-69518000D01*
X81788000Y-61595000D02*
X81788000Y-67056000D01*
X111506000Y-58928000D02*
X109220000Y-61214000D01*
X109220000Y-61214000D02*
X100711000Y-61214000D01*
X100711000Y-61214000D02*
X98298000Y-63627000D01*
X85197000Y-63627000D02*
X84545000Y-62975000D01*
X98298000Y-63627000D02*
X85197000Y-63627000D01*
X96045000Y-66275000D02*
X92045000Y-70275000D01*
X96045000Y-65925000D02*
X96045000Y-66275000D01*
X96045000Y-65925000D02*
X97524000Y-65925000D01*
X114046000Y-58928000D02*
X110617000Y-62357000D01*
X110617000Y-62357000D02*
X101473000Y-62357000D01*
X97905000Y-65925000D02*
X96045000Y-65925000D01*
X101473000Y-62357000D02*
X97905000Y-65925000D01*
X79845000Y-62014000D02*
X79845000Y-70375000D01*
X81661000Y-60198000D02*
X79845000Y-62014000D01*
X89027000Y-62230000D02*
X86995000Y-60198000D01*
X97663000Y-62230000D02*
X89027000Y-62230000D01*
X99695000Y-60198000D02*
X97663000Y-62230000D01*
X86995000Y-60198000D02*
X81661000Y-60198000D01*
X105156000Y-60198000D02*
X99695000Y-60198000D01*
X106426000Y-58928000D02*
X105156000Y-60198000D01*
X101346000Y-45339000D02*
X95377000Y-45339000D01*
X93345000Y-45339000D02*
X92837000Y-45847000D01*
X95377000Y-45339000D02*
X93345000Y-45339000D01*
X112141000Y-53975000D02*
X113411000Y-55245000D01*
X107061000Y-53975000D02*
X112141000Y-53975000D01*
D25*
X155713875Y-34979234D02*
X155969622Y-35056448D01*
X156205504Y-35181869D01*
X156412530Y-35350716D01*
X156582813Y-35556554D01*
X156709879Y-35791556D01*
X156788876Y-36046756D01*
X156820001Y-36342891D01*
X156820000Y-71341721D01*
X156790766Y-71639876D01*
X156713551Y-71895624D01*
X156588131Y-72131504D01*
X156419289Y-72338525D01*
X156213446Y-72508813D01*
X155978444Y-72635879D01*
X155723240Y-72714877D01*
X155427118Y-72746000D01*
X114456770Y-72746000D01*
X114469502Y-72722180D01*
X114505812Y-72602482D01*
X114518072Y-72478000D01*
X114515000Y-71913750D01*
X114356250Y-71755000D01*
X113157000Y-71755000D01*
X113157000Y-71775000D01*
X112903000Y-71775000D01*
X112903000Y-71755000D01*
X111703750Y-71755000D01*
X111545000Y-71913750D01*
X111541928Y-72478000D01*
X111554188Y-72602482D01*
X111590498Y-72722180D01*
X111603230Y-72746000D01*
X107646977Y-72746000D01*
X107777588Y-72628269D01*
X107951641Y-72394920D01*
X108076825Y-72132099D01*
X108121476Y-71984890D01*
X108000155Y-71755000D01*
X106807000Y-71755000D01*
X106807000Y-71775000D01*
X106553000Y-71775000D01*
X106553000Y-71755000D01*
X105359845Y-71755000D01*
X105238524Y-71984890D01*
X105283175Y-72132099D01*
X105408359Y-72394920D01*
X105582412Y-72628269D01*
X105713023Y-72746000D01*
X101296977Y-72746000D01*
X101427588Y-72628269D01*
X101601641Y-72394920D01*
X101726825Y-72132099D01*
X101771476Y-71984890D01*
X101650155Y-71755000D01*
X100457000Y-71755000D01*
X100457000Y-71775000D01*
X100203000Y-71775000D01*
X100203000Y-71755000D01*
X99009845Y-71755000D01*
X98888524Y-71984890D01*
X98933175Y-72132099D01*
X99058359Y-72394920D01*
X99232412Y-72628269D01*
X99363023Y-72746000D01*
X79534279Y-72746000D01*
X79236124Y-72716766D01*
X78980376Y-72639551D01*
X78744496Y-72514131D01*
X78537475Y-72345289D01*
X78515754Y-72319033D01*
X78600820Y-72364502D01*
X78720518Y-72400812D01*
X78845000Y-72413072D01*
X80845000Y-72413072D01*
X80969482Y-72400812D01*
X81089180Y-72364502D01*
X81195000Y-72307939D01*
X81300820Y-72364502D01*
X81420518Y-72400812D01*
X81545000Y-72413072D01*
X83745000Y-72413072D01*
X83869482Y-72400812D01*
X83989180Y-72364502D01*
X84099494Y-72305537D01*
X84196185Y-72226185D01*
X84275537Y-72129494D01*
X84334502Y-72019180D01*
X84370812Y-71899482D01*
X84383072Y-71775000D01*
X84383072Y-68975000D01*
X84370812Y-68850518D01*
X84334502Y-68730820D01*
X84275537Y-68620506D01*
X84196185Y-68523815D01*
X84099494Y-68444463D01*
X83989180Y-68385498D01*
X83869482Y-68349188D01*
X83745000Y-68336928D01*
X82548000Y-68336928D01*
X82548000Y-67759711D01*
X82591937Y-67715774D01*
X82629480Y-67659587D01*
X82798368Y-67828475D01*
X83041589Y-67990990D01*
X83311842Y-68102932D01*
X83598740Y-68160000D01*
X83891260Y-68160000D01*
X84178158Y-68102932D01*
X84448411Y-67990990D01*
X84691632Y-67828475D01*
X84898475Y-67621632D01*
X85060990Y-67378411D01*
X85172932Y-67108158D01*
X85230000Y-66821260D01*
X85230000Y-66528740D01*
X89260000Y-66528740D01*
X89260000Y-66821260D01*
X89317068Y-67108158D01*
X89429010Y-67378411D01*
X89591525Y-67621632D01*
X89798368Y-67828475D01*
X90041589Y-67990990D01*
X90311842Y-68102932D01*
X90598740Y-68160000D01*
X90891260Y-68160000D01*
X91178158Y-68102932D01*
X91448411Y-67990990D01*
X91691632Y-67828475D01*
X91898475Y-67621632D01*
X92060990Y-67378411D01*
X92172932Y-67108158D01*
X92230000Y-66821260D01*
X92230000Y-66528740D01*
X92172932Y-66241842D01*
X92060990Y-65971589D01*
X91898475Y-65728368D01*
X91691632Y-65521525D01*
X91448411Y-65359010D01*
X91178158Y-65247068D01*
X90891260Y-65190000D01*
X90598740Y-65190000D01*
X90311842Y-65247068D01*
X90041589Y-65359010D01*
X89798368Y-65521525D01*
X89591525Y-65728368D01*
X89429010Y-65971589D01*
X89317068Y-66241842D01*
X89260000Y-66528740D01*
X85230000Y-66528740D01*
X85172932Y-66241842D01*
X85060990Y-65971589D01*
X84898475Y-65728368D01*
X84691632Y-65521525D01*
X84448411Y-65359010D01*
X84178158Y-65247068D01*
X83891260Y-65190000D01*
X83598740Y-65190000D01*
X83311842Y-65247068D01*
X83041589Y-65359010D01*
X82798368Y-65521525D01*
X82591525Y-65728368D01*
X82548000Y-65793508D01*
X82548000Y-61909801D01*
X82806928Y-61650874D01*
X82806928Y-64375000D01*
X82819188Y-64499482D01*
X82855498Y-64619180D01*
X82914463Y-64729494D01*
X82993815Y-64826185D01*
X83090506Y-64905537D01*
X83200820Y-64964502D01*
X83320518Y-65000812D01*
X83445000Y-65013072D01*
X85645000Y-65013072D01*
X85769482Y-65000812D01*
X85889180Y-64964502D01*
X85999494Y-64905537D01*
X86096185Y-64826185D01*
X86175537Y-64729494D01*
X86234502Y-64619180D01*
X86270812Y-64499482D01*
X86281890Y-64387000D01*
X94023289Y-64387000D01*
X94019188Y-64400518D01*
X94006928Y-64525000D01*
X94006928Y-67238270D01*
X92908271Y-68336928D01*
X90645000Y-68336928D01*
X90520518Y-68349188D01*
X90400820Y-68385498D01*
X90290506Y-68444463D01*
X90193815Y-68523815D01*
X90114463Y-68620506D01*
X90055498Y-68730820D01*
X90019188Y-68850518D01*
X90006928Y-68975000D01*
X90006928Y-71575000D01*
X90019188Y-71699482D01*
X90055498Y-71819180D01*
X90114463Y-71929494D01*
X90193815Y-72026185D01*
X90290506Y-72105537D01*
X90400820Y-72164502D01*
X90520518Y-72200812D01*
X90645000Y-72213072D01*
X93445000Y-72213072D01*
X93569482Y-72200812D01*
X93689180Y-72164502D01*
X93799494Y-72105537D01*
X93896185Y-72026185D01*
X93975537Y-71929494D01*
X94034502Y-71819180D01*
X94070812Y-71699482D01*
X94083072Y-71575000D01*
X94083072Y-69311729D01*
X95431730Y-67963072D01*
X97445000Y-67963072D01*
X97569482Y-67950812D01*
X97689180Y-67914502D01*
X97799494Y-67855537D01*
X97896185Y-67776185D01*
X97975537Y-67679494D01*
X98034502Y-67569180D01*
X98070812Y-67449482D01*
X98083072Y-67325000D01*
X98083072Y-66665180D01*
X98197247Y-66630546D01*
X98329276Y-66559974D01*
X98445001Y-66465001D01*
X98468804Y-66435997D01*
X98841928Y-66062873D01*
X98841928Y-67398000D01*
X98854188Y-67522482D01*
X98890498Y-67642180D01*
X98949463Y-67752494D01*
X99028815Y-67849185D01*
X99125506Y-67928537D01*
X99235820Y-67987502D01*
X99308380Y-68009513D01*
X99176525Y-68141368D01*
X99014010Y-68384589D01*
X98902068Y-68654842D01*
X98845000Y-68941740D01*
X98845000Y-69234260D01*
X98902068Y-69521158D01*
X99014010Y-69791411D01*
X99176525Y-70034632D01*
X99383368Y-70241475D01*
X99565534Y-70363195D01*
X99448645Y-70432822D01*
X99232412Y-70627731D01*
X99058359Y-70861080D01*
X98933175Y-71123901D01*
X98888524Y-71271110D01*
X99009845Y-71501000D01*
X100203000Y-71501000D01*
X100203000Y-71481000D01*
X100457000Y-71481000D01*
X100457000Y-71501000D01*
X101650155Y-71501000D01*
X101771476Y-71271110D01*
X101726825Y-71123901D01*
X101601641Y-70861080D01*
X101427588Y-70627731D01*
X101211355Y-70432822D01*
X101094466Y-70363195D01*
X101276632Y-70241475D01*
X101483475Y-70034632D01*
X101645990Y-69791411D01*
X101757932Y-69521158D01*
X101815000Y-69234260D01*
X101815000Y-68941740D01*
X101757932Y-68654842D01*
X101645990Y-68384589D01*
X101483475Y-68141368D01*
X101351620Y-68009513D01*
X101424180Y-67987502D01*
X101534494Y-67928537D01*
X101631185Y-67849185D01*
X101710537Y-67752494D01*
X101769502Y-67642180D01*
X101805812Y-67522482D01*
X101818072Y-67398000D01*
X101818072Y-67018613D01*
X103443685Y-65393000D01*
X105483856Y-65393000D01*
X105585820Y-65447502D01*
X105658380Y-65469513D01*
X105526525Y-65601368D01*
X105364010Y-65844589D01*
X105252068Y-66114842D01*
X105195000Y-66401740D01*
X105195000Y-66694260D01*
X105252068Y-66981158D01*
X105364010Y-67251411D01*
X105526525Y-67494632D01*
X105733368Y-67701475D01*
X105907760Y-67818000D01*
X105733368Y-67934525D01*
X105526525Y-68141368D01*
X105364010Y-68384589D01*
X105252068Y-68654842D01*
X105195000Y-68941740D01*
X105195000Y-69234260D01*
X105252068Y-69521158D01*
X105364010Y-69791411D01*
X105526525Y-70034632D01*
X105733368Y-70241475D01*
X105915534Y-70363195D01*
X105798645Y-70432822D01*
X105582412Y-70627731D01*
X105408359Y-70861080D01*
X105283175Y-71123901D01*
X105238524Y-71271110D01*
X105359845Y-71501000D01*
X106553000Y-71501000D01*
X106553000Y-71481000D01*
X106807000Y-71481000D01*
X106807000Y-71501000D01*
X108000155Y-71501000D01*
X108121476Y-71271110D01*
X108076825Y-71123901D01*
X107951641Y-70861080D01*
X107777588Y-70627731D01*
X107561355Y-70432822D01*
X107444466Y-70363195D01*
X107626632Y-70241475D01*
X107833475Y-70034632D01*
X107995990Y-69791411D01*
X108107932Y-69521158D01*
X108165000Y-69234260D01*
X108165000Y-68941740D01*
X108107932Y-68654842D01*
X107995990Y-68384589D01*
X107833475Y-68141368D01*
X107626632Y-67934525D01*
X107452240Y-67818000D01*
X107626632Y-67701475D01*
X107833475Y-67494632D01*
X107995990Y-67251411D01*
X108107932Y-66981158D01*
X108165000Y-66694260D01*
X108165000Y-66401740D01*
X108107932Y-66114842D01*
X107995990Y-65844589D01*
X107833475Y-65601368D01*
X107701620Y-65469513D01*
X107774180Y-65447502D01*
X107876144Y-65393000D01*
X112085650Y-65393000D01*
X112083368Y-65394525D01*
X111876525Y-65601368D01*
X111714010Y-65844589D01*
X111602068Y-66114842D01*
X111545000Y-66401740D01*
X111545000Y-66694260D01*
X111602068Y-66981158D01*
X111714010Y-67251411D01*
X111876525Y-67494632D01*
X112083368Y-67701475D01*
X112257760Y-67818000D01*
X112083368Y-67934525D01*
X111876525Y-68141368D01*
X111714010Y-68384589D01*
X111602068Y-68654842D01*
X111545000Y-68941740D01*
X111545000Y-69234260D01*
X111602068Y-69521158D01*
X111714010Y-69791411D01*
X111876525Y-70034632D01*
X112008380Y-70166487D01*
X111935820Y-70188498D01*
X111825506Y-70247463D01*
X111728815Y-70326815D01*
X111649463Y-70423506D01*
X111590498Y-70533820D01*
X111554188Y-70653518D01*
X111541928Y-70778000D01*
X111545000Y-71342250D01*
X111703750Y-71501000D01*
X112903000Y-71501000D01*
X112903000Y-71481000D01*
X113157000Y-71481000D01*
X113157000Y-71501000D01*
X114356250Y-71501000D01*
X114515000Y-71342250D01*
X114518072Y-70778000D01*
X114509910Y-70695117D01*
X153205000Y-70695117D01*
X153205000Y-71036883D01*
X153271675Y-71372081D01*
X153402463Y-71687831D01*
X153592337Y-71971998D01*
X153834002Y-72213663D01*
X154118169Y-72403537D01*
X154433919Y-72534325D01*
X154769117Y-72601000D01*
X155110883Y-72601000D01*
X155446081Y-72534325D01*
X155761831Y-72403537D01*
X156045998Y-72213663D01*
X156287663Y-71971998D01*
X156477537Y-71687831D01*
X156608325Y-71372081D01*
X156675000Y-71036883D01*
X156675000Y-70695117D01*
X156608325Y-70359919D01*
X156477537Y-70044169D01*
X156287663Y-69760002D01*
X156045998Y-69518337D01*
X155761831Y-69328463D01*
X155446081Y-69197675D01*
X155110883Y-69131000D01*
X154769117Y-69131000D01*
X154433919Y-69197675D01*
X154118169Y-69328463D01*
X153834002Y-69518337D01*
X153592337Y-69760002D01*
X153402463Y-70044169D01*
X153271675Y-70359919D01*
X153205000Y-70695117D01*
X114509910Y-70695117D01*
X114505812Y-70653518D01*
X114469502Y-70533820D01*
X114410537Y-70423506D01*
X114331185Y-70326815D01*
X114234494Y-70247463D01*
X114124180Y-70188498D01*
X114051620Y-70166487D01*
X114183475Y-70034632D01*
X114345990Y-69791411D01*
X114410606Y-69635413D01*
X122234192Y-69635413D01*
X122329956Y-69899814D01*
X122619571Y-70040704D01*
X122931108Y-70122384D01*
X123252595Y-70141718D01*
X123571675Y-70097961D01*
X123876088Y-69992795D01*
X124050044Y-69899814D01*
X124145808Y-69635413D01*
X134934192Y-69635413D01*
X135029956Y-69899814D01*
X135319571Y-70040704D01*
X135631108Y-70122384D01*
X135952595Y-70141718D01*
X136271675Y-70097961D01*
X136576088Y-69992795D01*
X136750044Y-69899814D01*
X136845808Y-69635413D01*
X147634192Y-69635413D01*
X147729956Y-69899814D01*
X148019571Y-70040704D01*
X148331108Y-70122384D01*
X148652595Y-70141718D01*
X148971675Y-70097961D01*
X149276088Y-69992795D01*
X149450044Y-69899814D01*
X149545808Y-69635413D01*
X148590000Y-68679605D01*
X147634192Y-69635413D01*
X136845808Y-69635413D01*
X135890000Y-68679605D01*
X134934192Y-69635413D01*
X124145808Y-69635413D01*
X123190000Y-68679605D01*
X122234192Y-69635413D01*
X114410606Y-69635413D01*
X114457932Y-69521158D01*
X114515000Y-69234260D01*
X114515000Y-68941740D01*
X114457932Y-68654842D01*
X114419723Y-68562595D01*
X121548282Y-68562595D01*
X121592039Y-68881675D01*
X121697205Y-69186088D01*
X121790186Y-69360044D01*
X122054587Y-69455808D01*
X123010395Y-68500000D01*
X123369605Y-68500000D01*
X124325413Y-69455808D01*
X124589814Y-69360044D01*
X124730704Y-69070429D01*
X124812384Y-68758892D01*
X124824189Y-68562595D01*
X134248282Y-68562595D01*
X134292039Y-68881675D01*
X134397205Y-69186088D01*
X134490186Y-69360044D01*
X134754587Y-69455808D01*
X135710395Y-68500000D01*
X136069605Y-68500000D01*
X137025413Y-69455808D01*
X137289814Y-69360044D01*
X137430704Y-69070429D01*
X137512384Y-68758892D01*
X137524189Y-68562595D01*
X146948282Y-68562595D01*
X146992039Y-68881675D01*
X147097205Y-69186088D01*
X147190186Y-69360044D01*
X147454587Y-69455808D01*
X148410395Y-68500000D01*
X148769605Y-68500000D01*
X149725413Y-69455808D01*
X149989814Y-69360044D01*
X150130704Y-69070429D01*
X150212384Y-68758892D01*
X150231718Y-68437405D01*
X150187961Y-68118325D01*
X150082795Y-67813912D01*
X149989814Y-67639956D01*
X149725413Y-67544192D01*
X148769605Y-68500000D01*
X148410395Y-68500000D01*
X147454587Y-67544192D01*
X147190186Y-67639956D01*
X147049296Y-67929571D01*
X146967616Y-68241108D01*
X146948282Y-68562595D01*
X137524189Y-68562595D01*
X137531718Y-68437405D01*
X137487961Y-68118325D01*
X137382795Y-67813912D01*
X137289814Y-67639956D01*
X137025413Y-67544192D01*
X136069605Y-68500000D01*
X135710395Y-68500000D01*
X134754587Y-67544192D01*
X134490186Y-67639956D01*
X134349296Y-67929571D01*
X134267616Y-68241108D01*
X134248282Y-68562595D01*
X124824189Y-68562595D01*
X124831718Y-68437405D01*
X124787961Y-68118325D01*
X124682795Y-67813912D01*
X124589814Y-67639956D01*
X124325413Y-67544192D01*
X123369605Y-68500000D01*
X123010395Y-68500000D01*
X122054587Y-67544192D01*
X121790186Y-67639956D01*
X121649296Y-67929571D01*
X121567616Y-68241108D01*
X121548282Y-68562595D01*
X114419723Y-68562595D01*
X114345990Y-68384589D01*
X114183475Y-68141368D01*
X113976632Y-67934525D01*
X113802240Y-67818000D01*
X113976632Y-67701475D01*
X114183475Y-67494632D01*
X114270368Y-67364587D01*
X122234192Y-67364587D01*
X123190000Y-68320395D01*
X124145808Y-67364587D01*
X134934192Y-67364587D01*
X135890000Y-68320395D01*
X136845808Y-67364587D01*
X147634192Y-67364587D01*
X148590000Y-68320395D01*
X149545808Y-67364587D01*
X149450044Y-67100186D01*
X149160429Y-66959296D01*
X148848892Y-66877616D01*
X148527405Y-66858282D01*
X148208325Y-66902039D01*
X147903912Y-67007205D01*
X147729956Y-67100186D01*
X147634192Y-67364587D01*
X136845808Y-67364587D01*
X136750044Y-67100186D01*
X136460429Y-66959296D01*
X136148892Y-66877616D01*
X135827405Y-66858282D01*
X135508325Y-66902039D01*
X135203912Y-67007205D01*
X135029956Y-67100186D01*
X134934192Y-67364587D01*
X124145808Y-67364587D01*
X124050044Y-67100186D01*
X123760429Y-66959296D01*
X123448892Y-66877616D01*
X123127405Y-66858282D01*
X122808325Y-66902039D01*
X122503912Y-67007205D01*
X122329956Y-67100186D01*
X122234192Y-67364587D01*
X114270368Y-67364587D01*
X114345990Y-67251411D01*
X114457932Y-66981158D01*
X114515000Y-66694260D01*
X114515000Y-66401740D01*
X114457932Y-66114842D01*
X114345990Y-65844589D01*
X114183475Y-65601368D01*
X113976632Y-65394525D01*
X113802240Y-65278000D01*
X113976632Y-65161475D01*
X114183475Y-64954632D01*
X114230002Y-64885000D01*
X121684499Y-64885000D01*
X121738815Y-64951185D01*
X121835506Y-65030537D01*
X121945820Y-65089502D01*
X122065518Y-65125812D01*
X122190000Y-65138072D01*
X124190000Y-65138072D01*
X124314482Y-65125812D01*
X124434180Y-65089502D01*
X124544494Y-65030537D01*
X124641185Y-64951185D01*
X124695501Y-64885000D01*
X134384499Y-64885000D01*
X134438815Y-64951185D01*
X134535506Y-65030537D01*
X134645820Y-65089502D01*
X134765518Y-65125812D01*
X134890000Y-65138072D01*
X136890000Y-65138072D01*
X137014482Y-65125812D01*
X137134180Y-65089502D01*
X137244494Y-65030537D01*
X137341185Y-64951185D01*
X137395501Y-64885000D01*
X147084499Y-64885000D01*
X147138815Y-64951185D01*
X147235506Y-65030537D01*
X147345820Y-65089502D01*
X147465518Y-65125812D01*
X147590000Y-65138072D01*
X149590000Y-65138072D01*
X149714482Y-65125812D01*
X149834180Y-65089502D01*
X149944494Y-65030537D01*
X150041185Y-64951185D01*
X150120537Y-64854494D01*
X150179502Y-64744180D01*
X150215812Y-64624482D01*
X150228072Y-64500000D01*
X150228072Y-62500000D01*
X150215812Y-62375518D01*
X150179502Y-62255820D01*
X150120537Y-62145506D01*
X150041185Y-62048815D01*
X149975000Y-61994499D01*
X149975000Y-57091029D01*
X149981700Y-57023000D01*
X149975000Y-56954971D01*
X149975000Y-56954963D01*
X149954960Y-56751493D01*
X149936276Y-56689898D01*
X149875764Y-56490419D01*
X149766532Y-56286061D01*
X149747157Y-56249812D01*
X149675259Y-56162205D01*
X149617452Y-56091766D01*
X149617445Y-56091759D01*
X149574080Y-56038919D01*
X149521241Y-55995555D01*
X144895000Y-51369315D01*
X144895000Y-49641000D01*
X146590322Y-49641000D01*
X146830516Y-49617343D01*
X147138715Y-49523852D01*
X147422752Y-49372031D01*
X147671714Y-49167714D01*
X147876031Y-48918752D01*
X148027852Y-48634715D01*
X148121343Y-48326516D01*
X148152911Y-48006000D01*
X148121343Y-47685484D01*
X148027852Y-47377285D01*
X147876031Y-47093248D01*
X147671714Y-46844286D01*
X147422752Y-46639969D01*
X147138715Y-46488148D01*
X146830516Y-46394657D01*
X146590322Y-46371000D01*
X140429678Y-46371000D01*
X140189484Y-46394657D01*
X139881285Y-46488148D01*
X139597248Y-46639969D01*
X139348286Y-46844286D01*
X139143969Y-47093248D01*
X138992148Y-47377285D01*
X138898657Y-47685484D01*
X138867089Y-48006000D01*
X138898657Y-48326516D01*
X138992148Y-48634715D01*
X139143969Y-48918752D01*
X139348286Y-49167714D01*
X139597248Y-49372031D01*
X139881285Y-49523852D01*
X140189484Y-49617343D01*
X140429678Y-49641000D01*
X142125000Y-49641000D01*
X142125001Y-51874961D01*
X142118300Y-51943000D01*
X142145040Y-52214507D01*
X142224236Y-52475580D01*
X142352844Y-52716188D01*
X142482548Y-52874233D01*
X142482551Y-52874236D01*
X142525920Y-52927081D01*
X142578764Y-52970449D01*
X147205000Y-57596686D01*
X147205001Y-61994498D01*
X147138815Y-62048815D01*
X147084499Y-62115000D01*
X137395501Y-62115000D01*
X137341185Y-62048815D01*
X137244494Y-61969463D01*
X137134180Y-61910498D01*
X137014482Y-61874188D01*
X136890000Y-61861928D01*
X134890000Y-61861928D01*
X134765518Y-61874188D01*
X134645820Y-61910498D01*
X134535506Y-61969463D01*
X134438815Y-62048815D01*
X134384499Y-62115000D01*
X124695501Y-62115000D01*
X124641185Y-62048815D01*
X124544494Y-61969463D01*
X124434180Y-61910498D01*
X124314482Y-61874188D01*
X124190000Y-61861928D01*
X122190000Y-61861928D01*
X122065518Y-61874188D01*
X121945820Y-61910498D01*
X121835506Y-61969463D01*
X121738815Y-62048815D01*
X121684499Y-62115000D01*
X113606026Y-62115000D01*
X113537999Y-62108300D01*
X113469972Y-62115000D01*
X113469963Y-62115000D01*
X113266493Y-62135040D01*
X113005419Y-62214236D01*
X112764812Y-62342843D01*
X112553919Y-62515919D01*
X112510542Y-62568774D01*
X112456316Y-62623000D01*
X111425801Y-62623000D01*
X113892199Y-60156602D01*
X113924363Y-60163000D01*
X114167637Y-60163000D01*
X114406236Y-60115540D01*
X114630992Y-60022443D01*
X114833267Y-59887287D01*
X115005287Y-59715267D01*
X115140443Y-59512992D01*
X115233540Y-59288236D01*
X115281000Y-59049637D01*
X115281000Y-58806363D01*
X115351000Y-58806363D01*
X115351000Y-59049637D01*
X115398460Y-59288236D01*
X115491557Y-59512992D01*
X115626713Y-59715267D01*
X115798733Y-59887287D01*
X116001008Y-60022443D01*
X116225764Y-60115540D01*
X116464363Y-60163000D01*
X116707637Y-60163000D01*
X116946236Y-60115540D01*
X117170992Y-60022443D01*
X117373267Y-59887287D01*
X117545287Y-59715267D01*
X117680443Y-59512992D01*
X117773540Y-59288236D01*
X117821000Y-59049637D01*
X117821000Y-58806363D01*
X117891000Y-58806363D01*
X117891000Y-59049637D01*
X117938460Y-59288236D01*
X118031557Y-59512992D01*
X118166713Y-59715267D01*
X118338733Y-59887287D01*
X118541008Y-60022443D01*
X118765764Y-60115540D01*
X119004363Y-60163000D01*
X119247637Y-60163000D01*
X119486236Y-60115540D01*
X119710992Y-60022443D01*
X119913267Y-59887287D01*
X120085287Y-59715267D01*
X120220443Y-59512992D01*
X120313540Y-59288236D01*
X120361000Y-59049637D01*
X120361000Y-58806363D01*
X120313540Y-58567764D01*
X120220443Y-58343008D01*
X120085287Y-58140733D01*
X119913267Y-57968713D01*
X119710992Y-57833557D01*
X119486236Y-57740460D01*
X119247637Y-57693000D01*
X119004363Y-57693000D01*
X118765764Y-57740460D01*
X118541008Y-57833557D01*
X118338733Y-57968713D01*
X118166713Y-58140733D01*
X118031557Y-58343008D01*
X117938460Y-58567764D01*
X117891000Y-58806363D01*
X117821000Y-58806363D01*
X117773540Y-58567764D01*
X117680443Y-58343008D01*
X117545287Y-58140733D01*
X117373267Y-57968713D01*
X117170992Y-57833557D01*
X116946236Y-57740460D01*
X116707637Y-57693000D01*
X116464363Y-57693000D01*
X116225764Y-57740460D01*
X116001008Y-57833557D01*
X115798733Y-57968713D01*
X115626713Y-58140733D01*
X115491557Y-58343008D01*
X115398460Y-58567764D01*
X115351000Y-58806363D01*
X115281000Y-58806363D01*
X115233540Y-58567764D01*
X115140443Y-58343008D01*
X115005287Y-58140733D01*
X114833267Y-57968713D01*
X114630992Y-57833557D01*
X114406236Y-57740460D01*
X114167637Y-57693000D01*
X113924363Y-57693000D01*
X113685764Y-57740460D01*
X113461008Y-57833557D01*
X113258733Y-57968713D01*
X113086713Y-58140733D01*
X112951557Y-58343008D01*
X112858460Y-58567764D01*
X112811000Y-58806363D01*
X112811000Y-59049637D01*
X112817398Y-59081801D01*
X112714044Y-59185154D01*
X112741000Y-59049637D01*
X112741000Y-58806363D01*
X112693540Y-58567764D01*
X112600443Y-58343008D01*
X112465287Y-58140733D01*
X112293267Y-57968713D01*
X112090992Y-57833557D01*
X111866236Y-57740460D01*
X111627637Y-57693000D01*
X111384363Y-57693000D01*
X111145764Y-57740460D01*
X110921008Y-57833557D01*
X110718733Y-57968713D01*
X110546713Y-58140733D01*
X110411557Y-58343008D01*
X110318460Y-58567764D01*
X110271000Y-58806363D01*
X110271000Y-59049637D01*
X110277398Y-59081801D01*
X110174044Y-59185154D01*
X110201000Y-59049637D01*
X110201000Y-58806363D01*
X110153540Y-58567764D01*
X110060443Y-58343008D01*
X109925287Y-58140733D01*
X109753267Y-57968713D01*
X109550992Y-57833557D01*
X109326236Y-57740460D01*
X109087637Y-57693000D01*
X108844363Y-57693000D01*
X108605764Y-57740460D01*
X108381008Y-57833557D01*
X108178733Y-57968713D01*
X108006713Y-58140733D01*
X107871557Y-58343008D01*
X107778460Y-58567764D01*
X107731000Y-58806363D01*
X107731000Y-59049637D01*
X107737398Y-59081801D01*
X107634044Y-59185154D01*
X107661000Y-59049637D01*
X107661000Y-58806363D01*
X107613540Y-58567764D01*
X107520443Y-58343008D01*
X107385287Y-58140733D01*
X107213267Y-57968713D01*
X107010992Y-57833557D01*
X106786236Y-57740460D01*
X106547637Y-57693000D01*
X106304363Y-57693000D01*
X106065764Y-57740460D01*
X105841008Y-57833557D01*
X105638733Y-57968713D01*
X105466713Y-58140733D01*
X105331557Y-58343008D01*
X105238460Y-58567764D01*
X105191000Y-58806363D01*
X105191000Y-59049637D01*
X105197398Y-59081801D01*
X105094044Y-59185155D01*
X105121000Y-59049637D01*
X105121000Y-58806363D01*
X105073540Y-58567764D01*
X104980443Y-58343008D01*
X104845287Y-58140733D01*
X104673267Y-57968713D01*
X104470992Y-57833557D01*
X104246236Y-57740460D01*
X104007637Y-57693000D01*
X103764363Y-57693000D01*
X103525764Y-57740460D01*
X103301008Y-57833557D01*
X103098733Y-57968713D01*
X102926713Y-58140733D01*
X102791557Y-58343008D01*
X102698460Y-58567764D01*
X102651000Y-58806363D01*
X102651000Y-59049637D01*
X102698460Y-59288236D01*
X102760494Y-59438000D01*
X102471506Y-59438000D01*
X102533540Y-59288236D01*
X102581000Y-59049637D01*
X102581000Y-58806363D01*
X102533540Y-58567764D01*
X102440443Y-58343008D01*
X102305287Y-58140733D01*
X102133267Y-57968713D01*
X101930992Y-57833557D01*
X101706236Y-57740460D01*
X101467637Y-57693000D01*
X101224363Y-57693000D01*
X100985764Y-57740460D01*
X100761008Y-57833557D01*
X100558733Y-57968713D01*
X100386713Y-58140733D01*
X100251557Y-58343008D01*
X100158460Y-58567764D01*
X100111000Y-58806363D01*
X100111000Y-59049637D01*
X100158460Y-59288236D01*
X100220494Y-59438000D01*
X99931506Y-59438000D01*
X99993540Y-59288236D01*
X100041000Y-59049637D01*
X100041000Y-58806363D01*
X99993540Y-58567764D01*
X99900443Y-58343008D01*
X99765287Y-58140733D01*
X99593267Y-57968713D01*
X99390992Y-57833557D01*
X99166236Y-57740460D01*
X98927637Y-57693000D01*
X98684363Y-57693000D01*
X98445764Y-57740460D01*
X98221008Y-57833557D01*
X98018733Y-57968713D01*
X97846713Y-58140733D01*
X97711557Y-58343008D01*
X97618460Y-58567764D01*
X97571000Y-58806363D01*
X97571000Y-59049637D01*
X97618460Y-59288236D01*
X97711557Y-59512992D01*
X97846713Y-59715267D01*
X98018733Y-59887287D01*
X98221008Y-60022443D01*
X98445764Y-60115540D01*
X98660037Y-60158161D01*
X97348199Y-61470000D01*
X89341802Y-61470000D01*
X87649566Y-59777764D01*
X87975841Y-59777764D01*
X88023148Y-60001348D01*
X88244516Y-60102237D01*
X88481313Y-60158000D01*
X88724438Y-60166495D01*
X88964549Y-60127395D01*
X89192418Y-60042202D01*
X89268852Y-60001348D01*
X89316159Y-59777764D01*
X88646000Y-59107605D01*
X87975841Y-59777764D01*
X87649566Y-59777764D01*
X87558804Y-59687003D01*
X87535001Y-59657999D01*
X87419276Y-59563026D01*
X87287247Y-59492454D01*
X87217690Y-59471354D01*
X87293540Y-59288236D01*
X87341000Y-59049637D01*
X87341000Y-59006438D01*
X87407505Y-59006438D01*
X87446605Y-59246549D01*
X87531798Y-59474418D01*
X87572652Y-59550852D01*
X87796236Y-59598159D01*
X88466395Y-58928000D01*
X88825605Y-58928000D01*
X89495764Y-59598159D01*
X89719348Y-59550852D01*
X89820237Y-59329484D01*
X89876000Y-59092687D01*
X89884495Y-58849562D01*
X89877461Y-58806363D01*
X89951000Y-58806363D01*
X89951000Y-59049637D01*
X89998460Y-59288236D01*
X90091557Y-59512992D01*
X90226713Y-59715267D01*
X90398733Y-59887287D01*
X90601008Y-60022443D01*
X90825764Y-60115540D01*
X91064363Y-60163000D01*
X91307637Y-60163000D01*
X91546236Y-60115540D01*
X91770992Y-60022443D01*
X91973267Y-59887287D01*
X92145287Y-59715267D01*
X92280443Y-59512992D01*
X92373540Y-59288236D01*
X92421000Y-59049637D01*
X92421000Y-58806363D01*
X92491000Y-58806363D01*
X92491000Y-59049637D01*
X92538460Y-59288236D01*
X92631557Y-59512992D01*
X92766713Y-59715267D01*
X92938733Y-59887287D01*
X93141008Y-60022443D01*
X93365764Y-60115540D01*
X93604363Y-60163000D01*
X93847637Y-60163000D01*
X94086236Y-60115540D01*
X94310992Y-60022443D01*
X94513267Y-59887287D01*
X94685287Y-59715267D01*
X94820443Y-59512992D01*
X94913540Y-59288236D01*
X94961000Y-59049637D01*
X94961000Y-58806363D01*
X95031000Y-58806363D01*
X95031000Y-59049637D01*
X95078460Y-59288236D01*
X95171557Y-59512992D01*
X95306713Y-59715267D01*
X95478733Y-59887287D01*
X95681008Y-60022443D01*
X95905764Y-60115540D01*
X96144363Y-60163000D01*
X96387637Y-60163000D01*
X96626236Y-60115540D01*
X96850992Y-60022443D01*
X97053267Y-59887287D01*
X97225287Y-59715267D01*
X97360443Y-59512992D01*
X97453540Y-59288236D01*
X97501000Y-59049637D01*
X97501000Y-58806363D01*
X97453540Y-58567764D01*
X97360443Y-58343008D01*
X97225287Y-58140733D01*
X97053267Y-57968713D01*
X96850992Y-57833557D01*
X96626236Y-57740460D01*
X96387637Y-57693000D01*
X96144363Y-57693000D01*
X95905764Y-57740460D01*
X95681008Y-57833557D01*
X95478733Y-57968713D01*
X95306713Y-58140733D01*
X95171557Y-58343008D01*
X95078460Y-58567764D01*
X95031000Y-58806363D01*
X94961000Y-58806363D01*
X94913540Y-58567764D01*
X94820443Y-58343008D01*
X94685287Y-58140733D01*
X94513267Y-57968713D01*
X94310992Y-57833557D01*
X94086236Y-57740460D01*
X93847637Y-57693000D01*
X93604363Y-57693000D01*
X93365764Y-57740460D01*
X93141008Y-57833557D01*
X92938733Y-57968713D01*
X92766713Y-58140733D01*
X92631557Y-58343008D01*
X92538460Y-58567764D01*
X92491000Y-58806363D01*
X92421000Y-58806363D01*
X92373540Y-58567764D01*
X92280443Y-58343008D01*
X92145287Y-58140733D01*
X91973267Y-57968713D01*
X91770992Y-57833557D01*
X91546236Y-57740460D01*
X91307637Y-57693000D01*
X91064363Y-57693000D01*
X90825764Y-57740460D01*
X90601008Y-57833557D01*
X90398733Y-57968713D01*
X90226713Y-58140733D01*
X90091557Y-58343008D01*
X89998460Y-58567764D01*
X89951000Y-58806363D01*
X89877461Y-58806363D01*
X89845395Y-58609451D01*
X89760202Y-58381582D01*
X89719348Y-58305148D01*
X89495764Y-58257841D01*
X88825605Y-58928000D01*
X88466395Y-58928000D01*
X87796236Y-58257841D01*
X87572652Y-58305148D01*
X87471763Y-58526516D01*
X87416000Y-58763313D01*
X87407505Y-59006438D01*
X87341000Y-59006438D01*
X87341000Y-58806363D01*
X87293540Y-58567764D01*
X87200443Y-58343008D01*
X87065287Y-58140733D01*
X87002790Y-58078236D01*
X87975841Y-58078236D01*
X88646000Y-58748395D01*
X89316159Y-58078236D01*
X89268852Y-57854652D01*
X89047484Y-57753763D01*
X88810687Y-57698000D01*
X88567562Y-57689505D01*
X88327451Y-57728605D01*
X88099582Y-57813798D01*
X88023148Y-57854652D01*
X87975841Y-58078236D01*
X87002790Y-58078236D01*
X86893267Y-57968713D01*
X86690992Y-57833557D01*
X86466236Y-57740460D01*
X86227637Y-57693000D01*
X85984363Y-57693000D01*
X85745764Y-57740460D01*
X85521008Y-57833557D01*
X85318733Y-57968713D01*
X85146713Y-58140733D01*
X85011557Y-58343008D01*
X84918460Y-58567764D01*
X84871000Y-58806363D01*
X84871000Y-59049637D01*
X84918460Y-59288236D01*
X84980494Y-59438000D01*
X84691506Y-59438000D01*
X84753540Y-59288236D01*
X84801000Y-59049637D01*
X84801000Y-58806363D01*
X84753540Y-58567764D01*
X84660443Y-58343008D01*
X84525287Y-58140733D01*
X84353267Y-57968713D01*
X84150992Y-57833557D01*
X83926236Y-57740460D01*
X83687637Y-57693000D01*
X83444363Y-57693000D01*
X83205764Y-57740460D01*
X82981008Y-57833557D01*
X82778733Y-57968713D01*
X82606713Y-58140733D01*
X82471557Y-58343008D01*
X82378460Y-58567764D01*
X82331000Y-58806363D01*
X82331000Y-59049637D01*
X82378460Y-59288236D01*
X82440494Y-59438000D01*
X82151506Y-59438000D01*
X82213540Y-59288236D01*
X82261000Y-59049637D01*
X82261000Y-58806363D01*
X82213540Y-58567764D01*
X82120443Y-58343008D01*
X81985287Y-58140733D01*
X81813267Y-57968713D01*
X81610992Y-57833557D01*
X81386236Y-57740460D01*
X81147637Y-57693000D01*
X80904363Y-57693000D01*
X80665764Y-57740460D01*
X80441008Y-57833557D01*
X80238733Y-57968713D01*
X80066713Y-58140733D01*
X79931557Y-58343008D01*
X79838460Y-58567764D01*
X79791000Y-58806363D01*
X79791000Y-59049637D01*
X79838460Y-59288236D01*
X79931557Y-59512992D01*
X80066713Y-59715267D01*
X80238733Y-59887287D01*
X80441008Y-60022443D01*
X80665764Y-60115540D01*
X80668178Y-60116020D01*
X79334003Y-61450196D01*
X79304999Y-61473999D01*
X79272999Y-61512992D01*
X79210026Y-61589724D01*
X79156428Y-61689999D01*
X79139454Y-61721754D01*
X79095997Y-61865015D01*
X79085000Y-61976668D01*
X79085000Y-61976678D01*
X79081324Y-62014000D01*
X79085000Y-62051322D01*
X79085001Y-68336928D01*
X78845000Y-68336928D01*
X78720518Y-68349188D01*
X78600820Y-68385498D01*
X78490506Y-68444463D01*
X78393815Y-68523815D01*
X78314463Y-68620506D01*
X78255498Y-68730820D01*
X78219188Y-68850518D01*
X78206928Y-68975000D01*
X78206928Y-71775000D01*
X78210137Y-71807579D01*
X78161123Y-71649240D01*
X78130000Y-71353118D01*
X78130000Y-56286061D01*
X97035000Y-56286061D01*
X97035000Y-56489939D01*
X97074774Y-56689898D01*
X97152795Y-56878256D01*
X97266063Y-57047774D01*
X97410226Y-57191937D01*
X97579744Y-57305205D01*
X97768102Y-57383226D01*
X97968061Y-57423000D01*
X98171939Y-57423000D01*
X98371898Y-57383226D01*
X98560256Y-57305205D01*
X98729774Y-57191937D01*
X98873937Y-57047774D01*
X98987205Y-56878256D01*
X99065226Y-56689898D01*
X99105000Y-56489939D01*
X99105000Y-56286061D01*
X99065226Y-56086102D01*
X98987205Y-55897744D01*
X98873937Y-55728226D01*
X98729774Y-55584063D01*
X98560256Y-55470795D01*
X98371898Y-55392774D01*
X98171939Y-55353000D01*
X97968061Y-55353000D01*
X97768102Y-55392774D01*
X97579744Y-55470795D01*
X97410226Y-55584063D01*
X97266063Y-55728226D01*
X97152795Y-55897744D01*
X97074774Y-56086102D01*
X97035000Y-56286061D01*
X78130000Y-56286061D01*
X78130000Y-53873061D01*
X106026000Y-53873061D01*
X106026000Y-54076939D01*
X106065774Y-54276898D01*
X106143795Y-54465256D01*
X106257063Y-54634774D01*
X106401226Y-54778937D01*
X106570744Y-54892205D01*
X106759102Y-54970226D01*
X106959061Y-55010000D01*
X107162939Y-55010000D01*
X107362898Y-54970226D01*
X107551256Y-54892205D01*
X107720774Y-54778937D01*
X107764711Y-54735000D01*
X111826199Y-54735000D01*
X112376000Y-55284802D01*
X112376000Y-55346939D01*
X112415774Y-55546898D01*
X112493795Y-55735256D01*
X112607063Y-55904774D01*
X112751226Y-56048937D01*
X112920744Y-56162205D01*
X113109102Y-56240226D01*
X113309061Y-56280000D01*
X113512939Y-56280000D01*
X113712898Y-56240226D01*
X113901256Y-56162205D01*
X114070774Y-56048937D01*
X114214937Y-55904774D01*
X114328205Y-55735256D01*
X114406226Y-55546898D01*
X114446000Y-55346939D01*
X114446000Y-55143061D01*
X114406226Y-54943102D01*
X114328205Y-54754744D01*
X114214937Y-54585226D01*
X114070774Y-54441063D01*
X113901256Y-54327795D01*
X113712898Y-54249774D01*
X113512939Y-54210000D01*
X113450802Y-54210000D01*
X112704804Y-53464003D01*
X112681001Y-53434999D01*
X112565276Y-53340026D01*
X112433247Y-53269454D01*
X112289986Y-53225997D01*
X112178333Y-53215000D01*
X112178322Y-53215000D01*
X112141000Y-53211324D01*
X112103678Y-53215000D01*
X107764711Y-53215000D01*
X107720774Y-53171063D01*
X107551256Y-53057795D01*
X107362898Y-52979774D01*
X107162939Y-52940000D01*
X106959061Y-52940000D01*
X106759102Y-52979774D01*
X106570744Y-53057795D01*
X106401226Y-53171063D01*
X106257063Y-53315226D01*
X106143795Y-53484744D01*
X106065774Y-53673102D01*
X106026000Y-53873061D01*
X78130000Y-53873061D01*
X78130000Y-45745061D01*
X91802000Y-45745061D01*
X91802000Y-45948939D01*
X91841774Y-46148898D01*
X91919795Y-46337256D01*
X92033063Y-46506774D01*
X92177226Y-46650937D01*
X92346744Y-46764205D01*
X92535102Y-46842226D01*
X92735061Y-46882000D01*
X92938939Y-46882000D01*
X93138898Y-46842226D01*
X93327256Y-46764205D01*
X93496774Y-46650937D01*
X93640937Y-46506774D01*
X93754205Y-46337256D01*
X93832226Y-46148898D01*
X93842151Y-46099000D01*
X100642289Y-46099000D01*
X100686226Y-46142937D01*
X100855744Y-46256205D01*
X101044102Y-46334226D01*
X101244061Y-46374000D01*
X101447939Y-46374000D01*
X101647898Y-46334226D01*
X101836256Y-46256205D01*
X102005774Y-46142937D01*
X102149937Y-45998774D01*
X102263205Y-45829256D01*
X102341226Y-45640898D01*
X102381000Y-45440939D01*
X102381000Y-45237061D01*
X102341226Y-45037102D01*
X102263205Y-44848744D01*
X102149937Y-44679226D01*
X102005774Y-44535063D01*
X101836256Y-44421795D01*
X101647898Y-44343774D01*
X101447939Y-44304000D01*
X101244061Y-44304000D01*
X101044102Y-44343774D01*
X100855744Y-44421795D01*
X100686226Y-44535063D01*
X100642289Y-44579000D01*
X93382322Y-44579000D01*
X93344999Y-44575324D01*
X93307676Y-44579000D01*
X93307667Y-44579000D01*
X93196014Y-44589997D01*
X93052753Y-44633454D01*
X92920724Y-44704026D01*
X92804999Y-44798999D01*
X92794329Y-44812000D01*
X92735061Y-44812000D01*
X92535102Y-44851774D01*
X92346744Y-44929795D01*
X92177226Y-45043063D01*
X92033063Y-45187226D01*
X91919795Y-45356744D01*
X91841774Y-45545102D01*
X91802000Y-45745061D01*
X78130000Y-45745061D01*
X78130000Y-42131653D01*
X124417952Y-42131653D01*
X124573962Y-42447214D01*
X124948745Y-42638020D01*
X125353551Y-42752044D01*
X125772824Y-42784902D01*
X126190451Y-42735334D01*
X126590383Y-42605243D01*
X126886038Y-42447214D01*
X127042048Y-42131653D01*
X125730000Y-40819605D01*
X124417952Y-42131653D01*
X78130000Y-42131653D01*
X78130000Y-40682824D01*
X123585098Y-40682824D01*
X123634666Y-41100451D01*
X123764757Y-41500383D01*
X123922786Y-41796038D01*
X124238347Y-41952048D01*
X125550395Y-40640000D01*
X125909605Y-40640000D01*
X127221653Y-41952048D01*
X127537214Y-41796038D01*
X127728020Y-41421255D01*
X127842044Y-41016449D01*
X127874902Y-40597176D01*
X127825334Y-40179549D01*
X127695243Y-39779617D01*
X127537214Y-39483962D01*
X127221653Y-39327952D01*
X125909605Y-40640000D01*
X125550395Y-40640000D01*
X124238347Y-39327952D01*
X123922786Y-39483962D01*
X123731980Y-39858745D01*
X123617956Y-40263551D01*
X123585098Y-40682824D01*
X78130000Y-40682824D01*
X78130000Y-36659117D01*
X78275000Y-36659117D01*
X78275000Y-37000883D01*
X78341675Y-37336081D01*
X78472463Y-37651831D01*
X78662337Y-37935998D01*
X78904002Y-38177663D01*
X79188169Y-38367537D01*
X79503919Y-38498325D01*
X79839117Y-38565000D01*
X80180883Y-38565000D01*
X80516081Y-38498325D01*
X80544959Y-38486363D01*
X89951000Y-38486363D01*
X89951000Y-38729637D01*
X89998460Y-38968236D01*
X90091557Y-39192992D01*
X90226713Y-39395267D01*
X90398733Y-39567287D01*
X90601008Y-39702443D01*
X90825764Y-39795540D01*
X91064363Y-39843000D01*
X91307637Y-39843000D01*
X91546236Y-39795540D01*
X91770992Y-39702443D01*
X91973267Y-39567287D01*
X92145287Y-39395267D01*
X92280443Y-39192992D01*
X92373540Y-38968236D01*
X92421000Y-38729637D01*
X92421000Y-38486363D01*
X92491000Y-38486363D01*
X92491000Y-38729637D01*
X92538460Y-38968236D01*
X92631557Y-39192992D01*
X92766713Y-39395267D01*
X92938733Y-39567287D01*
X93141008Y-39702443D01*
X93365764Y-39795540D01*
X93604363Y-39843000D01*
X93847637Y-39843000D01*
X94086236Y-39795540D01*
X94310992Y-39702443D01*
X94513267Y-39567287D01*
X94685287Y-39395267D01*
X94820443Y-39192992D01*
X94913540Y-38968236D01*
X94961000Y-38729637D01*
X94961000Y-38486363D01*
X95031000Y-38486363D01*
X95031000Y-38729637D01*
X95078460Y-38968236D01*
X95171557Y-39192992D01*
X95306713Y-39395267D01*
X95478733Y-39567287D01*
X95681008Y-39702443D01*
X95905764Y-39795540D01*
X96144363Y-39843000D01*
X96387637Y-39843000D01*
X96626236Y-39795540D01*
X96850992Y-39702443D01*
X97053267Y-39567287D01*
X97225287Y-39395267D01*
X97360443Y-39192992D01*
X97453540Y-38968236D01*
X97501000Y-38729637D01*
X97501000Y-38486363D01*
X97571000Y-38486363D01*
X97571000Y-38729637D01*
X97618460Y-38968236D01*
X97711557Y-39192992D01*
X97846713Y-39395267D01*
X98018733Y-39567287D01*
X98221008Y-39702443D01*
X98445764Y-39795540D01*
X98684363Y-39843000D01*
X98927637Y-39843000D01*
X99166236Y-39795540D01*
X99390992Y-39702443D01*
X99593267Y-39567287D01*
X99765287Y-39395267D01*
X99900443Y-39192992D01*
X99993540Y-38968236D01*
X100041000Y-38729637D01*
X100041000Y-38486363D01*
X100111000Y-38486363D01*
X100111000Y-38729637D01*
X100158460Y-38968236D01*
X100251557Y-39192992D01*
X100386713Y-39395267D01*
X100558733Y-39567287D01*
X100761008Y-39702443D01*
X100985764Y-39795540D01*
X101224363Y-39843000D01*
X101467637Y-39843000D01*
X101706236Y-39795540D01*
X101930992Y-39702443D01*
X102133267Y-39567287D01*
X102305287Y-39395267D01*
X102440443Y-39192992D01*
X102533540Y-38968236D01*
X102581000Y-38729637D01*
X102581000Y-38486363D01*
X102651000Y-38486363D01*
X102651000Y-38729637D01*
X102698460Y-38968236D01*
X102791557Y-39192992D01*
X102926713Y-39395267D01*
X103098733Y-39567287D01*
X103301008Y-39702443D01*
X103525764Y-39795540D01*
X103764363Y-39843000D01*
X104007637Y-39843000D01*
X104246236Y-39795540D01*
X104470992Y-39702443D01*
X104673267Y-39567287D01*
X104845287Y-39395267D01*
X104980443Y-39192992D01*
X105073540Y-38968236D01*
X105121000Y-38729637D01*
X105121000Y-38486363D01*
X105191000Y-38486363D01*
X105191000Y-38729637D01*
X105238460Y-38968236D01*
X105331557Y-39192992D01*
X105466713Y-39395267D01*
X105638733Y-39567287D01*
X105841008Y-39702443D01*
X106065764Y-39795540D01*
X106304363Y-39843000D01*
X106547637Y-39843000D01*
X106786236Y-39795540D01*
X107010992Y-39702443D01*
X107213267Y-39567287D01*
X107385287Y-39395267D01*
X107520443Y-39192992D01*
X107613540Y-38968236D01*
X107661000Y-38729637D01*
X107661000Y-38486363D01*
X107731000Y-38486363D01*
X107731000Y-38729637D01*
X107778460Y-38968236D01*
X107871557Y-39192992D01*
X108006713Y-39395267D01*
X108178733Y-39567287D01*
X108381008Y-39702443D01*
X108605764Y-39795540D01*
X108844363Y-39843000D01*
X109087637Y-39843000D01*
X109326236Y-39795540D01*
X109550992Y-39702443D01*
X109753267Y-39567287D01*
X109925287Y-39395267D01*
X110060443Y-39192992D01*
X110153540Y-38968236D01*
X110201000Y-38729637D01*
X110201000Y-38486363D01*
X110271000Y-38486363D01*
X110271000Y-38729637D01*
X110318460Y-38968236D01*
X110411557Y-39192992D01*
X110546713Y-39395267D01*
X110718733Y-39567287D01*
X110921008Y-39702443D01*
X111145764Y-39795540D01*
X111384363Y-39843000D01*
X111627637Y-39843000D01*
X111866236Y-39795540D01*
X112090992Y-39702443D01*
X112293267Y-39567287D01*
X112465287Y-39395267D01*
X112600443Y-39192992D01*
X112693540Y-38968236D01*
X112741000Y-38729637D01*
X112741000Y-38486363D01*
X112811000Y-38486363D01*
X112811000Y-38729637D01*
X112858460Y-38968236D01*
X112951557Y-39192992D01*
X113086713Y-39395267D01*
X113258733Y-39567287D01*
X113461008Y-39702443D01*
X113685764Y-39795540D01*
X113924363Y-39843000D01*
X114167637Y-39843000D01*
X114406236Y-39795540D01*
X114630992Y-39702443D01*
X114833267Y-39567287D01*
X115005287Y-39395267D01*
X115140443Y-39192992D01*
X115233540Y-38968236D01*
X115281000Y-38729637D01*
X115281000Y-38486363D01*
X115351000Y-38486363D01*
X115351000Y-38729637D01*
X115398460Y-38968236D01*
X115491557Y-39192992D01*
X115626713Y-39395267D01*
X115798733Y-39567287D01*
X116001008Y-39702443D01*
X116225764Y-39795540D01*
X116464363Y-39843000D01*
X116707637Y-39843000D01*
X116946236Y-39795540D01*
X117170992Y-39702443D01*
X117373267Y-39567287D01*
X117545287Y-39395267D01*
X117680443Y-39192992D01*
X117773540Y-38968236D01*
X117821000Y-38729637D01*
X117821000Y-38486363D01*
X117891000Y-38486363D01*
X117891000Y-38729637D01*
X117938460Y-38968236D01*
X118031557Y-39192992D01*
X118166713Y-39395267D01*
X118338733Y-39567287D01*
X118541008Y-39702443D01*
X118765764Y-39795540D01*
X119004363Y-39843000D01*
X119247637Y-39843000D01*
X119486236Y-39795540D01*
X119710992Y-39702443D01*
X119913267Y-39567287D01*
X120085287Y-39395267D01*
X120220443Y-39192992D01*
X120238935Y-39148347D01*
X124417952Y-39148347D01*
X125730000Y-40460395D01*
X127042048Y-39148347D01*
X127037922Y-39140000D01*
X128671928Y-39140000D01*
X128671928Y-42140000D01*
X128684188Y-42264482D01*
X128720498Y-42384180D01*
X128779463Y-42494494D01*
X128858815Y-42591185D01*
X128955506Y-42670537D01*
X129065820Y-42729502D01*
X129185518Y-42765812D01*
X129310000Y-42778072D01*
X132310000Y-42778072D01*
X132434482Y-42765812D01*
X132554180Y-42729502D01*
X132664494Y-42670537D01*
X132761185Y-42591185D01*
X132840537Y-42494494D01*
X132899502Y-42384180D01*
X132935812Y-42264482D01*
X132948072Y-42140000D01*
X132948072Y-42025000D01*
X139323080Y-42025000D01*
X139348286Y-42055714D01*
X139597248Y-42260031D01*
X139881285Y-42411852D01*
X140189484Y-42505343D01*
X140429678Y-42529000D01*
X146590322Y-42529000D01*
X146830516Y-42505343D01*
X147138715Y-42411852D01*
X147422752Y-42260031D01*
X147671714Y-42055714D01*
X147876031Y-41806752D01*
X148027852Y-41522715D01*
X148121343Y-41214516D01*
X148152911Y-40894000D01*
X148121343Y-40573484D01*
X148027852Y-40265285D01*
X147876031Y-39981248D01*
X147671714Y-39732286D01*
X147422752Y-39527969D01*
X147138715Y-39376148D01*
X146830516Y-39282657D01*
X146590322Y-39259000D01*
X143364650Y-39259000D01*
X143324037Y-39255000D01*
X143324029Y-39255000D01*
X143256000Y-39248300D01*
X143187971Y-39255000D01*
X132948072Y-39255000D01*
X132948072Y-39140000D01*
X132935812Y-39015518D01*
X132899502Y-38895820D01*
X132840537Y-38785506D01*
X132761185Y-38688815D01*
X132664494Y-38609463D01*
X132554180Y-38550498D01*
X132434482Y-38514188D01*
X132310000Y-38501928D01*
X129310000Y-38501928D01*
X129185518Y-38514188D01*
X129065820Y-38550498D01*
X128955506Y-38609463D01*
X128858815Y-38688815D01*
X128779463Y-38785506D01*
X128720498Y-38895820D01*
X128684188Y-39015518D01*
X128671928Y-39140000D01*
X127037922Y-39140000D01*
X126886038Y-38832786D01*
X126511255Y-38641980D01*
X126106449Y-38527956D01*
X125687176Y-38495098D01*
X125269549Y-38544666D01*
X124869617Y-38674757D01*
X124573962Y-38832786D01*
X124417952Y-39148347D01*
X120238935Y-39148347D01*
X120313540Y-38968236D01*
X120361000Y-38729637D01*
X120361000Y-38486363D01*
X120313540Y-38247764D01*
X120220443Y-38023008D01*
X120085287Y-37820733D01*
X119913267Y-37648713D01*
X119710992Y-37513557D01*
X119486236Y-37420460D01*
X119247637Y-37373000D01*
X119004363Y-37373000D01*
X118765764Y-37420460D01*
X118541008Y-37513557D01*
X118338733Y-37648713D01*
X118166713Y-37820733D01*
X118031557Y-38023008D01*
X117938460Y-38247764D01*
X117891000Y-38486363D01*
X117821000Y-38486363D01*
X117773540Y-38247764D01*
X117680443Y-38023008D01*
X117545287Y-37820733D01*
X117373267Y-37648713D01*
X117170992Y-37513557D01*
X116946236Y-37420460D01*
X116707637Y-37373000D01*
X116464363Y-37373000D01*
X116225764Y-37420460D01*
X116001008Y-37513557D01*
X115798733Y-37648713D01*
X115626713Y-37820733D01*
X115491557Y-38023008D01*
X115398460Y-38247764D01*
X115351000Y-38486363D01*
X115281000Y-38486363D01*
X115233540Y-38247764D01*
X115140443Y-38023008D01*
X115005287Y-37820733D01*
X114833267Y-37648713D01*
X114630992Y-37513557D01*
X114406236Y-37420460D01*
X114167637Y-37373000D01*
X113924363Y-37373000D01*
X113685764Y-37420460D01*
X113461008Y-37513557D01*
X113258733Y-37648713D01*
X113086713Y-37820733D01*
X112951557Y-38023008D01*
X112858460Y-38247764D01*
X112811000Y-38486363D01*
X112741000Y-38486363D01*
X112693540Y-38247764D01*
X112600443Y-38023008D01*
X112465287Y-37820733D01*
X112293267Y-37648713D01*
X112090992Y-37513557D01*
X111866236Y-37420460D01*
X111627637Y-37373000D01*
X111384363Y-37373000D01*
X111145764Y-37420460D01*
X110921008Y-37513557D01*
X110718733Y-37648713D01*
X110546713Y-37820733D01*
X110411557Y-38023008D01*
X110318460Y-38247764D01*
X110271000Y-38486363D01*
X110201000Y-38486363D01*
X110153540Y-38247764D01*
X110060443Y-38023008D01*
X109925287Y-37820733D01*
X109753267Y-37648713D01*
X109550992Y-37513557D01*
X109326236Y-37420460D01*
X109087637Y-37373000D01*
X108844363Y-37373000D01*
X108605764Y-37420460D01*
X108381008Y-37513557D01*
X108178733Y-37648713D01*
X108006713Y-37820733D01*
X107871557Y-38023008D01*
X107778460Y-38247764D01*
X107731000Y-38486363D01*
X107661000Y-38486363D01*
X107613540Y-38247764D01*
X107520443Y-38023008D01*
X107385287Y-37820733D01*
X107213267Y-37648713D01*
X107010992Y-37513557D01*
X106786236Y-37420460D01*
X106547637Y-37373000D01*
X106304363Y-37373000D01*
X106065764Y-37420460D01*
X105841008Y-37513557D01*
X105638733Y-37648713D01*
X105466713Y-37820733D01*
X105331557Y-38023008D01*
X105238460Y-38247764D01*
X105191000Y-38486363D01*
X105121000Y-38486363D01*
X105073540Y-38247764D01*
X104980443Y-38023008D01*
X104845287Y-37820733D01*
X104673267Y-37648713D01*
X104470992Y-37513557D01*
X104246236Y-37420460D01*
X104007637Y-37373000D01*
X103764363Y-37373000D01*
X103525764Y-37420460D01*
X103301008Y-37513557D01*
X103098733Y-37648713D01*
X102926713Y-37820733D01*
X102791557Y-38023008D01*
X102698460Y-38247764D01*
X102651000Y-38486363D01*
X102581000Y-38486363D01*
X102533540Y-38247764D01*
X102440443Y-38023008D01*
X102305287Y-37820733D01*
X102133267Y-37648713D01*
X101930992Y-37513557D01*
X101706236Y-37420460D01*
X101467637Y-37373000D01*
X101224363Y-37373000D01*
X100985764Y-37420460D01*
X100761008Y-37513557D01*
X100558733Y-37648713D01*
X100386713Y-37820733D01*
X100251557Y-38023008D01*
X100158460Y-38247764D01*
X100111000Y-38486363D01*
X100041000Y-38486363D01*
X99993540Y-38247764D01*
X99900443Y-38023008D01*
X99765287Y-37820733D01*
X99593267Y-37648713D01*
X99390992Y-37513557D01*
X99166236Y-37420460D01*
X98927637Y-37373000D01*
X98684363Y-37373000D01*
X98445764Y-37420460D01*
X98221008Y-37513557D01*
X98018733Y-37648713D01*
X97846713Y-37820733D01*
X97711557Y-38023008D01*
X97618460Y-38247764D01*
X97571000Y-38486363D01*
X97501000Y-38486363D01*
X97453540Y-38247764D01*
X97360443Y-38023008D01*
X97225287Y-37820733D01*
X97053267Y-37648713D01*
X96850992Y-37513557D01*
X96626236Y-37420460D01*
X96387637Y-37373000D01*
X96144363Y-37373000D01*
X95905764Y-37420460D01*
X95681008Y-37513557D01*
X95478733Y-37648713D01*
X95306713Y-37820733D01*
X95171557Y-38023008D01*
X95078460Y-38247764D01*
X95031000Y-38486363D01*
X94961000Y-38486363D01*
X94913540Y-38247764D01*
X94820443Y-38023008D01*
X94685287Y-37820733D01*
X94513267Y-37648713D01*
X94310992Y-37513557D01*
X94086236Y-37420460D01*
X93847637Y-37373000D01*
X93604363Y-37373000D01*
X93365764Y-37420460D01*
X93141008Y-37513557D01*
X92938733Y-37648713D01*
X92766713Y-37820733D01*
X92631557Y-38023008D01*
X92538460Y-38247764D01*
X92491000Y-38486363D01*
X92421000Y-38486363D01*
X92373540Y-38247764D01*
X92280443Y-38023008D01*
X92145287Y-37820733D01*
X91973267Y-37648713D01*
X91770992Y-37513557D01*
X91546236Y-37420460D01*
X91307637Y-37373000D01*
X91064363Y-37373000D01*
X90825764Y-37420460D01*
X90601008Y-37513557D01*
X90398733Y-37648713D01*
X90226713Y-37820733D01*
X90091557Y-38023008D01*
X89998460Y-38247764D01*
X89951000Y-38486363D01*
X80544959Y-38486363D01*
X80831831Y-38367537D01*
X81115998Y-38177663D01*
X81357663Y-37935998D01*
X81547537Y-37651831D01*
X81678325Y-37336081D01*
X81745000Y-37000883D01*
X81745000Y-36659117D01*
X153205000Y-36659117D01*
X153205000Y-37000883D01*
X153271675Y-37336081D01*
X153402463Y-37651831D01*
X153592337Y-37935998D01*
X153834002Y-38177663D01*
X154118169Y-38367537D01*
X154433919Y-38498325D01*
X154769117Y-38565000D01*
X155110883Y-38565000D01*
X155446081Y-38498325D01*
X155761831Y-38367537D01*
X156045998Y-38177663D01*
X156287663Y-37935998D01*
X156477537Y-37651831D01*
X156608325Y-37336081D01*
X156675000Y-37000883D01*
X156675000Y-36659117D01*
X156608325Y-36323919D01*
X156477537Y-36008169D01*
X156287663Y-35724002D01*
X156045998Y-35482337D01*
X155761831Y-35292463D01*
X155446081Y-35161675D01*
X155110883Y-35095000D01*
X154769117Y-35095000D01*
X154433919Y-35161675D01*
X154118169Y-35292463D01*
X153834002Y-35482337D01*
X153592337Y-35724002D01*
X153402463Y-36008169D01*
X153271675Y-36323919D01*
X153205000Y-36659117D01*
X81745000Y-36659117D01*
X81678325Y-36323919D01*
X81547537Y-36008169D01*
X81357663Y-35724002D01*
X81115998Y-35482337D01*
X80831831Y-35292463D01*
X80516081Y-35161675D01*
X80180883Y-35095000D01*
X79839117Y-35095000D01*
X79503919Y-35161675D01*
X79188169Y-35292463D01*
X78904002Y-35482337D01*
X78662337Y-35724002D01*
X78472463Y-36008169D01*
X78341675Y-36323919D01*
X78275000Y-36659117D01*
X78130000Y-36659117D01*
X78130000Y-36354279D01*
X78159234Y-36056125D01*
X78236448Y-35800378D01*
X78361869Y-35564496D01*
X78530716Y-35357470D01*
X78736554Y-35187187D01*
X78971556Y-35060121D01*
X79226756Y-34981124D01*
X79522882Y-34950000D01*
X155415721Y-34950000D01*
X155713875Y-34979234D01*
G04 #@! TA.AperFunction,Conductor*
D26*
G36*
X155713875Y-34979234D02*
G01*
X155969622Y-35056448D01*
X156205504Y-35181869D01*
X156412530Y-35350716D01*
X156582813Y-35556554D01*
X156709879Y-35791556D01*
X156788876Y-36046756D01*
X156820001Y-36342891D01*
X156820000Y-71341721D01*
X156790766Y-71639876D01*
X156713551Y-71895624D01*
X156588131Y-72131504D01*
X156419289Y-72338525D01*
X156213446Y-72508813D01*
X155978444Y-72635879D01*
X155723240Y-72714877D01*
X155427118Y-72746000D01*
X114456770Y-72746000D01*
X114469502Y-72722180D01*
X114505812Y-72602482D01*
X114518072Y-72478000D01*
X114515000Y-71913750D01*
X114356250Y-71755000D01*
X113157000Y-71755000D01*
X113157000Y-71775000D01*
X112903000Y-71775000D01*
X112903000Y-71755000D01*
X111703750Y-71755000D01*
X111545000Y-71913750D01*
X111541928Y-72478000D01*
X111554188Y-72602482D01*
X111590498Y-72722180D01*
X111603230Y-72746000D01*
X107646977Y-72746000D01*
X107777588Y-72628269D01*
X107951641Y-72394920D01*
X108076825Y-72132099D01*
X108121476Y-71984890D01*
X108000155Y-71755000D01*
X106807000Y-71755000D01*
X106807000Y-71775000D01*
X106553000Y-71775000D01*
X106553000Y-71755000D01*
X105359845Y-71755000D01*
X105238524Y-71984890D01*
X105283175Y-72132099D01*
X105408359Y-72394920D01*
X105582412Y-72628269D01*
X105713023Y-72746000D01*
X101296977Y-72746000D01*
X101427588Y-72628269D01*
X101601641Y-72394920D01*
X101726825Y-72132099D01*
X101771476Y-71984890D01*
X101650155Y-71755000D01*
X100457000Y-71755000D01*
X100457000Y-71775000D01*
X100203000Y-71775000D01*
X100203000Y-71755000D01*
X99009845Y-71755000D01*
X98888524Y-71984890D01*
X98933175Y-72132099D01*
X99058359Y-72394920D01*
X99232412Y-72628269D01*
X99363023Y-72746000D01*
X79534279Y-72746000D01*
X79236124Y-72716766D01*
X78980376Y-72639551D01*
X78744496Y-72514131D01*
X78537475Y-72345289D01*
X78515754Y-72319033D01*
X78600820Y-72364502D01*
X78720518Y-72400812D01*
X78845000Y-72413072D01*
X80845000Y-72413072D01*
X80969482Y-72400812D01*
X81089180Y-72364502D01*
X81195000Y-72307939D01*
X81300820Y-72364502D01*
X81420518Y-72400812D01*
X81545000Y-72413072D01*
X83745000Y-72413072D01*
X83869482Y-72400812D01*
X83989180Y-72364502D01*
X84099494Y-72305537D01*
X84196185Y-72226185D01*
X84275537Y-72129494D01*
X84334502Y-72019180D01*
X84370812Y-71899482D01*
X84383072Y-71775000D01*
X84383072Y-68975000D01*
X84370812Y-68850518D01*
X84334502Y-68730820D01*
X84275537Y-68620506D01*
X84196185Y-68523815D01*
X84099494Y-68444463D01*
X83989180Y-68385498D01*
X83869482Y-68349188D01*
X83745000Y-68336928D01*
X82548000Y-68336928D01*
X82548000Y-67759711D01*
X82591937Y-67715774D01*
X82629480Y-67659587D01*
X82798368Y-67828475D01*
X83041589Y-67990990D01*
X83311842Y-68102932D01*
X83598740Y-68160000D01*
X83891260Y-68160000D01*
X84178158Y-68102932D01*
X84448411Y-67990990D01*
X84691632Y-67828475D01*
X84898475Y-67621632D01*
X85060990Y-67378411D01*
X85172932Y-67108158D01*
X85230000Y-66821260D01*
X85230000Y-66528740D01*
X89260000Y-66528740D01*
X89260000Y-66821260D01*
X89317068Y-67108158D01*
X89429010Y-67378411D01*
X89591525Y-67621632D01*
X89798368Y-67828475D01*
X90041589Y-67990990D01*
X90311842Y-68102932D01*
X90598740Y-68160000D01*
X90891260Y-68160000D01*
X91178158Y-68102932D01*
X91448411Y-67990990D01*
X91691632Y-67828475D01*
X91898475Y-67621632D01*
X92060990Y-67378411D01*
X92172932Y-67108158D01*
X92230000Y-66821260D01*
X92230000Y-66528740D01*
X92172932Y-66241842D01*
X92060990Y-65971589D01*
X91898475Y-65728368D01*
X91691632Y-65521525D01*
X91448411Y-65359010D01*
X91178158Y-65247068D01*
X90891260Y-65190000D01*
X90598740Y-65190000D01*
X90311842Y-65247068D01*
X90041589Y-65359010D01*
X89798368Y-65521525D01*
X89591525Y-65728368D01*
X89429010Y-65971589D01*
X89317068Y-66241842D01*
X89260000Y-66528740D01*
X85230000Y-66528740D01*
X85172932Y-66241842D01*
X85060990Y-65971589D01*
X84898475Y-65728368D01*
X84691632Y-65521525D01*
X84448411Y-65359010D01*
X84178158Y-65247068D01*
X83891260Y-65190000D01*
X83598740Y-65190000D01*
X83311842Y-65247068D01*
X83041589Y-65359010D01*
X82798368Y-65521525D01*
X82591525Y-65728368D01*
X82548000Y-65793508D01*
X82548000Y-61909801D01*
X82806928Y-61650874D01*
X82806928Y-64375000D01*
X82819188Y-64499482D01*
X82855498Y-64619180D01*
X82914463Y-64729494D01*
X82993815Y-64826185D01*
X83090506Y-64905537D01*
X83200820Y-64964502D01*
X83320518Y-65000812D01*
X83445000Y-65013072D01*
X85645000Y-65013072D01*
X85769482Y-65000812D01*
X85889180Y-64964502D01*
X85999494Y-64905537D01*
X86096185Y-64826185D01*
X86175537Y-64729494D01*
X86234502Y-64619180D01*
X86270812Y-64499482D01*
X86281890Y-64387000D01*
X94023289Y-64387000D01*
X94019188Y-64400518D01*
X94006928Y-64525000D01*
X94006928Y-67238270D01*
X92908271Y-68336928D01*
X90645000Y-68336928D01*
X90520518Y-68349188D01*
X90400820Y-68385498D01*
X90290506Y-68444463D01*
X90193815Y-68523815D01*
X90114463Y-68620506D01*
X90055498Y-68730820D01*
X90019188Y-68850518D01*
X90006928Y-68975000D01*
X90006928Y-71575000D01*
X90019188Y-71699482D01*
X90055498Y-71819180D01*
X90114463Y-71929494D01*
X90193815Y-72026185D01*
X90290506Y-72105537D01*
X90400820Y-72164502D01*
X90520518Y-72200812D01*
X90645000Y-72213072D01*
X93445000Y-72213072D01*
X93569482Y-72200812D01*
X93689180Y-72164502D01*
X93799494Y-72105537D01*
X93896185Y-72026185D01*
X93975537Y-71929494D01*
X94034502Y-71819180D01*
X94070812Y-71699482D01*
X94083072Y-71575000D01*
X94083072Y-69311729D01*
X95431730Y-67963072D01*
X97445000Y-67963072D01*
X97569482Y-67950812D01*
X97689180Y-67914502D01*
X97799494Y-67855537D01*
X97896185Y-67776185D01*
X97975537Y-67679494D01*
X98034502Y-67569180D01*
X98070812Y-67449482D01*
X98083072Y-67325000D01*
X98083072Y-66665180D01*
X98197247Y-66630546D01*
X98329276Y-66559974D01*
X98445001Y-66465001D01*
X98468804Y-66435997D01*
X98841928Y-66062873D01*
X98841928Y-67398000D01*
X98854188Y-67522482D01*
X98890498Y-67642180D01*
X98949463Y-67752494D01*
X99028815Y-67849185D01*
X99125506Y-67928537D01*
X99235820Y-67987502D01*
X99308380Y-68009513D01*
X99176525Y-68141368D01*
X99014010Y-68384589D01*
X98902068Y-68654842D01*
X98845000Y-68941740D01*
X98845000Y-69234260D01*
X98902068Y-69521158D01*
X99014010Y-69791411D01*
X99176525Y-70034632D01*
X99383368Y-70241475D01*
X99565534Y-70363195D01*
X99448645Y-70432822D01*
X99232412Y-70627731D01*
X99058359Y-70861080D01*
X98933175Y-71123901D01*
X98888524Y-71271110D01*
X99009845Y-71501000D01*
X100203000Y-71501000D01*
X100203000Y-71481000D01*
X100457000Y-71481000D01*
X100457000Y-71501000D01*
X101650155Y-71501000D01*
X101771476Y-71271110D01*
X101726825Y-71123901D01*
X101601641Y-70861080D01*
X101427588Y-70627731D01*
X101211355Y-70432822D01*
X101094466Y-70363195D01*
X101276632Y-70241475D01*
X101483475Y-70034632D01*
X101645990Y-69791411D01*
X101757932Y-69521158D01*
X101815000Y-69234260D01*
X101815000Y-68941740D01*
X101757932Y-68654842D01*
X101645990Y-68384589D01*
X101483475Y-68141368D01*
X101351620Y-68009513D01*
X101424180Y-67987502D01*
X101534494Y-67928537D01*
X101631185Y-67849185D01*
X101710537Y-67752494D01*
X101769502Y-67642180D01*
X101805812Y-67522482D01*
X101818072Y-67398000D01*
X101818072Y-67018613D01*
X103443685Y-65393000D01*
X105483856Y-65393000D01*
X105585820Y-65447502D01*
X105658380Y-65469513D01*
X105526525Y-65601368D01*
X105364010Y-65844589D01*
X105252068Y-66114842D01*
X105195000Y-66401740D01*
X105195000Y-66694260D01*
X105252068Y-66981158D01*
X105364010Y-67251411D01*
X105526525Y-67494632D01*
X105733368Y-67701475D01*
X105907760Y-67818000D01*
X105733368Y-67934525D01*
X105526525Y-68141368D01*
X105364010Y-68384589D01*
X105252068Y-68654842D01*
X105195000Y-68941740D01*
X105195000Y-69234260D01*
X105252068Y-69521158D01*
X105364010Y-69791411D01*
X105526525Y-70034632D01*
X105733368Y-70241475D01*
X105915534Y-70363195D01*
X105798645Y-70432822D01*
X105582412Y-70627731D01*
X105408359Y-70861080D01*
X105283175Y-71123901D01*
X105238524Y-71271110D01*
X105359845Y-71501000D01*
X106553000Y-71501000D01*
X106553000Y-71481000D01*
X106807000Y-71481000D01*
X106807000Y-71501000D01*
X108000155Y-71501000D01*
X108121476Y-71271110D01*
X108076825Y-71123901D01*
X107951641Y-70861080D01*
X107777588Y-70627731D01*
X107561355Y-70432822D01*
X107444466Y-70363195D01*
X107626632Y-70241475D01*
X107833475Y-70034632D01*
X107995990Y-69791411D01*
X108107932Y-69521158D01*
X108165000Y-69234260D01*
X108165000Y-68941740D01*
X108107932Y-68654842D01*
X107995990Y-68384589D01*
X107833475Y-68141368D01*
X107626632Y-67934525D01*
X107452240Y-67818000D01*
X107626632Y-67701475D01*
X107833475Y-67494632D01*
X107995990Y-67251411D01*
X108107932Y-66981158D01*
X108165000Y-66694260D01*
X108165000Y-66401740D01*
X108107932Y-66114842D01*
X107995990Y-65844589D01*
X107833475Y-65601368D01*
X107701620Y-65469513D01*
X107774180Y-65447502D01*
X107876144Y-65393000D01*
X112085650Y-65393000D01*
X112083368Y-65394525D01*
X111876525Y-65601368D01*
X111714010Y-65844589D01*
X111602068Y-66114842D01*
X111545000Y-66401740D01*
X111545000Y-66694260D01*
X111602068Y-66981158D01*
X111714010Y-67251411D01*
X111876525Y-67494632D01*
X112083368Y-67701475D01*
X112257760Y-67818000D01*
X112083368Y-67934525D01*
X111876525Y-68141368D01*
X111714010Y-68384589D01*
X111602068Y-68654842D01*
X111545000Y-68941740D01*
X111545000Y-69234260D01*
X111602068Y-69521158D01*
X111714010Y-69791411D01*
X111876525Y-70034632D01*
X112008380Y-70166487D01*
X111935820Y-70188498D01*
X111825506Y-70247463D01*
X111728815Y-70326815D01*
X111649463Y-70423506D01*
X111590498Y-70533820D01*
X111554188Y-70653518D01*
X111541928Y-70778000D01*
X111545000Y-71342250D01*
X111703750Y-71501000D01*
X112903000Y-71501000D01*
X112903000Y-71481000D01*
X113157000Y-71481000D01*
X113157000Y-71501000D01*
X114356250Y-71501000D01*
X114515000Y-71342250D01*
X114518072Y-70778000D01*
X114509910Y-70695117D01*
X153205000Y-70695117D01*
X153205000Y-71036883D01*
X153271675Y-71372081D01*
X153402463Y-71687831D01*
X153592337Y-71971998D01*
X153834002Y-72213663D01*
X154118169Y-72403537D01*
X154433919Y-72534325D01*
X154769117Y-72601000D01*
X155110883Y-72601000D01*
X155446081Y-72534325D01*
X155761831Y-72403537D01*
X156045998Y-72213663D01*
X156287663Y-71971998D01*
X156477537Y-71687831D01*
X156608325Y-71372081D01*
X156675000Y-71036883D01*
X156675000Y-70695117D01*
X156608325Y-70359919D01*
X156477537Y-70044169D01*
X156287663Y-69760002D01*
X156045998Y-69518337D01*
X155761831Y-69328463D01*
X155446081Y-69197675D01*
X155110883Y-69131000D01*
X154769117Y-69131000D01*
X154433919Y-69197675D01*
X154118169Y-69328463D01*
X153834002Y-69518337D01*
X153592337Y-69760002D01*
X153402463Y-70044169D01*
X153271675Y-70359919D01*
X153205000Y-70695117D01*
X114509910Y-70695117D01*
X114505812Y-70653518D01*
X114469502Y-70533820D01*
X114410537Y-70423506D01*
X114331185Y-70326815D01*
X114234494Y-70247463D01*
X114124180Y-70188498D01*
X114051620Y-70166487D01*
X114183475Y-70034632D01*
X114345990Y-69791411D01*
X114410606Y-69635413D01*
X122234192Y-69635413D01*
X122329956Y-69899814D01*
X122619571Y-70040704D01*
X122931108Y-70122384D01*
X123252595Y-70141718D01*
X123571675Y-70097961D01*
X123876088Y-69992795D01*
X124050044Y-69899814D01*
X124145808Y-69635413D01*
X134934192Y-69635413D01*
X135029956Y-69899814D01*
X135319571Y-70040704D01*
X135631108Y-70122384D01*
X135952595Y-70141718D01*
X136271675Y-70097961D01*
X136576088Y-69992795D01*
X136750044Y-69899814D01*
X136845808Y-69635413D01*
X147634192Y-69635413D01*
X147729956Y-69899814D01*
X148019571Y-70040704D01*
X148331108Y-70122384D01*
X148652595Y-70141718D01*
X148971675Y-70097961D01*
X149276088Y-69992795D01*
X149450044Y-69899814D01*
X149545808Y-69635413D01*
X148590000Y-68679605D01*
X147634192Y-69635413D01*
X136845808Y-69635413D01*
X135890000Y-68679605D01*
X134934192Y-69635413D01*
X124145808Y-69635413D01*
X123190000Y-68679605D01*
X122234192Y-69635413D01*
X114410606Y-69635413D01*
X114457932Y-69521158D01*
X114515000Y-69234260D01*
X114515000Y-68941740D01*
X114457932Y-68654842D01*
X114419723Y-68562595D01*
X121548282Y-68562595D01*
X121592039Y-68881675D01*
X121697205Y-69186088D01*
X121790186Y-69360044D01*
X122054587Y-69455808D01*
X123010395Y-68500000D01*
X123369605Y-68500000D01*
X124325413Y-69455808D01*
X124589814Y-69360044D01*
X124730704Y-69070429D01*
X124812384Y-68758892D01*
X124824189Y-68562595D01*
X134248282Y-68562595D01*
X134292039Y-68881675D01*
X134397205Y-69186088D01*
X134490186Y-69360044D01*
X134754587Y-69455808D01*
X135710395Y-68500000D01*
X136069605Y-68500000D01*
X137025413Y-69455808D01*
X137289814Y-69360044D01*
X137430704Y-69070429D01*
X137512384Y-68758892D01*
X137524189Y-68562595D01*
X146948282Y-68562595D01*
X146992039Y-68881675D01*
X147097205Y-69186088D01*
X147190186Y-69360044D01*
X147454587Y-69455808D01*
X148410395Y-68500000D01*
X148769605Y-68500000D01*
X149725413Y-69455808D01*
X149989814Y-69360044D01*
X150130704Y-69070429D01*
X150212384Y-68758892D01*
X150231718Y-68437405D01*
X150187961Y-68118325D01*
X150082795Y-67813912D01*
X149989814Y-67639956D01*
X149725413Y-67544192D01*
X148769605Y-68500000D01*
X148410395Y-68500000D01*
X147454587Y-67544192D01*
X147190186Y-67639956D01*
X147049296Y-67929571D01*
X146967616Y-68241108D01*
X146948282Y-68562595D01*
X137524189Y-68562595D01*
X137531718Y-68437405D01*
X137487961Y-68118325D01*
X137382795Y-67813912D01*
X137289814Y-67639956D01*
X137025413Y-67544192D01*
X136069605Y-68500000D01*
X135710395Y-68500000D01*
X134754587Y-67544192D01*
X134490186Y-67639956D01*
X134349296Y-67929571D01*
X134267616Y-68241108D01*
X134248282Y-68562595D01*
X124824189Y-68562595D01*
X124831718Y-68437405D01*
X124787961Y-68118325D01*
X124682795Y-67813912D01*
X124589814Y-67639956D01*
X124325413Y-67544192D01*
X123369605Y-68500000D01*
X123010395Y-68500000D01*
X122054587Y-67544192D01*
X121790186Y-67639956D01*
X121649296Y-67929571D01*
X121567616Y-68241108D01*
X121548282Y-68562595D01*
X114419723Y-68562595D01*
X114345990Y-68384589D01*
X114183475Y-68141368D01*
X113976632Y-67934525D01*
X113802240Y-67818000D01*
X113976632Y-67701475D01*
X114183475Y-67494632D01*
X114270368Y-67364587D01*
X122234192Y-67364587D01*
X123190000Y-68320395D01*
X124145808Y-67364587D01*
X134934192Y-67364587D01*
X135890000Y-68320395D01*
X136845808Y-67364587D01*
X147634192Y-67364587D01*
X148590000Y-68320395D01*
X149545808Y-67364587D01*
X149450044Y-67100186D01*
X149160429Y-66959296D01*
X148848892Y-66877616D01*
X148527405Y-66858282D01*
X148208325Y-66902039D01*
X147903912Y-67007205D01*
X147729956Y-67100186D01*
X147634192Y-67364587D01*
X136845808Y-67364587D01*
X136750044Y-67100186D01*
X136460429Y-66959296D01*
X136148892Y-66877616D01*
X135827405Y-66858282D01*
X135508325Y-66902039D01*
X135203912Y-67007205D01*
X135029956Y-67100186D01*
X134934192Y-67364587D01*
X124145808Y-67364587D01*
X124050044Y-67100186D01*
X123760429Y-66959296D01*
X123448892Y-66877616D01*
X123127405Y-66858282D01*
X122808325Y-66902039D01*
X122503912Y-67007205D01*
X122329956Y-67100186D01*
X122234192Y-67364587D01*
X114270368Y-67364587D01*
X114345990Y-67251411D01*
X114457932Y-66981158D01*
X114515000Y-66694260D01*
X114515000Y-66401740D01*
X114457932Y-66114842D01*
X114345990Y-65844589D01*
X114183475Y-65601368D01*
X113976632Y-65394525D01*
X113802240Y-65278000D01*
X113976632Y-65161475D01*
X114183475Y-64954632D01*
X114230002Y-64885000D01*
X121684499Y-64885000D01*
X121738815Y-64951185D01*
X121835506Y-65030537D01*
X121945820Y-65089502D01*
X122065518Y-65125812D01*
X122190000Y-65138072D01*
X124190000Y-65138072D01*
X124314482Y-65125812D01*
X124434180Y-65089502D01*
X124544494Y-65030537D01*
X124641185Y-64951185D01*
X124695501Y-64885000D01*
X134384499Y-64885000D01*
X134438815Y-64951185D01*
X134535506Y-65030537D01*
X134645820Y-65089502D01*
X134765518Y-65125812D01*
X134890000Y-65138072D01*
X136890000Y-65138072D01*
X137014482Y-65125812D01*
X137134180Y-65089502D01*
X137244494Y-65030537D01*
X137341185Y-64951185D01*
X137395501Y-64885000D01*
X147084499Y-64885000D01*
X147138815Y-64951185D01*
X147235506Y-65030537D01*
X147345820Y-65089502D01*
X147465518Y-65125812D01*
X147590000Y-65138072D01*
X149590000Y-65138072D01*
X149714482Y-65125812D01*
X149834180Y-65089502D01*
X149944494Y-65030537D01*
X150041185Y-64951185D01*
X150120537Y-64854494D01*
X150179502Y-64744180D01*
X150215812Y-64624482D01*
X150228072Y-64500000D01*
X150228072Y-62500000D01*
X150215812Y-62375518D01*
X150179502Y-62255820D01*
X150120537Y-62145506D01*
X150041185Y-62048815D01*
X149975000Y-61994499D01*
X149975000Y-57091029D01*
X149981700Y-57023000D01*
X149975000Y-56954971D01*
X149975000Y-56954963D01*
X149954960Y-56751493D01*
X149936276Y-56689898D01*
X149875764Y-56490419D01*
X149766532Y-56286061D01*
X149747157Y-56249812D01*
X149675259Y-56162205D01*
X149617452Y-56091766D01*
X149617445Y-56091759D01*
X149574080Y-56038919D01*
X149521241Y-55995555D01*
X144895000Y-51369315D01*
X144895000Y-49641000D01*
X146590322Y-49641000D01*
X146830516Y-49617343D01*
X147138715Y-49523852D01*
X147422752Y-49372031D01*
X147671714Y-49167714D01*
X147876031Y-48918752D01*
X148027852Y-48634715D01*
X148121343Y-48326516D01*
X148152911Y-48006000D01*
X148121343Y-47685484D01*
X148027852Y-47377285D01*
X147876031Y-47093248D01*
X147671714Y-46844286D01*
X147422752Y-46639969D01*
X147138715Y-46488148D01*
X146830516Y-46394657D01*
X146590322Y-46371000D01*
X140429678Y-46371000D01*
X140189484Y-46394657D01*
X139881285Y-46488148D01*
X139597248Y-46639969D01*
X139348286Y-46844286D01*
X139143969Y-47093248D01*
X138992148Y-47377285D01*
X138898657Y-47685484D01*
X138867089Y-48006000D01*
X138898657Y-48326516D01*
X138992148Y-48634715D01*
X139143969Y-48918752D01*
X139348286Y-49167714D01*
X139597248Y-49372031D01*
X139881285Y-49523852D01*
X140189484Y-49617343D01*
X140429678Y-49641000D01*
X142125000Y-49641000D01*
X142125001Y-51874961D01*
X142118300Y-51943000D01*
X142145040Y-52214507D01*
X142224236Y-52475580D01*
X142352844Y-52716188D01*
X142482548Y-52874233D01*
X142482551Y-52874236D01*
X142525920Y-52927081D01*
X142578764Y-52970449D01*
X147205000Y-57596686D01*
X147205001Y-61994498D01*
X147138815Y-62048815D01*
X147084499Y-62115000D01*
X137395501Y-62115000D01*
X137341185Y-62048815D01*
X137244494Y-61969463D01*
X137134180Y-61910498D01*
X137014482Y-61874188D01*
X136890000Y-61861928D01*
X134890000Y-61861928D01*
X134765518Y-61874188D01*
X134645820Y-61910498D01*
X134535506Y-61969463D01*
X134438815Y-62048815D01*
X134384499Y-62115000D01*
X124695501Y-62115000D01*
X124641185Y-62048815D01*
X124544494Y-61969463D01*
X124434180Y-61910498D01*
X124314482Y-61874188D01*
X124190000Y-61861928D01*
X122190000Y-61861928D01*
X122065518Y-61874188D01*
X121945820Y-61910498D01*
X121835506Y-61969463D01*
X121738815Y-62048815D01*
X121684499Y-62115000D01*
X113606026Y-62115000D01*
X113537999Y-62108300D01*
X113469972Y-62115000D01*
X113469963Y-62115000D01*
X113266493Y-62135040D01*
X113005419Y-62214236D01*
X112764812Y-62342843D01*
X112553919Y-62515919D01*
X112510542Y-62568774D01*
X112456316Y-62623000D01*
X111425801Y-62623000D01*
X113892199Y-60156602D01*
X113924363Y-60163000D01*
X114167637Y-60163000D01*
X114406236Y-60115540D01*
X114630992Y-60022443D01*
X114833267Y-59887287D01*
X115005287Y-59715267D01*
X115140443Y-59512992D01*
X115233540Y-59288236D01*
X115281000Y-59049637D01*
X115281000Y-58806363D01*
X115351000Y-58806363D01*
X115351000Y-59049637D01*
X115398460Y-59288236D01*
X115491557Y-59512992D01*
X115626713Y-59715267D01*
X115798733Y-59887287D01*
X116001008Y-60022443D01*
X116225764Y-60115540D01*
X116464363Y-60163000D01*
X116707637Y-60163000D01*
X116946236Y-60115540D01*
X117170992Y-60022443D01*
X117373267Y-59887287D01*
X117545287Y-59715267D01*
X117680443Y-59512992D01*
X117773540Y-59288236D01*
X117821000Y-59049637D01*
X117821000Y-58806363D01*
X117891000Y-58806363D01*
X117891000Y-59049637D01*
X117938460Y-59288236D01*
X118031557Y-59512992D01*
X118166713Y-59715267D01*
X118338733Y-59887287D01*
X118541008Y-60022443D01*
X118765764Y-60115540D01*
X119004363Y-60163000D01*
X119247637Y-60163000D01*
X119486236Y-60115540D01*
X119710992Y-60022443D01*
X119913267Y-59887287D01*
X120085287Y-59715267D01*
X120220443Y-59512992D01*
X120313540Y-59288236D01*
X120361000Y-59049637D01*
X120361000Y-58806363D01*
X120313540Y-58567764D01*
X120220443Y-58343008D01*
X120085287Y-58140733D01*
X119913267Y-57968713D01*
X119710992Y-57833557D01*
X119486236Y-57740460D01*
X119247637Y-57693000D01*
X119004363Y-57693000D01*
X118765764Y-57740460D01*
X118541008Y-57833557D01*
X118338733Y-57968713D01*
X118166713Y-58140733D01*
X118031557Y-58343008D01*
X117938460Y-58567764D01*
X117891000Y-58806363D01*
X117821000Y-58806363D01*
X117773540Y-58567764D01*
X117680443Y-58343008D01*
X117545287Y-58140733D01*
X117373267Y-57968713D01*
X117170992Y-57833557D01*
X116946236Y-57740460D01*
X116707637Y-57693000D01*
X116464363Y-57693000D01*
X116225764Y-57740460D01*
X116001008Y-57833557D01*
X115798733Y-57968713D01*
X115626713Y-58140733D01*
X115491557Y-58343008D01*
X115398460Y-58567764D01*
X115351000Y-58806363D01*
X115281000Y-58806363D01*
X115233540Y-58567764D01*
X115140443Y-58343008D01*
X115005287Y-58140733D01*
X114833267Y-57968713D01*
X114630992Y-57833557D01*
X114406236Y-57740460D01*
X114167637Y-57693000D01*
X113924363Y-57693000D01*
X113685764Y-57740460D01*
X113461008Y-57833557D01*
X113258733Y-57968713D01*
X113086713Y-58140733D01*
X112951557Y-58343008D01*
X112858460Y-58567764D01*
X112811000Y-58806363D01*
X112811000Y-59049637D01*
X112817398Y-59081801D01*
X112714044Y-59185154D01*
X112741000Y-59049637D01*
X112741000Y-58806363D01*
X112693540Y-58567764D01*
X112600443Y-58343008D01*
X112465287Y-58140733D01*
X112293267Y-57968713D01*
X112090992Y-57833557D01*
X111866236Y-57740460D01*
X111627637Y-57693000D01*
X111384363Y-57693000D01*
X111145764Y-57740460D01*
X110921008Y-57833557D01*
X110718733Y-57968713D01*
X110546713Y-58140733D01*
X110411557Y-58343008D01*
X110318460Y-58567764D01*
X110271000Y-58806363D01*
X110271000Y-59049637D01*
X110277398Y-59081801D01*
X110174044Y-59185154D01*
X110201000Y-59049637D01*
X110201000Y-58806363D01*
X110153540Y-58567764D01*
X110060443Y-58343008D01*
X109925287Y-58140733D01*
X109753267Y-57968713D01*
X109550992Y-57833557D01*
X109326236Y-57740460D01*
X109087637Y-57693000D01*
X108844363Y-57693000D01*
X108605764Y-57740460D01*
X108381008Y-57833557D01*
X108178733Y-57968713D01*
X108006713Y-58140733D01*
X107871557Y-58343008D01*
X107778460Y-58567764D01*
X107731000Y-58806363D01*
X107731000Y-59049637D01*
X107737398Y-59081801D01*
X107634044Y-59185154D01*
X107661000Y-59049637D01*
X107661000Y-58806363D01*
X107613540Y-58567764D01*
X107520443Y-58343008D01*
X107385287Y-58140733D01*
X107213267Y-57968713D01*
X107010992Y-57833557D01*
X106786236Y-57740460D01*
X106547637Y-57693000D01*
X106304363Y-57693000D01*
X106065764Y-57740460D01*
X105841008Y-57833557D01*
X105638733Y-57968713D01*
X105466713Y-58140733D01*
X105331557Y-58343008D01*
X105238460Y-58567764D01*
X105191000Y-58806363D01*
X105191000Y-59049637D01*
X105197398Y-59081801D01*
X105094044Y-59185155D01*
X105121000Y-59049637D01*
X105121000Y-58806363D01*
X105073540Y-58567764D01*
X104980443Y-58343008D01*
X104845287Y-58140733D01*
X104673267Y-57968713D01*
X104470992Y-57833557D01*
X104246236Y-57740460D01*
X104007637Y-57693000D01*
X103764363Y-57693000D01*
X103525764Y-57740460D01*
X103301008Y-57833557D01*
X103098733Y-57968713D01*
X102926713Y-58140733D01*
X102791557Y-58343008D01*
X102698460Y-58567764D01*
X102651000Y-58806363D01*
X102651000Y-59049637D01*
X102698460Y-59288236D01*
X102760494Y-59438000D01*
X102471506Y-59438000D01*
X102533540Y-59288236D01*
X102581000Y-59049637D01*
X102581000Y-58806363D01*
X102533540Y-58567764D01*
X102440443Y-58343008D01*
X102305287Y-58140733D01*
X102133267Y-57968713D01*
X101930992Y-57833557D01*
X101706236Y-57740460D01*
X101467637Y-57693000D01*
X101224363Y-57693000D01*
X100985764Y-57740460D01*
X100761008Y-57833557D01*
X100558733Y-57968713D01*
X100386713Y-58140733D01*
X100251557Y-58343008D01*
X100158460Y-58567764D01*
X100111000Y-58806363D01*
X100111000Y-59049637D01*
X100158460Y-59288236D01*
X100220494Y-59438000D01*
X99931506Y-59438000D01*
X99993540Y-59288236D01*
X100041000Y-59049637D01*
X100041000Y-58806363D01*
X99993540Y-58567764D01*
X99900443Y-58343008D01*
X99765287Y-58140733D01*
X99593267Y-57968713D01*
X99390992Y-57833557D01*
X99166236Y-57740460D01*
X98927637Y-57693000D01*
X98684363Y-57693000D01*
X98445764Y-57740460D01*
X98221008Y-57833557D01*
X98018733Y-57968713D01*
X97846713Y-58140733D01*
X97711557Y-58343008D01*
X97618460Y-58567764D01*
X97571000Y-58806363D01*
X97571000Y-59049637D01*
X97618460Y-59288236D01*
X97711557Y-59512992D01*
X97846713Y-59715267D01*
X98018733Y-59887287D01*
X98221008Y-60022443D01*
X98445764Y-60115540D01*
X98660037Y-60158161D01*
X97348199Y-61470000D01*
X89341802Y-61470000D01*
X87649566Y-59777764D01*
X87975841Y-59777764D01*
X88023148Y-60001348D01*
X88244516Y-60102237D01*
X88481313Y-60158000D01*
X88724438Y-60166495D01*
X88964549Y-60127395D01*
X89192418Y-60042202D01*
X89268852Y-60001348D01*
X89316159Y-59777764D01*
X88646000Y-59107605D01*
X87975841Y-59777764D01*
X87649566Y-59777764D01*
X87558804Y-59687003D01*
X87535001Y-59657999D01*
X87419276Y-59563026D01*
X87287247Y-59492454D01*
X87217690Y-59471354D01*
X87293540Y-59288236D01*
X87341000Y-59049637D01*
X87341000Y-59006438D01*
X87407505Y-59006438D01*
X87446605Y-59246549D01*
X87531798Y-59474418D01*
X87572652Y-59550852D01*
X87796236Y-59598159D01*
X88466395Y-58928000D01*
X88825605Y-58928000D01*
X89495764Y-59598159D01*
X89719348Y-59550852D01*
X89820237Y-59329484D01*
X89876000Y-59092687D01*
X89884495Y-58849562D01*
X89877461Y-58806363D01*
X89951000Y-58806363D01*
X89951000Y-59049637D01*
X89998460Y-59288236D01*
X90091557Y-59512992D01*
X90226713Y-59715267D01*
X90398733Y-59887287D01*
X90601008Y-60022443D01*
X90825764Y-60115540D01*
X91064363Y-60163000D01*
X91307637Y-60163000D01*
X91546236Y-60115540D01*
X91770992Y-60022443D01*
X91973267Y-59887287D01*
X92145287Y-59715267D01*
X92280443Y-59512992D01*
X92373540Y-59288236D01*
X92421000Y-59049637D01*
X92421000Y-58806363D01*
X92491000Y-58806363D01*
X92491000Y-59049637D01*
X92538460Y-59288236D01*
X92631557Y-59512992D01*
X92766713Y-59715267D01*
X92938733Y-59887287D01*
X93141008Y-60022443D01*
X93365764Y-60115540D01*
X93604363Y-60163000D01*
X93847637Y-60163000D01*
X94086236Y-60115540D01*
X94310992Y-60022443D01*
X94513267Y-59887287D01*
X94685287Y-59715267D01*
X94820443Y-59512992D01*
X94913540Y-59288236D01*
X94961000Y-59049637D01*
X94961000Y-58806363D01*
X95031000Y-58806363D01*
X95031000Y-59049637D01*
X95078460Y-59288236D01*
X95171557Y-59512992D01*
X95306713Y-59715267D01*
X95478733Y-59887287D01*
X95681008Y-60022443D01*
X95905764Y-60115540D01*
X96144363Y-60163000D01*
X96387637Y-60163000D01*
X96626236Y-60115540D01*
X96850992Y-60022443D01*
X97053267Y-59887287D01*
X97225287Y-59715267D01*
X97360443Y-59512992D01*
X97453540Y-59288236D01*
X97501000Y-59049637D01*
X97501000Y-58806363D01*
X97453540Y-58567764D01*
X97360443Y-58343008D01*
X97225287Y-58140733D01*
X97053267Y-57968713D01*
X96850992Y-57833557D01*
X96626236Y-57740460D01*
X96387637Y-57693000D01*
X96144363Y-57693000D01*
X95905764Y-57740460D01*
X95681008Y-57833557D01*
X95478733Y-57968713D01*
X95306713Y-58140733D01*
X95171557Y-58343008D01*
X95078460Y-58567764D01*
X95031000Y-58806363D01*
X94961000Y-58806363D01*
X94913540Y-58567764D01*
X94820443Y-58343008D01*
X94685287Y-58140733D01*
X94513267Y-57968713D01*
X94310992Y-57833557D01*
X94086236Y-57740460D01*
X93847637Y-57693000D01*
X93604363Y-57693000D01*
X93365764Y-57740460D01*
X93141008Y-57833557D01*
X92938733Y-57968713D01*
X92766713Y-58140733D01*
X92631557Y-58343008D01*
X92538460Y-58567764D01*
X92491000Y-58806363D01*
X92421000Y-58806363D01*
X92373540Y-58567764D01*
X92280443Y-58343008D01*
X92145287Y-58140733D01*
X91973267Y-57968713D01*
X91770992Y-57833557D01*
X91546236Y-57740460D01*
X91307637Y-57693000D01*
X91064363Y-57693000D01*
X90825764Y-57740460D01*
X90601008Y-57833557D01*
X90398733Y-57968713D01*
X90226713Y-58140733D01*
X90091557Y-58343008D01*
X89998460Y-58567764D01*
X89951000Y-58806363D01*
X89877461Y-58806363D01*
X89845395Y-58609451D01*
X89760202Y-58381582D01*
X89719348Y-58305148D01*
X89495764Y-58257841D01*
X88825605Y-58928000D01*
X88466395Y-58928000D01*
X87796236Y-58257841D01*
X87572652Y-58305148D01*
X87471763Y-58526516D01*
X87416000Y-58763313D01*
X87407505Y-59006438D01*
X87341000Y-59006438D01*
X87341000Y-58806363D01*
X87293540Y-58567764D01*
X87200443Y-58343008D01*
X87065287Y-58140733D01*
X87002790Y-58078236D01*
X87975841Y-58078236D01*
X88646000Y-58748395D01*
X89316159Y-58078236D01*
X89268852Y-57854652D01*
X89047484Y-57753763D01*
X88810687Y-57698000D01*
X88567562Y-57689505D01*
X88327451Y-57728605D01*
X88099582Y-57813798D01*
X88023148Y-57854652D01*
X87975841Y-58078236D01*
X87002790Y-58078236D01*
X86893267Y-57968713D01*
X86690992Y-57833557D01*
X86466236Y-57740460D01*
X86227637Y-57693000D01*
X85984363Y-57693000D01*
X85745764Y-57740460D01*
X85521008Y-57833557D01*
X85318733Y-57968713D01*
X85146713Y-58140733D01*
X85011557Y-58343008D01*
X84918460Y-58567764D01*
X84871000Y-58806363D01*
X84871000Y-59049637D01*
X84918460Y-59288236D01*
X84980494Y-59438000D01*
X84691506Y-59438000D01*
X84753540Y-59288236D01*
X84801000Y-59049637D01*
X84801000Y-58806363D01*
X84753540Y-58567764D01*
X84660443Y-58343008D01*
X84525287Y-58140733D01*
X84353267Y-57968713D01*
X84150992Y-57833557D01*
X83926236Y-57740460D01*
X83687637Y-57693000D01*
X83444363Y-57693000D01*
X83205764Y-57740460D01*
X82981008Y-57833557D01*
X82778733Y-57968713D01*
X82606713Y-58140733D01*
X82471557Y-58343008D01*
X82378460Y-58567764D01*
X82331000Y-58806363D01*
X82331000Y-59049637D01*
X82378460Y-59288236D01*
X82440494Y-59438000D01*
X82151506Y-59438000D01*
X82213540Y-59288236D01*
X82261000Y-59049637D01*
X82261000Y-58806363D01*
X82213540Y-58567764D01*
X82120443Y-58343008D01*
X81985287Y-58140733D01*
X81813267Y-57968713D01*
X81610992Y-57833557D01*
X81386236Y-57740460D01*
X81147637Y-57693000D01*
X80904363Y-57693000D01*
X80665764Y-57740460D01*
X80441008Y-57833557D01*
X80238733Y-57968713D01*
X80066713Y-58140733D01*
X79931557Y-58343008D01*
X79838460Y-58567764D01*
X79791000Y-58806363D01*
X79791000Y-59049637D01*
X79838460Y-59288236D01*
X79931557Y-59512992D01*
X80066713Y-59715267D01*
X80238733Y-59887287D01*
X80441008Y-60022443D01*
X80665764Y-60115540D01*
X80668178Y-60116020D01*
X79334003Y-61450196D01*
X79304999Y-61473999D01*
X79272999Y-61512992D01*
X79210026Y-61589724D01*
X79156428Y-61689999D01*
X79139454Y-61721754D01*
X79095997Y-61865015D01*
X79085000Y-61976668D01*
X79085000Y-61976678D01*
X79081324Y-62014000D01*
X79085000Y-62051322D01*
X79085001Y-68336928D01*
X78845000Y-68336928D01*
X78720518Y-68349188D01*
X78600820Y-68385498D01*
X78490506Y-68444463D01*
X78393815Y-68523815D01*
X78314463Y-68620506D01*
X78255498Y-68730820D01*
X78219188Y-68850518D01*
X78206928Y-68975000D01*
X78206928Y-71775000D01*
X78210137Y-71807579D01*
X78161123Y-71649240D01*
X78130000Y-71353118D01*
X78130000Y-56286061D01*
X97035000Y-56286061D01*
X97035000Y-56489939D01*
X97074774Y-56689898D01*
X97152795Y-56878256D01*
X97266063Y-57047774D01*
X97410226Y-57191937D01*
X97579744Y-57305205D01*
X97768102Y-57383226D01*
X97968061Y-57423000D01*
X98171939Y-57423000D01*
X98371898Y-57383226D01*
X98560256Y-57305205D01*
X98729774Y-57191937D01*
X98873937Y-57047774D01*
X98987205Y-56878256D01*
X99065226Y-56689898D01*
X99105000Y-56489939D01*
X99105000Y-56286061D01*
X99065226Y-56086102D01*
X98987205Y-55897744D01*
X98873937Y-55728226D01*
X98729774Y-55584063D01*
X98560256Y-55470795D01*
X98371898Y-55392774D01*
X98171939Y-55353000D01*
X97968061Y-55353000D01*
X97768102Y-55392774D01*
X97579744Y-55470795D01*
X97410226Y-55584063D01*
X97266063Y-55728226D01*
X97152795Y-55897744D01*
X97074774Y-56086102D01*
X97035000Y-56286061D01*
X78130000Y-56286061D01*
X78130000Y-53873061D01*
X106026000Y-53873061D01*
X106026000Y-54076939D01*
X106065774Y-54276898D01*
X106143795Y-54465256D01*
X106257063Y-54634774D01*
X106401226Y-54778937D01*
X106570744Y-54892205D01*
X106759102Y-54970226D01*
X106959061Y-55010000D01*
X107162939Y-55010000D01*
X107362898Y-54970226D01*
X107551256Y-54892205D01*
X107720774Y-54778937D01*
X107764711Y-54735000D01*
X111826199Y-54735000D01*
X112376000Y-55284802D01*
X112376000Y-55346939D01*
X112415774Y-55546898D01*
X112493795Y-55735256D01*
X112607063Y-55904774D01*
X112751226Y-56048937D01*
X112920744Y-56162205D01*
X113109102Y-56240226D01*
X113309061Y-56280000D01*
X113512939Y-56280000D01*
X113712898Y-56240226D01*
X113901256Y-56162205D01*
X114070774Y-56048937D01*
X114214937Y-55904774D01*
X114328205Y-55735256D01*
X114406226Y-55546898D01*
X114446000Y-55346939D01*
X114446000Y-55143061D01*
X114406226Y-54943102D01*
X114328205Y-54754744D01*
X114214937Y-54585226D01*
X114070774Y-54441063D01*
X113901256Y-54327795D01*
X113712898Y-54249774D01*
X113512939Y-54210000D01*
X113450802Y-54210000D01*
X112704804Y-53464003D01*
X112681001Y-53434999D01*
X112565276Y-53340026D01*
X112433247Y-53269454D01*
X112289986Y-53225997D01*
X112178333Y-53215000D01*
X112178322Y-53215000D01*
X112141000Y-53211324D01*
X112103678Y-53215000D01*
X107764711Y-53215000D01*
X107720774Y-53171063D01*
X107551256Y-53057795D01*
X107362898Y-52979774D01*
X107162939Y-52940000D01*
X106959061Y-52940000D01*
X106759102Y-52979774D01*
X106570744Y-53057795D01*
X106401226Y-53171063D01*
X106257063Y-53315226D01*
X106143795Y-53484744D01*
X106065774Y-53673102D01*
X106026000Y-53873061D01*
X78130000Y-53873061D01*
X78130000Y-45745061D01*
X91802000Y-45745061D01*
X91802000Y-45948939D01*
X91841774Y-46148898D01*
X91919795Y-46337256D01*
X92033063Y-46506774D01*
X92177226Y-46650937D01*
X92346744Y-46764205D01*
X92535102Y-46842226D01*
X92735061Y-46882000D01*
X92938939Y-46882000D01*
X93138898Y-46842226D01*
X93327256Y-46764205D01*
X93496774Y-46650937D01*
X93640937Y-46506774D01*
X93754205Y-46337256D01*
X93832226Y-46148898D01*
X93842151Y-46099000D01*
X100642289Y-46099000D01*
X100686226Y-46142937D01*
X100855744Y-46256205D01*
X101044102Y-46334226D01*
X101244061Y-46374000D01*
X101447939Y-46374000D01*
X101647898Y-46334226D01*
X101836256Y-46256205D01*
X102005774Y-46142937D01*
X102149937Y-45998774D01*
X102263205Y-45829256D01*
X102341226Y-45640898D01*
X102381000Y-45440939D01*
X102381000Y-45237061D01*
X102341226Y-45037102D01*
X102263205Y-44848744D01*
X102149937Y-44679226D01*
X102005774Y-44535063D01*
X101836256Y-44421795D01*
X101647898Y-44343774D01*
X101447939Y-44304000D01*
X101244061Y-44304000D01*
X101044102Y-44343774D01*
X100855744Y-44421795D01*
X100686226Y-44535063D01*
X100642289Y-44579000D01*
X93382322Y-44579000D01*
X93344999Y-44575324D01*
X93307676Y-44579000D01*
X93307667Y-44579000D01*
X93196014Y-44589997D01*
X93052753Y-44633454D01*
X92920724Y-44704026D01*
X92804999Y-44798999D01*
X92794329Y-44812000D01*
X92735061Y-44812000D01*
X92535102Y-44851774D01*
X92346744Y-44929795D01*
X92177226Y-45043063D01*
X92033063Y-45187226D01*
X91919795Y-45356744D01*
X91841774Y-45545102D01*
X91802000Y-45745061D01*
X78130000Y-45745061D01*
X78130000Y-42131653D01*
X124417952Y-42131653D01*
X124573962Y-42447214D01*
X124948745Y-42638020D01*
X125353551Y-42752044D01*
X125772824Y-42784902D01*
X126190451Y-42735334D01*
X126590383Y-42605243D01*
X126886038Y-42447214D01*
X127042048Y-42131653D01*
X125730000Y-40819605D01*
X124417952Y-42131653D01*
X78130000Y-42131653D01*
X78130000Y-40682824D01*
X123585098Y-40682824D01*
X123634666Y-41100451D01*
X123764757Y-41500383D01*
X123922786Y-41796038D01*
X124238347Y-41952048D01*
X125550395Y-40640000D01*
X125909605Y-40640000D01*
X127221653Y-41952048D01*
X127537214Y-41796038D01*
X127728020Y-41421255D01*
X127842044Y-41016449D01*
X127874902Y-40597176D01*
X127825334Y-40179549D01*
X127695243Y-39779617D01*
X127537214Y-39483962D01*
X127221653Y-39327952D01*
X125909605Y-40640000D01*
X125550395Y-40640000D01*
X124238347Y-39327952D01*
X123922786Y-39483962D01*
X123731980Y-39858745D01*
X123617956Y-40263551D01*
X123585098Y-40682824D01*
X78130000Y-40682824D01*
X78130000Y-36659117D01*
X78275000Y-36659117D01*
X78275000Y-37000883D01*
X78341675Y-37336081D01*
X78472463Y-37651831D01*
X78662337Y-37935998D01*
X78904002Y-38177663D01*
X79188169Y-38367537D01*
X79503919Y-38498325D01*
X79839117Y-38565000D01*
X80180883Y-38565000D01*
X80516081Y-38498325D01*
X80544959Y-38486363D01*
X89951000Y-38486363D01*
X89951000Y-38729637D01*
X89998460Y-38968236D01*
X90091557Y-39192992D01*
X90226713Y-39395267D01*
X90398733Y-39567287D01*
X90601008Y-39702443D01*
X90825764Y-39795540D01*
X91064363Y-39843000D01*
X91307637Y-39843000D01*
X91546236Y-39795540D01*
X91770992Y-39702443D01*
X91973267Y-39567287D01*
X92145287Y-39395267D01*
X92280443Y-39192992D01*
X92373540Y-38968236D01*
X92421000Y-38729637D01*
X92421000Y-38486363D01*
X92491000Y-38486363D01*
X92491000Y-38729637D01*
X92538460Y-38968236D01*
X92631557Y-39192992D01*
X92766713Y-39395267D01*
X92938733Y-39567287D01*
X93141008Y-39702443D01*
X93365764Y-39795540D01*
X93604363Y-39843000D01*
X93847637Y-39843000D01*
X94086236Y-39795540D01*
X94310992Y-39702443D01*
X94513267Y-39567287D01*
X94685287Y-39395267D01*
X94820443Y-39192992D01*
X94913540Y-38968236D01*
X94961000Y-38729637D01*
X94961000Y-38486363D01*
X95031000Y-38486363D01*
X95031000Y-38729637D01*
X95078460Y-38968236D01*
X95171557Y-39192992D01*
X95306713Y-39395267D01*
X95478733Y-39567287D01*
X95681008Y-39702443D01*
X95905764Y-39795540D01*
X96144363Y-39843000D01*
X96387637Y-39843000D01*
X96626236Y-39795540D01*
X96850992Y-39702443D01*
X97053267Y-39567287D01*
X97225287Y-39395267D01*
X97360443Y-39192992D01*
X97453540Y-38968236D01*
X97501000Y-38729637D01*
X97501000Y-38486363D01*
X97571000Y-38486363D01*
X97571000Y-38729637D01*
X97618460Y-38968236D01*
X97711557Y-39192992D01*
X97846713Y-39395267D01*
X98018733Y-39567287D01*
X98221008Y-39702443D01*
X98445764Y-39795540D01*
X98684363Y-39843000D01*
X98927637Y-39843000D01*
X99166236Y-39795540D01*
X99390992Y-39702443D01*
X99593267Y-39567287D01*
X99765287Y-39395267D01*
X99900443Y-39192992D01*
X99993540Y-38968236D01*
X100041000Y-38729637D01*
X100041000Y-38486363D01*
X100111000Y-38486363D01*
X100111000Y-38729637D01*
X100158460Y-38968236D01*
X100251557Y-39192992D01*
X100386713Y-39395267D01*
X100558733Y-39567287D01*
X100761008Y-39702443D01*
X100985764Y-39795540D01*
X101224363Y-39843000D01*
X101467637Y-39843000D01*
X101706236Y-39795540D01*
X101930992Y-39702443D01*
X102133267Y-39567287D01*
X102305287Y-39395267D01*
X102440443Y-39192992D01*
X102533540Y-38968236D01*
X102581000Y-38729637D01*
X102581000Y-38486363D01*
X102651000Y-38486363D01*
X102651000Y-38729637D01*
X102698460Y-38968236D01*
X102791557Y-39192992D01*
X102926713Y-39395267D01*
X103098733Y-39567287D01*
X103301008Y-39702443D01*
X103525764Y-39795540D01*
X103764363Y-39843000D01*
X104007637Y-39843000D01*
X104246236Y-39795540D01*
X104470992Y-39702443D01*
X104673267Y-39567287D01*
X104845287Y-39395267D01*
X104980443Y-39192992D01*
X105073540Y-38968236D01*
X105121000Y-38729637D01*
X105121000Y-38486363D01*
X105191000Y-38486363D01*
X105191000Y-38729637D01*
X105238460Y-38968236D01*
X105331557Y-39192992D01*
X105466713Y-39395267D01*
X105638733Y-39567287D01*
X105841008Y-39702443D01*
X106065764Y-39795540D01*
X106304363Y-39843000D01*
X106547637Y-39843000D01*
X106786236Y-39795540D01*
X107010992Y-39702443D01*
X107213267Y-39567287D01*
X107385287Y-39395267D01*
X107520443Y-39192992D01*
X107613540Y-38968236D01*
X107661000Y-38729637D01*
X107661000Y-38486363D01*
X107731000Y-38486363D01*
X107731000Y-38729637D01*
X107778460Y-38968236D01*
X107871557Y-39192992D01*
X108006713Y-39395267D01*
X108178733Y-39567287D01*
X108381008Y-39702443D01*
X108605764Y-39795540D01*
X108844363Y-39843000D01*
X109087637Y-39843000D01*
X109326236Y-39795540D01*
X109550992Y-39702443D01*
X109753267Y-39567287D01*
X109925287Y-39395267D01*
X110060443Y-39192992D01*
X110153540Y-38968236D01*
X110201000Y-38729637D01*
X110201000Y-38486363D01*
X110271000Y-38486363D01*
X110271000Y-38729637D01*
X110318460Y-38968236D01*
X110411557Y-39192992D01*
X110546713Y-39395267D01*
X110718733Y-39567287D01*
X110921008Y-39702443D01*
X111145764Y-39795540D01*
X111384363Y-39843000D01*
X111627637Y-39843000D01*
X111866236Y-39795540D01*
X112090992Y-39702443D01*
X112293267Y-39567287D01*
X112465287Y-39395267D01*
X112600443Y-39192992D01*
X112693540Y-38968236D01*
X112741000Y-38729637D01*
X112741000Y-38486363D01*
X112811000Y-38486363D01*
X112811000Y-38729637D01*
X112858460Y-38968236D01*
X112951557Y-39192992D01*
X113086713Y-39395267D01*
X113258733Y-39567287D01*
X113461008Y-39702443D01*
X113685764Y-39795540D01*
X113924363Y-39843000D01*
X114167637Y-39843000D01*
X114406236Y-39795540D01*
X114630992Y-39702443D01*
X114833267Y-39567287D01*
X115005287Y-39395267D01*
X115140443Y-39192992D01*
X115233540Y-38968236D01*
X115281000Y-38729637D01*
X115281000Y-38486363D01*
X115351000Y-38486363D01*
X115351000Y-38729637D01*
X115398460Y-38968236D01*
X115491557Y-39192992D01*
X115626713Y-39395267D01*
X115798733Y-39567287D01*
X116001008Y-39702443D01*
X116225764Y-39795540D01*
X116464363Y-39843000D01*
X116707637Y-39843000D01*
X116946236Y-39795540D01*
X117170992Y-39702443D01*
X117373267Y-39567287D01*
X117545287Y-39395267D01*
X117680443Y-39192992D01*
X117773540Y-38968236D01*
X117821000Y-38729637D01*
X117821000Y-38486363D01*
X117891000Y-38486363D01*
X117891000Y-38729637D01*
X117938460Y-38968236D01*
X118031557Y-39192992D01*
X118166713Y-39395267D01*
X118338733Y-39567287D01*
X118541008Y-39702443D01*
X118765764Y-39795540D01*
X119004363Y-39843000D01*
X119247637Y-39843000D01*
X119486236Y-39795540D01*
X119710992Y-39702443D01*
X119913267Y-39567287D01*
X120085287Y-39395267D01*
X120220443Y-39192992D01*
X120238935Y-39148347D01*
X124417952Y-39148347D01*
X125730000Y-40460395D01*
X127042048Y-39148347D01*
X127037922Y-39140000D01*
X128671928Y-39140000D01*
X128671928Y-42140000D01*
X128684188Y-42264482D01*
X128720498Y-42384180D01*
X128779463Y-42494494D01*
X128858815Y-42591185D01*
X128955506Y-42670537D01*
X129065820Y-42729502D01*
X129185518Y-42765812D01*
X129310000Y-42778072D01*
X132310000Y-42778072D01*
X132434482Y-42765812D01*
X132554180Y-42729502D01*
X132664494Y-42670537D01*
X132761185Y-42591185D01*
X132840537Y-42494494D01*
X132899502Y-42384180D01*
X132935812Y-42264482D01*
X132948072Y-42140000D01*
X132948072Y-42025000D01*
X139323080Y-42025000D01*
X139348286Y-42055714D01*
X139597248Y-42260031D01*
X139881285Y-42411852D01*
X140189484Y-42505343D01*
X140429678Y-42529000D01*
X146590322Y-42529000D01*
X146830516Y-42505343D01*
X147138715Y-42411852D01*
X147422752Y-42260031D01*
X147671714Y-42055714D01*
X147876031Y-41806752D01*
X148027852Y-41522715D01*
X148121343Y-41214516D01*
X148152911Y-40894000D01*
X148121343Y-40573484D01*
X148027852Y-40265285D01*
X147876031Y-39981248D01*
X147671714Y-39732286D01*
X147422752Y-39527969D01*
X147138715Y-39376148D01*
X146830516Y-39282657D01*
X146590322Y-39259000D01*
X143364650Y-39259000D01*
X143324037Y-39255000D01*
X143324029Y-39255000D01*
X143256000Y-39248300D01*
X143187971Y-39255000D01*
X132948072Y-39255000D01*
X132948072Y-39140000D01*
X132935812Y-39015518D01*
X132899502Y-38895820D01*
X132840537Y-38785506D01*
X132761185Y-38688815D01*
X132664494Y-38609463D01*
X132554180Y-38550498D01*
X132434482Y-38514188D01*
X132310000Y-38501928D01*
X129310000Y-38501928D01*
X129185518Y-38514188D01*
X129065820Y-38550498D01*
X128955506Y-38609463D01*
X128858815Y-38688815D01*
X128779463Y-38785506D01*
X128720498Y-38895820D01*
X128684188Y-39015518D01*
X128671928Y-39140000D01*
X127037922Y-39140000D01*
X126886038Y-38832786D01*
X126511255Y-38641980D01*
X126106449Y-38527956D01*
X125687176Y-38495098D01*
X125269549Y-38544666D01*
X124869617Y-38674757D01*
X124573962Y-38832786D01*
X124417952Y-39148347D01*
X120238935Y-39148347D01*
X120313540Y-38968236D01*
X120361000Y-38729637D01*
X120361000Y-38486363D01*
X120313540Y-38247764D01*
X120220443Y-38023008D01*
X120085287Y-37820733D01*
X119913267Y-37648713D01*
X119710992Y-37513557D01*
X119486236Y-37420460D01*
X119247637Y-37373000D01*
X119004363Y-37373000D01*
X118765764Y-37420460D01*
X118541008Y-37513557D01*
X118338733Y-37648713D01*
X118166713Y-37820733D01*
X118031557Y-38023008D01*
X117938460Y-38247764D01*
X117891000Y-38486363D01*
X117821000Y-38486363D01*
X117773540Y-38247764D01*
X117680443Y-38023008D01*
X117545287Y-37820733D01*
X117373267Y-37648713D01*
X117170992Y-37513557D01*
X116946236Y-37420460D01*
X116707637Y-37373000D01*
X116464363Y-37373000D01*
X116225764Y-37420460D01*
X116001008Y-37513557D01*
X115798733Y-37648713D01*
X115626713Y-37820733D01*
X115491557Y-38023008D01*
X115398460Y-38247764D01*
X115351000Y-38486363D01*
X115281000Y-38486363D01*
X115233540Y-38247764D01*
X115140443Y-38023008D01*
X115005287Y-37820733D01*
X114833267Y-37648713D01*
X114630992Y-37513557D01*
X114406236Y-37420460D01*
X114167637Y-37373000D01*
X113924363Y-37373000D01*
X113685764Y-37420460D01*
X113461008Y-37513557D01*
X113258733Y-37648713D01*
X113086713Y-37820733D01*
X112951557Y-38023008D01*
X112858460Y-38247764D01*
X112811000Y-38486363D01*
X112741000Y-38486363D01*
X112693540Y-38247764D01*
X112600443Y-38023008D01*
X112465287Y-37820733D01*
X112293267Y-37648713D01*
X112090992Y-37513557D01*
X111866236Y-37420460D01*
X111627637Y-37373000D01*
X111384363Y-37373000D01*
X111145764Y-37420460D01*
X110921008Y-37513557D01*
X110718733Y-37648713D01*
X110546713Y-37820733D01*
X110411557Y-38023008D01*
X110318460Y-38247764D01*
X110271000Y-38486363D01*
X110201000Y-38486363D01*
X110153540Y-38247764D01*
X110060443Y-38023008D01*
X109925287Y-37820733D01*
X109753267Y-37648713D01*
X109550992Y-37513557D01*
X109326236Y-37420460D01*
X109087637Y-37373000D01*
X108844363Y-37373000D01*
X108605764Y-37420460D01*
X108381008Y-37513557D01*
X108178733Y-37648713D01*
X108006713Y-37820733D01*
X107871557Y-38023008D01*
X107778460Y-38247764D01*
X107731000Y-38486363D01*
X107661000Y-38486363D01*
X107613540Y-38247764D01*
X107520443Y-38023008D01*
X107385287Y-37820733D01*
X107213267Y-37648713D01*
X107010992Y-37513557D01*
X106786236Y-37420460D01*
X106547637Y-37373000D01*
X106304363Y-37373000D01*
X106065764Y-37420460D01*
X105841008Y-37513557D01*
X105638733Y-37648713D01*
X105466713Y-37820733D01*
X105331557Y-38023008D01*
X105238460Y-38247764D01*
X105191000Y-38486363D01*
X105121000Y-38486363D01*
X105073540Y-38247764D01*
X104980443Y-38023008D01*
X104845287Y-37820733D01*
X104673267Y-37648713D01*
X104470992Y-37513557D01*
X104246236Y-37420460D01*
X104007637Y-37373000D01*
X103764363Y-37373000D01*
X103525764Y-37420460D01*
X103301008Y-37513557D01*
X103098733Y-37648713D01*
X102926713Y-37820733D01*
X102791557Y-38023008D01*
X102698460Y-38247764D01*
X102651000Y-38486363D01*
X102581000Y-38486363D01*
X102533540Y-38247764D01*
X102440443Y-38023008D01*
X102305287Y-37820733D01*
X102133267Y-37648713D01*
X101930992Y-37513557D01*
X101706236Y-37420460D01*
X101467637Y-37373000D01*
X101224363Y-37373000D01*
X100985764Y-37420460D01*
X100761008Y-37513557D01*
X100558733Y-37648713D01*
X100386713Y-37820733D01*
X100251557Y-38023008D01*
X100158460Y-38247764D01*
X100111000Y-38486363D01*
X100041000Y-38486363D01*
X99993540Y-38247764D01*
X99900443Y-38023008D01*
X99765287Y-37820733D01*
X99593267Y-37648713D01*
X99390992Y-37513557D01*
X99166236Y-37420460D01*
X98927637Y-37373000D01*
X98684363Y-37373000D01*
X98445764Y-37420460D01*
X98221008Y-37513557D01*
X98018733Y-37648713D01*
X97846713Y-37820733D01*
X97711557Y-38023008D01*
X97618460Y-38247764D01*
X97571000Y-38486363D01*
X97501000Y-38486363D01*
X97453540Y-38247764D01*
X97360443Y-38023008D01*
X97225287Y-37820733D01*
X97053267Y-37648713D01*
X96850992Y-37513557D01*
X96626236Y-37420460D01*
X96387637Y-37373000D01*
X96144363Y-37373000D01*
X95905764Y-37420460D01*
X95681008Y-37513557D01*
X95478733Y-37648713D01*
X95306713Y-37820733D01*
X95171557Y-38023008D01*
X95078460Y-38247764D01*
X95031000Y-38486363D01*
X94961000Y-38486363D01*
X94913540Y-38247764D01*
X94820443Y-38023008D01*
X94685287Y-37820733D01*
X94513267Y-37648713D01*
X94310992Y-37513557D01*
X94086236Y-37420460D01*
X93847637Y-37373000D01*
X93604363Y-37373000D01*
X93365764Y-37420460D01*
X93141008Y-37513557D01*
X92938733Y-37648713D01*
X92766713Y-37820733D01*
X92631557Y-38023008D01*
X92538460Y-38247764D01*
X92491000Y-38486363D01*
X92421000Y-38486363D01*
X92373540Y-38247764D01*
X92280443Y-38023008D01*
X92145287Y-37820733D01*
X91973267Y-37648713D01*
X91770992Y-37513557D01*
X91546236Y-37420460D01*
X91307637Y-37373000D01*
X91064363Y-37373000D01*
X90825764Y-37420460D01*
X90601008Y-37513557D01*
X90398733Y-37648713D01*
X90226713Y-37820733D01*
X90091557Y-38023008D01*
X89998460Y-38247764D01*
X89951000Y-38486363D01*
X80544959Y-38486363D01*
X80831831Y-38367537D01*
X81115998Y-38177663D01*
X81357663Y-37935998D01*
X81547537Y-37651831D01*
X81678325Y-37336081D01*
X81745000Y-37000883D01*
X81745000Y-36659117D01*
X153205000Y-36659117D01*
X153205000Y-37000883D01*
X153271675Y-37336081D01*
X153402463Y-37651831D01*
X153592337Y-37935998D01*
X153834002Y-38177663D01*
X154118169Y-38367537D01*
X154433919Y-38498325D01*
X154769117Y-38565000D01*
X155110883Y-38565000D01*
X155446081Y-38498325D01*
X155761831Y-38367537D01*
X156045998Y-38177663D01*
X156287663Y-37935998D01*
X156477537Y-37651831D01*
X156608325Y-37336081D01*
X156675000Y-37000883D01*
X156675000Y-36659117D01*
X156608325Y-36323919D01*
X156477537Y-36008169D01*
X156287663Y-35724002D01*
X156045998Y-35482337D01*
X155761831Y-35292463D01*
X155446081Y-35161675D01*
X155110883Y-35095000D01*
X154769117Y-35095000D01*
X154433919Y-35161675D01*
X154118169Y-35292463D01*
X153834002Y-35482337D01*
X153592337Y-35724002D01*
X153402463Y-36008169D01*
X153271675Y-36323919D01*
X153205000Y-36659117D01*
X81745000Y-36659117D01*
X81678325Y-36323919D01*
X81547537Y-36008169D01*
X81357663Y-35724002D01*
X81115998Y-35482337D01*
X80831831Y-35292463D01*
X80516081Y-35161675D01*
X80180883Y-35095000D01*
X79839117Y-35095000D01*
X79503919Y-35161675D01*
X79188169Y-35292463D01*
X78904002Y-35482337D01*
X78662337Y-35724002D01*
X78472463Y-36008169D01*
X78341675Y-36323919D01*
X78275000Y-36659117D01*
X78130000Y-36659117D01*
X78130000Y-36354279D01*
X78159234Y-36056125D01*
X78236448Y-35800378D01*
X78361869Y-35564496D01*
X78530716Y-35357470D01*
X78736554Y-35187187D01*
X78971556Y-35060121D01*
X79226756Y-34981124D01*
X79522882Y-34950000D01*
X155415721Y-34950000D01*
X155713875Y-34979234D01*
G37*
G04 #@! TD.AperFunction*
M02*
